<mxfile host="65bd71144e">
    <diagram id="7CnGjEC5n7-b3yZ-7gDU" name="Page-1">
        <mxGraphModel dx="1404" dy="422" grid="1" gridSize="10" guides="1" tooltips="1" connect="1" arrows="1" fold="1" page="1" pageScale="1" pageWidth="827" pageHeight="1169" math="0" shadow="0">
            <root>
                <mxCell id="0"/>
                <mxCell id="1" parent="0"/>
                <mxCell id="2" value="http://ics2o.mths.ca" style="swimlane;whiteSpace=wrap;html=1;" parent="1" vertex="1">
                    <mxGeometry x="60" y="60" width="760" height="480" as="geometry"/>
                </mxCell>
                <mxCell id="3" value="" style="rounded=0;whiteSpace=wrap;html=1;fillColor=#f9f7ed;strokeColor=#36393d;fontSize=9;" parent="2" vertex="1">
                    <mxGeometry y="130" width="760" height="350" as="geometry"/>
                </mxCell>
                <mxCell id="4" value="Please chose a gun:" style="text;html=1;strokeColor=none;fillColor=none;align=center;verticalAlign=middle;whiteSpace=wrap;rounded=0;fontColor=#0D0D0D;" parent="2" vertex="1">
                    <mxGeometry x="15" y="150" width="150" height="30" as="geometry"/>
                </mxCell>
                <mxCell id="6" value="" style="endArrow=none;html=1;fontColor=#0D0D0D;jumpSize=5;fillColor=#eeeeee;strokeColor=#36393d;" parent="2" edge="1">
                    <mxGeometry width="50" height="50" relative="1" as="geometry">
                        <mxPoint x="37" y="279" as="sourcePoint"/>
                        <mxPoint x="280" y="279" as="targetPoint"/>
                    </mxGeometry>
                </mxCell>
                <mxCell id="7" value="enter..." style="text;html=1;strokeColor=none;fillColor=none;align=center;verticalAlign=middle;whiteSpace=wrap;rounded=0;fontColor=#BDBBB9;" parent="2" vertex="1">
                    <mxGeometry x="28" y="249" width="62" height="30" as="geometry"/>
                </mxCell>
                <mxCell id="8" value="" style="whiteSpace=wrap;html=1;fillColor=#e3c800;fontColor=#000000;strokeColor=#B09500;" parent="2" vertex="1">
                    <mxGeometry y="20" width="760" height="110" as="geometry"/>
                </mxCell>
                <mxCell id="9" value="&lt;font color=&quot;#000000&quot; style=&quot;font-size: 9px;&quot;&gt;ENTER&lt;/font&gt;" style="rounded=1;whiteSpace=wrap;html=1;fillColor=#ffff88;strokeColor=none;fontSize=9;" parent="2" vertex="1">
                    <mxGeometry x="38" y="302.38" width="70" height="30" as="geometry"/>
                </mxCell>
                <mxCell id="13" value="" style="ellipse;whiteSpace=wrap;html=1;aspect=fixed;" parent="2" vertex="1">
                    <mxGeometry x="36" y="190" width="10" height="10" as="geometry"/>
                </mxCell>
                <mxCell id="15" value="AK-12" style="text;html=1;align=center;verticalAlign=middle;resizable=0;points=[];autosize=1;strokeColor=none;fillColor=none;" parent="2" vertex="1">
                    <mxGeometry x="38" y="180" width="60" height="30" as="geometry"/>
                </mxCell>
                <mxCell id="16" value="" style="ellipse;whiteSpace=wrap;html=1;aspect=fixed;" parent="2" vertex="1">
                    <mxGeometry x="98" y="190" width="10" height="10" as="geometry"/>
                </mxCell>
                <mxCell id="17" value="AK-47" style="text;html=1;align=center;verticalAlign=middle;resizable=0;points=[];autosize=1;strokeColor=none;fillColor=none;" parent="2" vertex="1">
                    <mxGeometry x="98" y="180" width="60" height="30" as="geometry"/>
                </mxCell>
                <mxCell id="19" value="" style="ellipse;whiteSpace=wrap;html=1;aspect=fixed;" parent="2" vertex="1">
                    <mxGeometry x="155" y="190" width="10" height="10" as="geometry"/>
                </mxCell>
                <mxCell id="18" value="AK-74" style="text;html=1;align=center;verticalAlign=middle;resizable=0;points=[];autosize=1;strokeColor=none;fillColor=none;" parent="2" vertex="1">
                    <mxGeometry x="155" y="180" width="60" height="30" as="geometry"/>
                </mxCell>
                <mxCell id="20" value="How many rounds?" style="text;html=1;strokeColor=none;fillColor=none;align=center;verticalAlign=middle;whiteSpace=wrap;rounded=0;fontColor=#0D0D0D;" parent="2" vertex="1">
                    <mxGeometry x="15" y="219" width="150" height="30" as="geometry"/>
                </mxCell>
                <mxCell id="21" value="Cost after deductions: ____&amp;nbsp;" style="text;html=1;strokeColor=none;fillColor=none;align=center;verticalAlign=middle;whiteSpace=wrap;rounded=0;fontColor=#0D0D0D;" parent="2" vertex="1">
                    <mxGeometry x="31" y="338.64" width="165" height="30" as="geometry"/>
                </mxCell>
                <mxCell id="25" value="None" style="text;html=1;align=center;verticalAlign=middle;resizable=0;points=[];autosize=1;strokeColor=none;fillColor=none;" parent="2" vertex="1">
                    <mxGeometry x="215" y="180" width="50" height="30" as="geometry"/>
                </mxCell>
                <mxCell id="26" value="" style="shape=image;verticalLabelPosition=bottom;labelBackgroundColor=default;verticalAlign=top;aspect=fixed;imageAspect=0;image=data:image/jpeg,/9j/4AAQSkZJRgABAQAAAQABAAD/2wBDAAYEBQYFBAYGBQYHBwYIChAKCgkJChQODwwQFxQYGBcUFhYaHSUfGhsjHBYWICwgIyYnKSopGR8tMC0oMCUoKSj/2wBDAQcHBwoIChMKChMoGhYaKCgoKCgoKCgoKCgoKCgoKCgoKCgoKCgoKCgoKCgoKCgoKCgoKCgoKCgoKCgoKCgoKCj/wAARCAMgBLADASIAAhEBAxEB/8QAHQAAAAcBAQEAAAAAAAAAAAAAAAECAwQFBgcICf/EAEkQAAEDAwIEBAQDBwEGBQMDBQEAAgMEBRESIQYxQVETImFxBxQygSNCkRVSYqGxwdEzCBYkQ3LhU4KS8PE0RKIXJVRjRXOywv/EABkBAQEBAQEBAAAAAAAAAAAAAAABAgMEBf/EACQRAQEBAQACAwEAAgMBAQAAAAABEQIhMQMSUUETYQQicTIF/9oADAMBAAIRAxEAPwDI0t883nfpA5kq1p7/AAl7W+IHZ7riZvdVNIRC1zs9MJ6g/aAqRNJLoB2xlQd1fdqdrNQcCqms4mjjyGOGfRYF9bL4QBe4/wAlCdVNGTNKAFcGtq+JJZSWxh2VSVVzqZJCHucD25LOz3qNhexuonoVDluM85OkkN5ABQaWWu/DOuQD7qlqamF7zoDnSHqq8MlkOXZ++6XHG2N2XHJCDZ8G00dRqfUNOmPm0deytOIamGKRoo2FhI3aTlZa33aWlH/DO0kjBHQhRa+4PcTLOSXFBbGaR5Jc7PskuLSeqzUd2c4kN5ZUg1ssnIJoufHjaDl26S6rYRhpyT2VGS958xUun0xxgu3ys/ZRV2t+SHHB9VWCkaMlxz6KyEVRVS6YY3ObnnhXVt4RrKwjZxz0DVNFFbaIyyBsbR7ldS4P4dyxuW6iewUzhn4cVALXyjw293LqlhtNBaoxrIc5vUqfZZFJb+FqmbAazS32V/S8L0tMNVU7UR0Ui48U0VGwta9uoDkFj7nxbU1TnNgboaepUvS40VxqqShiLYGsb6rFV9caiUlu4UWR89Q8ule5xPdOMiDeaz9lw353jJS2w/vI3SNYNkxLVABQSctYNuiZkqQBzVdNV7HdQJavnusqs5qvGd1Cmq85wVWy1Xqo5kc47nAPdBLnqstOTuqC5B0zHuG2FNmmZE0kuyqC43NjtTWHr0V48VmittLLc62OjiGX9x2XV7L8JoaqnbJP4mrqQVjfg6xs3E0rpBkAD+q9W2xsUdI3YDZd5dZkcoovhbQRlokh1AHqumWC2RW2naxoDQ0YUqprYYgeSo6+9jcMP6JINLLWxs2zlNCvYeyx7J6mpd5QQFZUdLMTlxJVGljqWv5J0OyoNLC5rRlS2jCBzKIIgjQBBGEEBIIIwEACJ8Ye3BSgm6lxZESNkGV4opqcQS65ANu68wcaVk1JfpfClJaRsWnGV3X4k12ikf4chbJ07Fef7jG6qqnSVDsHspJtQm38XXal8kU8uD3KFxvN1uLcTVMgYfVLpKOIb4yU7UU7cbbLciKWnpSZcvJec9StVZa+rtgJppXRtPMZ2VNgRZdywmJ7roy0HdVWpufE1zqWlj6p4YeeCs9U1pDS4vLnHmVWOuDnE6uSY1OeXAb5UMPT3F7xsSnYZ3HS4lFQWmesOmJhPX2VjPZaiijBlb5e4U0brhzie5mlZGyV+nGOadu4uFeNU0riEvge3slazWOi6Q2wxSQjTtt2XOxqOMNs0j3efJVrb7I2NwOlbys4bkYS6JufsqqammpziWNzR3wtSRkxTwthZt0TFfco4InZIypEmXRHB3WG4qbOI36CR2WkNVd/IrWsDtiVsLHWiaIAnmuIPqJHTanE6mlbzhS65Y3U7lzUHSUFUvvMLIc6hnqo1NfWzyloKov0WEmB/iRh3dOIE4QwjwggJEcYydk3LOyMHJ3VFdbsY2O07BBa1NdFADlwyq8XyIvwHArA3W+SvJAJIVMLhLHJrDyR2yg7VSVbJ25aRlSVz7hm7GYN83Nb2mf4kIcoHAgEaCAkEfRAICwEAjQQFhBGgECJPp2UcqRKQG77Krq6xsYIBTA5UVTYQc80iC5NI3KztZcAXkEqMaprQXalcG7gnZIMgp5ZGy3EykDOy1kTtUYKBSCPCHJQJQASgEXPKAvdBGggLCGBhGggJABGggLCGEaCAIkaJAEX9EaCiiQIR4QQEiwlIICRYR/0QQFhBHhDCBOEErCJCCRYSsIsKKJHhABHhUJwhhH3QQJCCNBQJQR90ECUEaCKT0RY2Ssc0XdAnCJKwk9EBIkaCiklBH0RIE80kpWyJAkov6pWMpOM5QJKIpSSUCUkpSSUCSknklFJ7oEpKWUnoiwgpBH6JZKQeqDlxqYWfWBlvPHP7o3XFgZ+HG0+5XU+J/gnMKI1FHXGKRrdxONj+m65NLaZbXPLT1RaJ2HBLXZBHoukczEtZNUO06yB2aEllHLM4NGoNPUpArmwvOlrefZWdNcoo2lz/N1wqI/7FdG3USJCm3Q+EdJY4HsQru03WnrK1rXuDANh7q0udNBNoDXkvZv6+yuDIhkjhs0j7I2UEkrvMStAKYA8tgnD4cQPJMFfR24MaCUqvoo3R8xsm627xwtcGEEhZusvc0pOkkBQWBoYo8kEKKahrHFoGcJi3zy1cojyS4ldDsHw8qq0tlMRw7fLljq4SaxlKyWoIDGFbLhnhyaskjaWFzj6ZXTuHvhi2PSZm59MLpNj4XpLVH4hYxgaOqxrcjHcN/DynjhbJUt988lqI6W22tmGRxjT1KzfH/H8VqcaOhw+bGwaeS5PW8TXOqe6SZ7zn8udk+tNjsN04np43ObD5iP3Vl6u7VdU84eWNPZYm13V735l/mtZR1VPMzIIDlkgvBc4kuJJ7lONYxo3QllAyoU1Tz3WWk10waOyjyVXqq2Wq7lQZavnuiLOar9VBlqzk7qulqc9UwS9/XA9VBLkqvX7Jhznv9lHdPFEDqIJ9VT1l7ayTw4zk+iZoupZ4om7u391U3G8BkZDTk+ipa2eoqnjBOFIhoS+PL1cTTRqp6lp3OD0QpLbJKXHfCtqKk3DGN581tbPZY20RJaNXNanmoq/heBbr1K6QjfGF3z/AHiDKMBpycdFybh3hiWquviMOhoOOXNdhtvDbGU7A5uSB1W54Rn5LlPVSHOQ1W9qo/FcC5ufUq5ZY2N5NCsqOgEQGwWtMIpKFjGg4GVPjia0bBONZhKATAQGyMBGgqAjCJGgCCASJZo4gS9wCBwBE5zWDLiAFRXLiOmpA7MjRjuVzviX4kQQMe2GTW8csImuoVt3gpgcuG3qsXxDx9R0scjXStJ7Arh9/wCPLjcHuZG4xt9Cs4JpZZPEnkLzzySrImthxdxRJdnOEOQz1WJkL3O8x907LWsa0gYUKWrBJGw7Fa8ETYqgwtwSEiSu1qqbLqc4Z2Rhjnah+iap6onLmc8lVr4XS7tyraGlBj8/JJlljgOGtyshimoC5o181KfG2BnlGSEmkfJJITyCmGNpBzuSg0XCtTA2gIy0SZ3Uy51jKiMU0ZDnO29lmKG21MzgKdjhnqFtuFuEal1Q2WVrne6zo2PAdqeIWEjoupUFvywAjKquGLYYI2gtxhbOmjDW8kVDba2Ob9Iyq+4WGOVhBjB+y07UrAcNwqORXfhIsLn02Wnt0XP+JLNNG1wmiIHfGy9Kz0TJWnYLNX6zROgfrjDsjqETHjTiK3fKVBkDfKTvhQaOsdTklhwCuifFWjioat0YZp15IHQrkNTOY5CMpPI1TLjUVb/DjJJPZbHha1Stw6TJJPMrJ8EiJ+HvIz1yuo01fT09ONGNQCSai3p4/DjDUtZ2S9ZccHZPU111vDdW5K1iLtOMo6ioOmGN2/XC0nDFpp6hjZJyCStS+Ojt8ZPkGExXMqjh2oZGXPO6xXEMTafWyXAIXS+LOK6Knjkax7ScdFwPi3iJ1bUuERJyeiWyGKS71DGSuDDsqkSSzv0xgknoFZUFmqrhJqeCGlbqw8KsiAJj3WdVB4Nt8sUbNYOeq6bRs0wAFRKC2sp2jYKyGw2ViAgEYRBEGiCCCEBBBFlFGja1zjhoLj6DKmWq3S18wDQWxjm5dI4d4cgY1rRGAO55lWTUcXvMskDDrjewdyMLD3O5uEjhnZesr/w1QyUT2SRscCNwQvJfxTtrbLd3RUmTFITho6K3/qRS1NzGT5kmkdUVzgGZDD1VfZ7PUVswdM0hmdgumWCxtiY3LcYWVI4etzow3IK2ETNDAOyRTwMibhoGU6gHVBGi6KAkMI0FQQQR4QwoCRJQRIBhEEpEgCJH3QQEgjCGEBII0WEBY5owhhGiko0aJQEh90aGNkCUYCGEMICQRoIEowhhBAOiJGEAiiRJRRKAkX3R8kEBfdFzSkSoSgjQQJQRodVFhKTjZK7oigTyRJWESgJJSkW6BOOe6JK7pPf0RSUWP0SkSBB5bokpJ6IEpJSik90CSkJwpCBJ5JJ9EspBQIKQU4Ug+qDR8X/FajraeSnpYpJXEYD27BcQukprKiWaocNTz74VXdLm+CYsHTsqqavmeOwXXa5yJssVOyQnOT0yoEj3TytZq25bbJgvdJnUSU5A1RV1RtbSMDmNbqPP1VnTVvjbOLmuWYe2Q/SXZVrYzIyQiUgjPVJReise3yk6h3USukeYCUqreXOA1cuqZnqYo4iHOyUozT4p6iVwYxx3SX22oAJLFbMucEWohu6srfWQStLpGeU91YGfh5QauI4fmRiPHM91624Vmt8VHFGQz0wV5SqbvS0u8AAeORHMKVwvxtcIL7RNdUv+WMgDw47YWeosuPauunp6N04ADQMrgXxO+L7aSqnoKHMkrdjpOwWx4l4zgpeFHDxG6nR7bryw631NxrJqiQnEjy4ud1yVJC1LPEslVWvqKsOL3nJPPC1VqutNURgHSQsfJb4oWbNc542woEUk9NPmJrxvu3C3LiOlVUMZbrgdg+ihQXeSmm0vd91T2+6v0BsmWnHXom7lKHjUFjuf2LG/pbq2piHm3wmpqrfmsHZ7m6OTQ5y1EbnSsDicA9FwrUPyTnOyZcHPOc4CTJLHE3OQT1yqG7XzwjoZzUk1V5NPFTsLnEbKpqrw10bvD3KpquWeqhHmO6ettA4RfinmriajxVVRVzODsqRDbi6fXIp8ccNMCcjKZfWOedMYyVRILIom9Mo43mR2GhJoqCeqeCQcLWWjhxzi3LSrIItopy3BI3W1tIe4Buny9QrKycJvkA8haPVbqz8LxQAEsyfVbnhMV/DNO2E5DCDnqt5RSlzACMKPBa2RgaQArCGDQEgeCNFhGFrUGggEYCoJAIEhoJcQFArLrT0wILxn3QT+ij1FbDAPO4ZWA4j+INHRRyAzN1DkAVyjiL4m1NW4x0uWgfmRNdwvXGFLRNeHSsbgd1y3iX4ojDo6TU53dczqrnVV2X1MznE77lV0gjLiS4bK4i4unE1yukpM0rmtPQFVsk7Awlz8lVlbV+C3EfNV8MklSTk7duysuCxNS0yHSMoqid2nI2CaijDG56pRjdM0DqioMsri/IyCnGxyStBwf8KwgoGtPnU+JkLG42UwVEdO5uDpJKD4qonLI9lc+NE0kHCW2tp2DchXwKyNlWGDLPdGIcvy9pyrL52J2Q1wTkLo5JBrwRnCuIFutU1U7EDSR7LaWHgmWbS6ZpOVsOAOH4pIGSFgwcEBdSoLNHEBhgC5tMPYeDYYWtLoxn2W3t9lihaMMH6K4hpWsGwUlrMJgapqZsY2AUtrcBE0JYVwGEoIgj2AydgqhTeSiXNsbqd2sjkq+8X2CgjcXPAx6rk/F3xQihL46Z/iP9ETWf8AjdRUk9C92QJmbtPYrzm+3SyylzxpC6XfuIJ7zUOdUv8AKT9OVXCiE4wGforOTVDZY3wYbCSAOa00L5dGXvIHZR2Uoot3ABuVHrq0OYWx491Z4Fq2tjAxkZSJK4xuDmO3BysW2Wp8U5J05U9k7iwAk5V+xjqdl4/fSwNa44ICZvfHFbch4cDjvtsudUkTppcZWustA1oBcud/BDfbqu4nMr3HKdouEWCTU5uT3K11MYom8hspAqWDlhTDUS3WWKnYCWgYUierjpBgABOGrBaRkLLX+cnV5lqRGjhvET9iQpsVXFINnLlUdTI6XS1xHfdaq0yOMYJkwQtSarYiRp5EI8hZCsuhgd9SYi4jkacHJUxMbdBZin4jDuf81YQXmKQbkBTBbK/4ZsbbjMHVD8Rj8o6rF1d2Yxh0FRrbx5LaagHdzAdwrJ+j0ZauHI44wWBugcgAp1VPHboSQQMDmuaWT4t2+ajbmUMONwVk+Pfib86w01qOuR2xI5BbtknhGl49+JEVvikihd4kx2a0HfK4rJBU3+vNZXDLidm9lJobZJVzfMVbjJK7cly01LTRQNAaBlcvN9rESgtMcDB5QFdwsDGANCZa4d1IYRp5hUKCPphJyM80YIwhB90EWduaNFBBFlBEBBBGookfREEEAQQCCAIIIAoB3RBGiQBBH0RIAgjCGEBYQwjwjUBIkfRDGUUlBGhhAQCCMBDugLCJGhhAnCMI/wCiIBAW6HqjRIokSUiUBIIBBUEeSBQQQJQRolASJH3Qwik9EXslIkCUSUUSgSUkpRSSrgT1RFK7osKKRyyiSknCBJSSlkJJQIKSUtIKBB68kRSiknkgQUg8kshIPLdFc7u1hhe7xH/yVQ6zQBuNeB681pL02Z5LYzhUjbfVSv8AO44XWxzVjrewbM8xTkFuJOzcD1V4KeGmbmVwyoM9zia/RGpgKOjjjGZCkT1sEDcMxlKL45YXuI1dN3fzWd8EyzEaiG5QSqm6OkJDEyyGeo3dsD3VhS29kYDvKPU7lT2sawZDcfxOQVMFtw7LgdupUp9NojOhxO26kPqGMO2XHoh8tPUN3zG31/wrgoJIsP33Vla7ZUVMrdMZazuQrWltYY/ysJP7zgrGWrFvhOSAf5qCWyCqfFHBPI+VreWs5AU2OjYxmZSBhZen4hDS52HF3qrCgo77xFIBRU8jYnHGtwwEliHbjVUkQLWOaXd0vh+jdWOfJHBJMQMgtYSuncEfBincGVN8lfUSc/D5NXZ7PwrQUlO2GmhigYB0AWpLTXjfieV0dRpcwtcBjzNwVUeOXxbr2Jx3w5YxbpHVlLBUOA5vaCvLV9tlO24VDaFgZBq8rRyCl5s9krKRVBZODnqtZSXBzoNLVnZbZK1+Wjr2VxbKd7Y8OGy4dRuJJc558xKgyW0zTan8sqze6OFvmIyoE9xLvLCM9FiKmBsMEYDsbKLLXEnTC3KOjttXXvBIdgrY2Pg8uLS9hJ9lZBkaO3VNa8Eg4K11l4Uc7SXtyV0ewcFvIbmPSPZb+0cLQ0wBLMnuQtSI53YeDnuDcx6R7Le2fhiGAAlgJ9lqaehjiAAaFKawAbBakEOloI4mgABTY4wBsEpoSwFrDSQ1KARgIwFUJwgAm6iqhp2kyPG3qsvfeMqO3xEmVg+6Ya1T5GRjL3AKmufEdLRxvcZGjT3K49xL8T3vc75DzepXLrxxNdLnM7xJXAHo0q4mu1cT/E+lha5kEuuTsFzO9cbXG6FxY90bDywVjPCc52qZxyhJWNhAa1wKsk/qHKszVEhdK9zvcptsbGDJIympK0lmQQoc07n523TVP1VWQwiPooTJ3knOcn+aDvoOeyZEzRgclA84OfsRt27KVQUzgThP0Mcco8wznqrKOmaxpMZ+ysiIgp+5TrWhvTkm5C9rsv2Hog6oA2buVNUmrkcxnlOCoEcrnvO5UzwZKl2Bn9FaW2xTv30Z+ymitgpnzuAAJK0Ft4WdUNBewnPRaXh/hl5c3Uzr2XULFY44I2/ggnuorksXw/EjdRjcE3PwFVRaXUkpO48rl3Oem8BpxECPRUsjT8wCIyN+WFNF5wHb5aajiZM3DmgLetaAFm7BLiMZBWkYchagWAlAIglhVAASgEh8jI25e4BUN44lpqONx1tAHqgvpZ44WkvcAsrxHxXTUcL8ytaB6rmfF3xJLdbKTMjvRcjvV/uV2md4j3BpPLKuJrX8ccXzXaZ8NNKWxZxkdVgJaaR7shx3UigpJS4ayfMcLdWvh+n+W1y+Z56nkFuSCq4I4JdeXumqHaKePmRzcewWk4j4UprVQSTQHQ5o2yeaZp+IW8PfgsxobsQFRcW8ZOusPhg6Yx0HVZ0Z65zNkjewjc7HCzUcZbI4HJblWEk5kJJKr6iRx1eGFFPOYzGeSaER8VmOWUVKHEYf9lpuHLRNXVTNMR0D0WbcCLNaayU62RHB5bK6LamgGJ4nsHfGy7Lwfw5FHTMD2AvxvstJcOEqarpyySBpBHZTyWPOv7Q9UP2h6recT/DJ8ZfLbiWHnoPJc3udqrbbKWVcLmEdcbFExM/aG3NVdwnM4OFGJcn6KknrJA2JpPrhCKxkLxJ5AS48sLV2OzV9YwNLXNaeoWo4Z4PB0vnaST3C6NbLVDSsAa0DHoud+XPTrOP1hbZwMHNHj5d7q4ZwTRMb5o2/otllrBhoSQC47rje7W5zI57dODofDPgsAwsJeLPVW5znDUWhd9fG3B1brPX+3RVMD/KM4WuflvJeJXCfnsnS93uFErpGPafDxqTvHlskoJ3TQg4/MAslT3BwO5Xp56+0cLMWdPbquaYkEhvoVq7NQCDHiAg9crO0N7ZEADzVpBfGzbAq+EbNlU2NgDcIvn/VZltYXNByi+ad3UGpbXDupEdf5cErICrPdKFaQOaI2Arx+8jFeO6x/wA+QeaAuB7oNkK/1ShXDusaLie6U24+qDYiuHdGK0d1kBcfVGLjtzQbAVo7oxWjusf+0fVKbcf4kGwFYO6UKtvdZFty/iSxcf4kVrRVN9EYqW4WTFx/iShcv4kGrFQ3ujE7e6yzbjnbKWLj6oNR4ze6AlbjmFmhcfVGLj6oNKJG90A9vdZwXEd0oXEd0GjDgeqMEHqqBlw/iTzK/wDiQXQxjmjVS2u25pba31QWeEWFA+dHdAVo7hBPwix2UIVg7pQrB3RUzCTjZRxVt7o/mWnsoH0EwKlqMVDUD2ESb8dqHjNwgX0QTfjN7oeK3ugWgk+I3ujD290AQQ1DuhqbjmEUSJHkdCi+6AkEPdDugJBBAqBKJKKSf0RQSUZScoAk9UaLogJJ6JXoklRRHkk9EZRIEkJJS0lAjdERzSklAhJKWeSQUCCE24c04UghBj6qrhiBL3AkKjq7u52RA3ZQyGSSOc+XYHcE8k1PX01O3yAOcOq62sIFfUVUhOonCgtY4HU47p6etdVTABoxlCua5mnDf0CgDSdLsFRxK5jjg9VZW23y1ZwzYkdQp0HDUpnIlOR3HJXAdrmiNIXyM1HmTnkU6+DxvpmLR1BCv6OzwUtGcY8QDl3WdqKOrbLI8HMTTy5FMFjR26OPB21fvE7q00wQM1SyNAWGdcZ45HNh1bdXHdPvNTPDqmkI9EGgrL/FBllKwveeyiWu1XLiO4MiAEbXndxGdI9lUU1RFTSZe0n3C1vCfEj6avE1LE3y8w4bJIOy8DfBa2UkcdTXf8bLscO5D7Lp8HDdNSRt8KKOBjRjAGFyqzfFiIzQwVgdE7l5PMCrjib4hVEtvItERe8DnIcD7Lc+s9Mt5W3iktUBDpWDSOZ2XPOIPizBTl8VAPmJehB2C5JdLrcbvM51dUPIz9AOAFEaIYR5nNBTTF/fOLbxfHOFTUOZEf8AlsOAqQsa1uXYTUlU0A6MKJJO5/VRZDk7o3HkDhR9bmtOjojALuQJR6sZBCzZqq9lJNWVBDnHBK23DvCUUmlz3NcfVZ2B+jLmjGFMo+Lqiln8Nkf09Vz+iyuycP8ABcWGlxja30K3VusVBQsDnlmRzK4BT/E6upsN+XJPfKKu+Il2rmaWHwR6FWcmvQtZxFa7ZGfOwY7lVtL8QKGebTHOzb1XmqsudRUEvq6hzs93Ksqb5DTA6H+YdQVr6pr2VRX+mqAPM3fqCrWGaOUZjcCvGNj4+raJwLahxYPyuXbvhZx0OIC4ElrojpcCeqhrsoShgDc4VJceIaOiiLnStyBk5K51xH8UII3PipiXyenJMNdUrLpTUjSZHgLE8RfEOjoS5jZA8jo07rjF84tudyLg+ctj5Bo2WfbIMOMrnOPc7rU5TW04h+Ilwq3PZTeRh781zy519ZVTF00sjs+uydlmGrIUV8mcpkgOKQCPzb+6iVFUyJxG4KdecjdV9XFqByU1QqK9zgRnZQTIXSA9euUuCkkkeQ1pwrKGgjjOZiPZQQ/BfIMNBIU6G3HTqfyS5KyKIhrADvjZToy+SE9AVBQ3CRsQLGDdVBp5pCXAHC0ElLG2QveclNSHUNMbUEahnlgIBdnCu6Wt1bO9lWU1umkkzpOFp7Lw9JPK3IOE+2GK6eJ84IYCVYWbhqoqXtc5px7LpFi4Pzglmfst/ZuGGRBuWD9FBzuxcF/SXR79yFu7TwfFGBln8ltaK1siA8oVpFA1g2CuKz9DYI4gMMAwriC3tYMBT2t22TjQmIgm3scMEZTDrJCTnSFctCUFcFfS0DYeQU5jMBLJDRkkAeqq7ne6aiY4ue3I9UwWbi1gy84Cprtf6aijcS9ox6rm3FnxLp6fWyGTU7sCuXXTimqvL3Ayu0noCrImui8W/EyKIvjgfrd6Fcsu/FlbdJTqe7SegUN1qfVSDQ1znHoN1YUlo+WfioiIA5lazERKaMyjU/cnmtNw1YqOoeJKkZHRpUOenpxSue3DC3oOqqn3uSjw2FxOOSmq2PEtJR0UJ06QRywsb/vRNTMdEx2w2z6KJWVVfcBqeHOHuoNLa6iV7iWYx+8nmiNcK2Wskc5xOCoccT5Xgb4V5U22djcOhcMdQEqiovNyClmEVPypYCXHCOno31LtELCSewWwt3DhuEwa86WrqHCvAtPTxtc1gce+FnVc44V4DkqHNfUtOOeMLsPDfCMVMxumMDHotXa7GyEDyDZaKlpGsHJSRUC22xsDQAFdRQgNwQlxx4CfYz0WpEQp7fFM05aFmL9wdS10TxLCxzT3C2r3siaS8hZ+83+KJrmNOfZS2T2Ty4RxN8OIaaqL6RxDc7s6K14e4ZhpWNLmDPstfVTmrkLnDDUnLWBebrrXbnnCYIWRNwAAAll+dmpvd59E40Bo3WGga3ulF4aE1JMAFDmn57qKfmn57qprKjYglJqKkAHdVFVNlrnP2A/msqzPFlCyrjeSMjC47dLU2Kpc2PbB5LrXEVyb4LtJxjZcwqZnT3BxdyXp+H04/IixW0iIuIOUdBCY5d+6vH4bS7KtpRqnXZzXMY8g9ksBJbsAjCIPCIgIZSSUCSAkEc0olJQFj1QGe5Q7oIDGe6GXd0WUAdkAy7HNAOd3QyjBQAOf3SvEf3ScosoFeM8dUfjvCbyk6kD7ah/dKFS8DmVHDkNQQSfm3dyjFY71UXIKGR2QSvnXZ5o/nndyoeyLAwgsGXEjqpEdy5bqjdsk68dVDGmZctuacbcvX+aywm26oxP6oNWLkOrkoXId1kxUHulfMHug1YuI/eS23EfvLIioPdH8we6DYNuP8SWLiP3ljRVOHVK+bd3QjZC4D95GLgP3ljRWOHVGK13dBsxcBjmj+fHdY0Vzu6Hz7u6K2Qrx+8jFeP3ljf2g7uj/AGg7ug2Ta/1SxXjH1LFC4uHUpQuR7qDa/Pj95D57P5ljBcj3Shcz3VGzFf6pQr/VYsXM904Ll6qDYfO+qMVw5ZWPFywOaMXP1VVsBXfxIxWjuseLkP3koXId1Br/AJ4d0Xzze6yX7RB6oftD1Qa751vcIfNtPULJC4eqULh/Eqa1gqmofMtWVFw/iR/tD+JDWp+YYeqLx2LMC4eqULh/EoutL4rT1Q8Rp6rNi4fxJXz/AKoa0WtvdJ1DuFQCv9UYuHqhq+JHcJOR0VIK/wDiSvn/AOJMNW6SVVfP+qHz38SLqyPJIIUD5/PVF876oa5Y90RyPEHPsmDBTE5c5pVKZHEk5QL3YzkreMLqIU0TgRgkJ2SWGZzQM59FS00M9Q4NjaT6rU2ezNjxJUuyQrBorDTsgpw4gZI5EKbLK1oJOFWy1zImaY+QVXV10kgIbnBWkW1RcGNBaCFTVlW+YOa0aTyyOqbgie47gkqS2mcPyqarOS07myZIO/VWEBHhta4ElWz6DU3zBRZY6enBL3ZI6IEG3QzDbLSq6qndbcxxYJPboUVXeCwlsGwVU6V9TNqf35JbBOoZat9QKjxCNJyMHdbeHiyWSjEMjAZW/mBxn3CxEc7oYsNaE22tAf8AiNI9QpKNfUXdsdM9z2kOPZY6a51EsrnF505V4fCltzyZOnZZSXZzgDtlKNFZbg6R5Y936q1rqgwwlzBknksTTyvjkBYd1eU1wcAGzjI9UE231dfUEiKJ7nHlhSGTVjJCJmEOzu0qzs1xpWMcAwAnGMKY5sVQS+TA9VZAxTPa+AgNIJG4wkRwRtcSW803U3CkowfNlwWdr+InP1CFEaCufTMBMhA9FR1d8jjBbAFn6ismnJL3kqOoqfU3OecnzYCh6iTlxJKSAnoYS9ygNhcRscBa/gbiGexSyGmeAXkE57rONhLgI4mEuPZWNHZ/C88smHDfCYN5cOI6i7vDpql3/SDsofiaHaid+/dZV7Z435aw47hdH4F4Yju8bTXF5J7Hkt8+fES+GcmqwTsmHTOIO623HHA8NlpDUUspc0b4XPXSY2WbsuUnk8H56onOAzumYw+Q7bBOBoY8BxUUbQ+Q4aNlKgt+rd+6l0jWacgZUguAG5wFBHkhZTwnSMlUL4amomdk6WK8qK2JoI5lQRJLO/ETD+iBuKkgpxl3md6px08so0QtJVxa+G6mtcC9rsFb2wcFMj0l7NR9lNHObZw9VVrsuacH0WxtPBGQMx5d7Lqdp4ZjY0fhgfZaqhs0UYHlCDk9LwOdIywAeyvLbw4KZwBhG3VdPZQRgckr9nsJzgJ9VU1no2NYAWLQRRNaNghDShnIKS1mFcQlrUsBKa1KDVQloS2hANUarr4KVhMjxkIJgAA32UCvutNRsJe8ZCwXFvxEpbex7Wygu6AFcU4o+IFdcHubHIWMPQdVYmuzcU/EKCna9kMgc/oAVx7ifiu53Bz9Ly2M9AVkqaprKqbU/VpJ5laa3W59XGS3GO5WpIjLtpaqul8+rBP3K0VHY6ijhEjo8D+LmrqzCK3VmKoN1dCrLiW/UhpS2Agvxg4T0qVw1U0FPD+JoDuTieao+L7xTl7m0xBx+YLGTV0pkdpcQ30KrqupcQS52VN0xNqLpJp8ztgqU3MfMkyHIUGeeSd5a3IamTCWkkqK3tsvlM2AAuGVbUt9o3aQ4NGO3VcrAdjYEJcZmacteVqd1MdqhuFFUFulzd/VSXW+le1xAZyzsuNUlZVRPBy4rS0fENTpA1O5YT7z+pjVSXF1re50R2adx3C7J8N7r+1LfDMOTgvO5jrrqNFNC+RzuwXob4S2Sot9npYqhuHtaMj1XO3yrqEUY0ggKQxiEbcNCW97ImankBaUprcBQ6+5Q0bDlwyFSXziWOAFkRBPosTWV1RWvLpHENPRc+vkk8LzzaurxxFJUOLICfdUuXPcXSOJPqmWYaEoEv2HJee9W+3aTDuvoOaU1pJy5ExoaN0b5MDZZaOag0JiWdMSTY6qDPUYzupoflqOarqmp2ODuo89TvtndRJ52wjVIfNzx2WVLqJwxhfIeXRZa83fU7TGefQJm63R8rnRxknJUBlNpOuQ5d6rUiWq6qikl1OlO3PCzM0P/FHA6rYVDwQWhVT6Pzk49cr0/HMcOrqDVNLKTB22UK3RkyK2qoZJG6SchKt9Fo3IXRkehEWKeYkjwk1EEtSC1TjEkGJTRC0lJwpxiSDEroiaUWNtlK8NF4aaIuEWFI8NEY9kUygnfDReGUDXdAhO+Gi8MohghJT5jKT4Z6IG90X6J3wyi0FFN790EstKLSUCUY9Uek9keDlA24Jpw2KkEJBCCLpKTgqVoReGpojYKHmHspIj9EPD9FdEcZ3QyU9owhoUQxqO6Gop7QiLEU1rKGspZYi0KoR4hReJ3Si1ILeagV4qIypJYk6VVK8U4KAlPdI0pOg5RDwmKNsqZ0bJTWKCQ2RH4hwm2t90RGAinPEReLjqmHJO6CR4x7oxKe6i5KLJQTmynultkJPNQGuPdPscoJWs90etwP1JgH9ENWyi4fEru6Hiu7pjVzRak0P+M/ugKh46qOXFJLkMShUvShVPULUjD00Tfm3I/nHKEHotaCeK13dD5077qv1jCLWgsfnz3QFed1Wa8otaC0+f9SiNf6qr1DfKSXIKCnsNXK0uLC37ZUuGxOiBfV7NH6LpEEEceQW4PUIqylinYG6MjqMc13+rOsRE4QsAghOn97TspMPiycycLaz0pltTaalhfnGCC3r3yoMFgqImjUw/dMXVF4Hk2GSgKE4yQtF+zXs5tS46GWTGmPbuQl8e0VFPTiOPknzF5SdBP2Wio7IScyfzVuy0xacOblYvci5XLb3VTxU79EZbt2WNdLNUZLnE+i79V2SmmjLMDf0WXreCadznPDAz1Gyz94uOQ+G7PI4T0Awd1tbjYqemJBePdVhp6VpDQ4E9+60ioBBGG7k9kbLc+Y5OwU98cTZPJj7KTE/bAGAgZdTGChcwEEYWYlHmd7rTVtUGwPb1ws8I3TPIY0klIGGHS7Ks6ZjqhpIG/qm32ueJodIMA8irK31LaeIMLcqiE4TQH8zCOh5FCS8VJj0BxHRLutUZZNIzp6ZVU5pygOSV8jsvcSUhGG74O3unGx90DYaSnGRq4s1uM5e9zRpb+8pjaGnjqScahnYdFBU0VBNUH8OMn1OwV5SWB7G65v0U9kjmgeGzYdeQUO43d0Q0k5I/KFZgkQ0uh2I2j7J5zYohqqXj2VDHeJgwiNuklJgpq25S4Y17yeyaLOpu8OPCib5e6v8AhPiSstdXCYJcxE4c13ZM8P8ABQlePnC7X0aBst0z4exx0ge2HLiNtPRWTq+UthfGXE37StvgtLTrbjZczlgETcnmthVcL1tPlrSJHDoAqe4WmrgAdUQOa3v0Usv9JYr6B+poIalSU+X6icYOd0A8QNwwJDfEncMdVFS21DIm4bzTLjPUu0sa7dXlm4YqKtzSWnBXRLDwU1ukujyfZZ0c2tPC1RVOBeHLoFh4MYwN1R5Psuj2rhdsbRlgH2WlpLTHEPpATFZC0cNtjAGgAey1FFaWRgeUK4jp2sGwToargjw07WDYKQ1iWGpQCuIS1qW1qUAlhqoSAlAI3ObG0l7gB6qrrOIKKlzqkbt6oLUBMVNXDTNLpHgYWJvXxDoKVjg2ZmewK5PxZx5cLhrbRZZGfzZ3VkTXVOKfiBR2+N7WyjUOgK49xL8RKiue5kchjYfXdYOomuFbO7Vrc4n6nKXbOGp6qYHQ+WT05BWREh+qvBecknfJKetHC01bL+DEXDq48ghXU1Va8NdGcDnhbKwcUUlDRjlkDkrsGavFomtMJOQccxhKs15jpoNMg6bJHFl+NylcIgAzoAssXeGwmR2FnVxZ3m5Pq5y5myq5qnQ0mV6j/OsLy1m6jVFNJUOBJwFlSaiuMmWw/wAkqCB725kO3qn6ejZE3AGp3sruyWeorphiIkHlsluCgNKScRsJJ9FdW/h6adgPhHfqQuoWDghnlfO3J7YW9tvC8TWACMAeyk8jzzLwpUgHEf8AJV7+H6qFx1Qkj2Xq1nC8BbvG39E1PwfTSA5hafspg8wUtC1u0sZB9QtPYLPQyzNdMxh9F2Gq+H9NITiID2TVH8PY4ZNTAQmUO8L263wMZ4ULB9l0q0GFkYDAAFmrfw/HQxh0rsAJq4XttODFTHdN+vtZNbOvu1PRxuJeMhYa88RTVbyyAnT3VTJJUVhJmecHplJ0CMYaPuuXXyW+I3zxnsjByXSEuce6GrojDXOO36p6OHAyVydDccRcclPgBnug5+BgJh79uainJJRhQpp8Z3SJpsdVXTz891ND01RzVfNMXHDeaQ6QyHDSolfWR0TN3DV3UUqoqI6ZjtTsvWWuFdLWSFsWSOWUmqmmuM7zGSGcsp6NkdLCG/m6lakZtN09KyNoLt3cyVPpbc+vfohaT3ISLZQz3KoDIgdGdyurcK8PMo425bk9crrxzrna5jV8GVsURkiBd6LPz0slO8sqI3MI7henRb4ns06Qqi78GUtdG4SQtdn0XbMc8edPCad8IwwYXQOIvh5U0jnSUB1N/cd/lYaqppqSUx1MTo3j94JKiPoReGE5lESgZLEnw09nKCCOYvREY1I2Q25IIpiSDEpmyIhBCMXokGM9lNIRaQioQiPZDw9uSmaUNIREPwkRj9FN0BEWBFQvD9Enw/RT2xauQSXQkDOEELwkXh+il6EBGghGLZF4SnCJDwkEAx4ReGpxiSHRbIIBak6eamOi5pvw1BGDUYaFI8NDw1RH0DshoCf8NFoUEfQEWhSCxFo2QRyxF4afLERYgjliQWKVoSSwoIvhpLo1K04SdKCIWItClFiItQRdHojEakaEprEEYRIwxS9Awk6UUwGJLmqSAkluUEQtSNCmOYEjRzQxE0JJCmaAkGMboYjNan2NRhmEbdlNB6UNKVlGCgRoRFpTmUP0QM6SkkJ9JwoGcJJB3T6LAQM74Q6J3SENOUDG4yiIOE+W80nSEDBScHCfLQUnSEDW+Ckp3TzRBo7INrR1EUoEsjwQ7fbkrFlzoYBvpyuO0l5nji0Fx2RPulRKcayu/wBmcdl/3ppIWnAblU9bxrFqOkBc4gMr/qcd086MYOSp9qY28HFDa6qbEBt1W2t9dT+ENm5XEKR3gVWpp6rWWu4vLmsyVz77rUjpzKhrySMJ7xNlnLbUF4AJV3C/UMLDR7JdlRbiyQ0z9Bwcc1LAwFjrzxIwXCSlDgGt2Kc83q4W4xHFvzMTnBri4Z3ICqLdTzVDQWNc4nmVpeJLzSRx+DTs8SZw6b4TfDlfDDQa6mMh7jtkf0Xac54Y1f8ACXw+muwD5J2NH7q0F14QorVDodIySTs0Kip+N5bVTO+WBcHbfTyVFeON5p8kh75D2CuQ0mutVKJ3yShjY29FTR1lEyrLYGNwP5qurq6urYyZMhpUGKmdJsAcpv4Ly8VcLmYjy30zsqqF4duifbKgMLidvVSrRa5ZydQI9k9iDWbyJVsa11WwPaXD0GVp6zhljGse57snmFLoKSmoyCGNJCv1qKmalZPPiaIBoGxO2QmoqWkil8pBP8RWinoJb5VxUdvjc6WRwa1rRuFob58EeIbXZRWU8lPUzY1eG0lrsdt+ql8KxsUJeNnta3uhmGOZsUQM87jhrR3VQKW5Q1BhqopYXNOHB7CMK44WfHb+JaeWobrZgg7cipvgTq7hvih8IdHbyyMjIw4ZwszNaK+OoEdXDIyUnkRhenouNrIyjaJHRt0tzpcuV8UX+G83vXRMaWsJwQ3Ypx/2pfCt4Y4CbUMbLWytwdwxq6daOFaO3wtEcTXxu545hc7dda1tREyJ7WkflatZX8VS0NsaY2uLiPMB3XaSRjy2ENLb6GQPfI1rQMhoITUHEcNbXGnpANLdjvsuLXC+11a52qZ7WnplO2O7TUbniNpLndcp9jHcqmpt9HGZKkM1+i5xxlfqesBipcY9uSzdxr6qcEzzO0nplVAqW77Ej+addEhXh6nendWFjfTuucEAIc5zsKgrZp5mlkAIHohw1DJbbxBWzOLzGc4XGtvVXDNhhioI5Zg2NuM7qxnv1otbtDpIgR3K4bdfiVXTUop6TLGgYLishLWzVkpkqZXPcT1KsmmvWds4mt9Xjwnsd7FXsUjJW6oyCF48t90qrdM2WkncxwPLOx+y7X8NuOm3JvgzuDahmA5mf5hT17TXWkYSIpGyxte3kUsKhTQltCS3uVXXW+0dsic6aVuw7oLbZoySAFSXriahtcTnSzNBA6lc0v3xFqrlUPo+H4JKmXllg8o+6rLXwZdL1WCo4mnPh5z4IO33Vk30mpd647ut/qHUnDVK+dxODLyY37qtqPh3xNdIjJW3pzZTv4bG+X2XW7Pa6S20zYaKnYwNGPK3Ct3XSjttO59W+PIHU8lqcfrLy7xFwLfrPE6SWJ0sY5yMdn+XNVlmp5XOa2bU95OAB1XWfiPx9SVsclNQnWTsSOQXLrZdGU1wbLIMgJJizy1TeD6n5P5iXTCCMhrdyolhvEFpllgqD+I088c1LuvHbXUBhi2yMZK5rWVMlVVGUuIB6qXr8WRrOKb7BWuPhABY4Fxe5xdgHomJ6yKDOo6nKtdVzVEwDchvosNRZ1lU2njLhuVUtknrX9Q1WYgD2DxT+qcjgIaGwM59cII9JRsh8zjlynwUs9TKGRMOPZaThnheorHAvjOD1K6pw/wfDTBrnMBf7LO76GI4Z4MfO1rpmYHsumWLhmGma0RxDPfC01ttAYB5cBX9LRtjHJJBV0FqawA6VcQ0zWDYJ8BjBuQPultcw8nN/VawJawJwMHZKA29E0aqBrtLpGgqodEbeyN/hRRl78ABHG5rhlrgR6LB/E7iIWi11DxIBoaTjPNLcFV8RONYqFjooXAyHYALlLuK6p0hfuSTzK51feMZK2ukme4vJP6KJTcUljvO04XP6fbzWpcdXbxjWNHIq8sfFYqHBlR5fdcxtt8pqsAHGVdU74yQWnGeynXw5NjU7dpo5oZow6JwJ7Jx7+a5Xb7vUUDgWvLo+o7LbWu9RV0Q8wyuFmOsWk0mxUGabY4KFRNp6qtqJfVc9WQc8/PdQ8Oldsdu6UGF5LnbMVZebpHTQ6ID5jyATFOXS4x0ULmsI1LNfi3OQueSIwlU0MlfIZajIYOhUieZlPH4cX8lqRnREx0sWhmMqTZbRUXaoHlcIs8+6k8OWCouk4kmaRH2PVddsFjipIWhrAMLpzzrnekThvh6KjiaAwZxzWtpoA0YaEung5Bo2VnTwYG67yYwbp4MDkpjWgDCU1oHJKAWkRZ6KKdpDmhZXiDgykuEbhJC12fRbYBHjZMHnDiT4dVVG58lvJc0fkd/YrBVdPPSSmOpidE8dHBexKijinaQ5o3WQ4j4KpLjE4SQtdn0UyxHmQORhy33Evw4q6Jz5KAl7B+R3P7FYaopZqWUx1ET43jo4JA1lDKPCLCBOUMo9JRYKAik5SsIYQEOqGUelDSgSlxsLiSeXVBkLpTiPcpRinhyJI/0VkDL5nGURxtIaraJjGU2ZQAcKBDUxRu1Sb479FXXm7hrXBp2V9CVM5viHRhJBVXaZnz+Y5wVa6SsKMFDUEk5Gdk052ExDwcEWcpjWlMflFOFmyQY+qcachKHVBH8NFoUnuiPVQRixJ0FSSBhIKoY0IaE8AEBjCCOWeiLQpOAkkBBH0JBjUsAIaQUEIsSdCmFnPZI8PfZBELOwRGNTBHugIlBDEfojEaliJDQqIuhJLFLLEjRsoI2j9URYpPhlARoIhYk6FM8M9kgx7oqJ4aSWHdTPDQ8NEQjGiLFN8P0TT2KKiYQwn9CLQgZxnkgE7oRaUCMeiSQncYzlFp2TAzg80YblOYxzQxzUU1jbqk74TxCTp3KuBspCdLfRILVAg5KSSeSeDclEWbckEfOyLOE8WpOjCDKsgb4hA2CWfDiOW7lPtopnnygqVBZJ5fyk/Zb1lWmrd+XZJ+Zk32Wlp+Fpn/U1To+En43af0U+y4xYnkEgOFcWu5FtQzUr53CbwDiMququH56c6hE7bfOFL5G5tU+WNcOR3WlopMgFYbh2ZxhDHggjuFqaGfScErKrm4VAgt80xONLdlw+51DnyTzvzlxJyV07jC4+DbRC128i5bf5mxQsa0DU47rrxz41LVXTNk8cEgnV3Wyr6yk/YUVO5ga5mPKD+buPdU9mlp5qV7naWvaMDPUqkq5JXSP5u3WvSL2hudPE+QPaMuGx7+hUGWup/FdpjGM7KjMh5HmgB1UF4blGWadIwkR18bMljQq+nbG4+ZTY6dsu0TdRQPuuOtmnAwrmxk6C8jA6KDQWhhkaZjqcThrR1K7PwV8I7jdWxS3D/hKR2CGM3e4ep6LUSuds+buFS2CmjknlOzWMGSt5wv8KbjcZo3XR/y0Z3Mce7vueQXcbBwhY+F6fw6anZ42N9suJ9SppjqXOc7SIYunRa81lU8NcHWThWNklPEwzN5kjLj7laOScXVh8doihbyPcLL3/iK1WSF0lZUMe8dz/ZZ/hvi0cUy1B8TwqKIZG+C4KeiLviGGwwOAl8DT+84DmuAfE2tt1feh8myPMYDfEjAGfXZSviZedV1mpLbM90QJBcTk47Lm872xOL5ZN/dTwsWFRE+aPd/iADYHmq9t9+Sd4LYyC3b2USW+Fgc1jc7YyqN8plmL3cymyelaijvM4r21JJz+q2EnFNLU0ga4BryMELnNBcWU587c46qwZXU9QcAjJ6FXmlaHMMmXMeMdil0lQxkmAWkjoVTTUEzWtc3U3Vywp1DSOjjw/wAxWtRZzVLZc4GD2UIxgkudsnM+GCA0pvDn7lZvlcwWoN2YEWlzuaUGYSpSyNm53U3AnSByR+IxgJJAUGWtBJbCMlJjp5JvNK447Kb+CQ+tL3aYhkqRabnW2a601bGThjhrA6t6hNsZHTMzsMd1X1t4hYC1oD3clM8eR7T4HuIuNqikBy1zA4FWtxu1JQRufNI3b1XmLgH4ozW3hyGj8Jzp4xpHr2VdxDxbdbxJ/wARUFkTjuxpVnodi4w+KNPTMfHQkSv/AITt+qzPC1uqOO63x7vWyR0oO0MZwD7lceutRiEQ07iZD2GVZcL3S92JzX09e6Np30OGQr6THrmy8LW60UrYrbHEDjtuplVS0tDEZaqQZ7Bed6f41V9BHoqaYyvAxrYpNg+IsnEV2YbpKY4c/wCkTjK194mVveM/iBFaYzHTwSb7NOkgH7rjfEHF9ddXuM0zmsP5GnZbr4h3G11Fq/4fljcasrhjnSzvcIwcZ5qTrV+qzmuAyRlNR+LUOyzYDqqylppHVOH6tleMY2D7hFRntLX4eSSmax7xCRHzKemdqflBmlw7rKqWmt8kjy+d3Mq2gp2RjEYyVJp6KaqlDY2Owey6Fwzwa+YMdLHgeoWbRirNZaiunHkJGV0/hzgpoDH1DRnthbKx8NwUjGhkYz7LX0FsAA8oUzfYo7RZGQsDY2AAei1FFb2sG4UyGnZE3JwAFUX3iihtELnPlZkeq1ILwiOnZqeQ0DusjxVx1QWeF58VoI9VyPjj4tSSGSOgfty1dFxe+32tuUj5JpXvJ7lE9u1XL4uSTzO+WGWZ5l2E3bvitUiT8WMkfwuXn+GSoLjkOwVbUIqA7LNXrlWYY9Gz/FpnyeI2yFxHJYC5fEq5xVTpy9oZzDCVz2pu76SMjOXclnaipmr5iXnDSrTHsj4b8WG48NwV9Q8NdK3OM8lwb468ZTXC8S2yCT8Jhy8g8z2VDw5xLWW22ihinPgt+kZ5ZVHehFNK+olfrlecknmVnNgo4YfEO5KtIbW17M4P2Kes1IKv6G4b3V2+j0M0041SY5rWDLyQS0cmuF5ICvLPfS7ySnB9UplprXgmSMZ7hQjw7WOnL2N0eik2DcW65tlGhxye6s6CudQ1QLHHw3Hl2WCgZU0UjRNnIPNaZkokp/qGRuuPyc+XTiun09d81TBwO/VLii1t1ynA7Ki4OqYWwkzuz2Cm3a463FlOdvRebMdpUe/XMshdFBu47DCo7dSPlcZqsnA6FWcVMAPFqOfYqHV1LpH+FTtJJ5AKxLRVdSGjw4R9gr3hXhiaulbPVNOnOQCp3CHCT5XtqKtuSdwCuq2y3R00YAaBhdueNcr0j2a0x0sTQGgYV9BBnAA2SqeAuPLZWcMQaOS7SMkU8AaOSktGAjaEoBVAARgIwEeFQSCUAhhASHujwjwgiVNFFO0hzRushxJwRR3GJwfCx3rjkt1hDA6qWaPNXEfw6rKBzn0JMjB+R3P7FYiemlp5DHURujeNiHDC9iVNFFUNIc0LH8ScD0Vyjd4kDSehxuFnLEeZ9CIs5re8SfD2ut7nvocyxj8h5/qsRNFJBIY543RvHNrhgqaI+hANTiGw3VCNKRI04wOauKWw3Wrg8amt9TJGRkODOajGkkp5XMqo3RvHNrxgha5mpqPbY3xuLzyUitusQaWPA5KuutyZTxlrSAsVV3OSaoODlbtwi2u1ZpkJYVX09NLWyAvzpHJSKGifVFrpBt2WlpaRkDAAN1ytaMUNIKeMbbqUQncItKaiO8bFMObuprmpox/omiEWpTAVJ8NG2LfCaptoISs7J4R7IeHjogZzsUWU74foiLEDJKSU6WeiSWeiBpDKWWItCBOUScDD0RiMoG0OhCd8IotB7KBohEAnCwotJ7IEgI8I9PNAhAkpOUopByqCJRagkkpGpQPAhAY3TQclByKXthFpCLKAKAaQlBoISSd0NSAywYUeRmFI1JDt0EXSi0jCeLUktwiGSAkkbJ0hJI77qqaLUgjmniEWlAzhKDUotRgbKBotSdO6fISSOqBvSkubzToGEMKBkDHRGAlkeiT0RTbmhFpTvqklB0McEFrv9Bw/8quLbwTM/GmLDe7gu1C3Qn8qfipY4x5Wq/Uc0oOA2gDxcn0AwrmHgqlaN4mn3W4bGB0SwwK/U1jP9zqTSfwGfoqm7cCU74XmOPScdF0sMHZE6IOaQRsriPNVxsJoJ3gM0kHsqzLo377Lt/Glia5jp2gDHM+i47eWxRTODHAn0UvP4SqTimliqKMTyPw5g8oBwVy+pZJW1egE6W7ZK6fWBs+A/JA6LO1lHHTTs0RjD3bn+63ObiK2nsjIqRzmyHWex5qjqIaiORzQzP23XTp7ZRQ2sSRSl8h7nl9lTx0sElbE2YbZ3xz+y31xjMusZBZqqdmsNwPVOwWKokDtewHLC69VWJk1EJaDScDm3k77dCs+6IMJa8aXDYg7FPoaxNrsJkrYmVD9LHODSTsvTnBvw3sA4edNO5zMN5jB3wuH1LGAbEZHVS6G+XGKF1PBLVmJ3NjXOwfsnjn+Hs7xjHSWji2Ga2Na+OF2S08nYXW+EvjPb2QxQVbX0hAA3GW/qFw+4U1fVTeI6lnx/wBBUJ9HUR/VDIMd2rPn+Lj1HL8TbLqMralsrsZw1q5zxr8X6qte6ntTPCby1u/sFySnrJ4WuY3OT6IMp3ucXyvwD+qvlMSbncai4SmWqmfLIerjlMUdyqKDUIamSEOG7Wnn9lKo/B16Gs1dMqdUWiOYanYT66rG3e6SeIQzJc7mSdynrbw1VXOmNRI86f3U/d7IWya4zyK0XClRJ8t4VQS1o5OH91nL6Vza60ZoqgxnP3UMc1t+IrDU3Gtlmp3sIaPzbArKMt85mMenzA4xzT0IzGF79Lea0dgt9G2ZklXIC4HOMqokgdSuw7Or1TOo5zk5SDsVLS0dYxoieM9AnKmz/KjLhsuU2q8VVBO18chcAfpJXULHxAy70rWTOxt1O4W51KziDUsiaDjGyrXPYzO4wplcNUkmgnSFQ3SYwQkt591i9KdqK5m7Yhqd6JhlNNUtL5XBrOyq2088FH874oOTs3CEV8e2MtkGQOiZ+i7hhihbk4HqVFrrxDAC2PDnKimrKmsdgEtanKegwNcpyr/4CmqaqufgEhp6BO09vDRmQ5PZTKZgIIiA26qdRWyad2ZDhncpII1JMYjohb/JW9PBPNkzEsB6lSI2UtEQ2BnjS9T2Vi24QhmmWIj7K+hWxRsjd+A0vf8AvFWNNb5ZiHTZ9lGZeKRtVpDAxg6lC5cURsb4dE3JxzUmf0WtRTUNJFqqC3boqWluVu/a1MJW4pRINZA5D/CpJHVVwfqme7B6LWcNcE1NczxQ0RxfvO6p/wDXiHps+Ibna66zRsj8Jzmt2LQOXuuaQzxRTuY0nGVsq/ga4R0x8GXUzoCMLGXCwV1tmzURvaXcjzCk5vJun56pjdwcFQ3VT5n4byzzTLKWV78yZWl4esZrJGhrck9EtVUx08kuA0EkrXcNcLTVWCYzv1IW84b4EjBa6cDPZdEtlkipmBkUY29FjLRkeHeD4KUNdIwF3stvb7WGgBrMBW1JbgNyFMmlp6GIvme1oC1IG6WiawbhIuN1o7ZC500jRgd1gOM/idSW5r4aNwkl5ANK4lxPxjXXR731U5ZGeTGlWJrqXGnxUY3xIbe7WRtkHYLiPEvFdVXzOM8znkn6c7BZ+tuUkuoRHDUzY7ZW3qubBQwvmlcd8ch7puGHYWSVUmp5JJOwXU/h78Lam9Sx1FyidFTcww83e/ZbT4dfC2ltMUddfHtdPjPm5N9lqOLeOrfw/RugtxY6UDADeZU9mqviXg/hexWd5mpqcva3mQMrzpea+BtVNHQsxFqOkDsp3F3F104jrZGzvc2PONAOypYKdsWS/dys/wBCHJE6QF8qiPcGZDRgKwq5mZILgAFTvc6eoEUALs9lQ7D49Q/RTtcfVaa28OSmIS1gJHPBU7h6GntdMH1LQ6Xo1WouFZI8ymH8PoPRJBCpaV2RFTxOYwdcK8oaEQjcZcoM/EEkMZxSkH2Ve7izRC7b8QqzIjTVlZT0UJdKW57LLz3188rhTt8qz9TWVFfKXSOOk9FZ22ANbuFdt9GYendLPnUPsokRqxU4H0K2ACcY5oOSFjrnWpWi4fje6Nu5yei00cDKeMySnzdAs3YrvT0zfO0ZU19xFyqWxRv0hxwvJeLrtOphyonlrZxDTtLidtlueDuEPDLZqluqQ77p7g+022kc3XK2SY7rpVNBGxg8MbLpx8f6xbpmio2U7AGtVpTwF3MJVNTknJVhGwNC6siiiDQngEGhLAVQQCUEAjAVACNAIwiAjCq7nfKO3HFRIAfUpFFxBb6v/Tmb+qC3wgkRzRyDySNP3TnsgJDCNGgJBGhhBGqaKKoaQ9o3WM4m4DornG7XC0noQNwt4lDlupmjzFxP8PbhbHPfRh00Q30n6h/lXHw24ANZMyuvDAGtOWwnp6n1Xc7tFTugd4gb7d1SUUbgS1jCxvQAK88fqWrKmjpqfTBDEDjbYLNfE7hCiutmkkDWx1LWkskA3BV3PUw2tplmeC/tlcj+JHxT8Qy0FpxNUY0ucD5We/qtdXIjz5dmzvrpaZw87HFjsdCCpVusIGHvG/qrikoCZXzznVK8lznHqSrJrAGgBc7W4jU1O2FuAE7jsndKBb3WQzhFhOkItKBvSi0p7CGlAyG5TjWJeEYwEBCNDw04DsURcOyoaMaSWBOlw3SNQwgaLEkxp7UAk5CmBrQi8P0T4IwjACBgMSgzunQAj2QNhgwkuZzT+wRHCKjFiQY9lKwklqgj6EgsUrSo1ZK2CFziRnogjzyMi+o7qMKprnYaNXsqaWaSoLyx2cnHqnvFbR0WM5eeQK3Ii2ZpkzpO45hAxb+yzNDdnC4x55OOCtkGAgHupfCxB8MoxEcKb4aHh9lBDDCj0FS/C9EfhKCCWnCQWlTnRJHhIqJhJOVLMSbdHhDEfKSSnS1Ic3OUDJP6pOU4WogxEwjmizzToYiLElU2SN0knAyllu6IsTQjIQyMIyxDShhOR1Q2wlaUNB3Qw2cJON04WICPumhrokOCfLOybc0oY9otSxySQEpoW0G0JYao1XW01FGX1UzI2gdSsDxH8VrbQ64raDVTDbLeQ+6sHR3uZE0ulcGt7lZPiLj6z2ZrmmZssw/I3criV/46vF5c4SVDoYj+SM4/mswXF7iSSSeZVkZbji34iV17a6GFvgwfzKxLpXOJLnZJ55TeMc03JOxg5hangP5PVNziKWJzJcHI6qA+sc9xbEC4+gTsNvnmAdO7QD0yruilbcRap3xzOL48eUHdU12vLqmVr4iWlp2wtpc7LST0mg419ysBebc2hl0sk1NKzZYStVwxxzU0f4NSdbXbZJwVczk1Z+YieDr3PouWxODXAnkrygvEsDHRaiWEbFJ1hjptntMc8QlJa733WootFI0NjhyfTAXIuGuKp6Z7oJXnTnYq+k4tLTs9bnUTG/qHvmJ8mn7qunpgc5WGn4vkIIa5yjN4tlDt3n7p9oZWnrrcI8vwCqKSBr5TrOw6BNz8TmaLSXc1JtxbNEXDzOV8VDsWmNuImAe6dL5CMucnI4D12TrYBq3RVVVOdyIVbJUyU2osLmd/VaY07QScBQK2hbKwjHNZVnZuJ5IoHwwhrtXXqFQNr5I3ved3HfmrW8WKaldrbE7B6YVjQ/Dm/wBdbTWR0ulhGWNP1O/wsW/qsjJM6dxe85JVvwxw9UX+rdDA5sbWjLnuUwcLz21khuzPDmaMiIHO3rhRLRfprNXulp9h2SIbvVo/ZlTNTh5fNFsRhQKG4zUrw5jiMdO6nVN5FRPUTSjMs3MnoqSRw1nTyUVsWcSwtpiXgulIWdud1lrfKfKzKgwgO1Z5AJtBYwzvNvMZeS1p2GUzHI38wQpRmCQIUtNLUO0xMLkF/T0p+WbJGxu/IZ3T1PbaqpdpcxzW+vJSobVPTULJp5wA0Z0nkfRIfxLlgp4o3MHX0W/SLGCipqBvmIkl7KZFTVFWPN+HH2Cg0N2tkYBkIL+pJVpJxJSMpXGmY6TT23AQTKOjhpW5IGw3LlVXq70ULXRwtEkv9FM4Rt9RxpcHwzVLqalacHScErfS/BulZBmkk8R3PUd1Pt+GOFmKWsl1kEZV3aLBUVDh4EEkmTu4DIC1knDTLfc/l5XNLWHcdCugWO524SQ0McLI2tAyW7ZWueP1m9KLh/g+300Ebq8F1Q/k2QYC20lqfQ08bKGMZPVnIKVW2+lrJI5Y5w2KPcM7lOBtU1jjE0Nib/F0XXMY1C/aT6eaNlboeeXLklVNBR1khqasM8PG2obLPXm/0cMup/8ArRn6mHIWTu/FlTcSY2OLY/0ymklS+Mzag4x0UcevlqaqS13k2l+toyemFU1U/hkuJy8p60W6S5GR2poA6vOwXK+XSeHUfhjxJV3q+Ogmd5Q3UBld4hjiiiD3uaABucryJw9WVdgqZamkY4SYLTjcDdXVZ8SrzUQGnMwYSMEhZxdd14s4+t1kic1srXSjkBuVxDinj65XuR7Y5HQ057HcrHVNXJUSmSeRz3nmXHKortXzMyyJpA7hJJPae0y5XRkBPm1yHmSVmKytlqXEl2yQ1j5pN8ucVdW+z5Gub9E3V9Lv4fcBXPih7NET4qTO8pHP2XpThbhGycDWsOeyNr2jJLuZPqVzjhH4mUfDloEE0JjdG3AIGxWD47+JddxFLI2GR0dN2B5rI13xg+J7qxxobNMWAHBezoFyBlzqppJHSzPe5w3LjlVHjmSRxccnunoHfib9lqBDK98VS/Vvk81YvfVTU/iU8LnDHRUNX/8AUOAG5WqstJcPkGyh7AwDIa7spBXW6y1FZKXVOWDqCr6CkpqDyU0YfMeZTFXxG2KMQSwljxsdv6FO2/iK2QsBe0a+pKvgW9vtzpHiWfc9AtC4RU9Pql0tYAqKPiugdCflojI8D8o5KpjuRvlb4dS90VOObQcZWvEZ80XEV7imc6GkAPTIVFS0zpXZIyV0uitXD74BGY28uZ5/qljhKjeS6gqA3+F26fW1dYukt+BlwVjHDobsrOvtk1veWyhpHQg81FDgeSqIx25pOVIczOdkjw8nACKaBPRPU8j43amOIIQMJb9QU+2QNJdUTbRM5Z6lSka/gD5iS90/jSOL3AnTnkF6NtdP/wAOzV2Xm34TVguXGM3h7xwswT6kr1DSN007B6LlPNrUOxsAGycaETQlgLQMI0AjQBGEEYCIACDjhpPYIIHZpOEHCPjF806sjeIZvAaSXOby+6wNNcKikHiQVL2Ab7O2XSvjHxDUUkT6cUT3CQFokx5W+64VHVvMRhlJCc2GOh2rj+8RyaWP8RgWrofilWwY+ZgeQOZByuPWqsmpH+HFTvnz+63JVpPfIDA4OjdHKObXAghWYjtdu+MFrkeI6mQRv7PGFq7fx5aKwAsnjOezl5Cr6+mqslzAHd1Fie5hzTzuYfQqK9w096oZxlk7f1U6OeKQeSRp9ivGVor77G3VT10zQOWXZWgoOPuIbdM1lRM17R32QesSQGlxOAOqy994zoLTKGzSMAJxuVyal+KFdNSmPS1zyOjlibxUVdwrJKireXyHk3o0dgqj05artab6xskcjHOG/wBSj8W8S22wW+SSWWNmkfVnkvKA4kuVinL6OR8WdsdCrK209847r4318j3QNP8A5R9u6l6wyry78TXjjq4vo7QZKe35w+bk5w/stBT/AA3ooLaA1p8XH1HmStbw5w7S2SiayNgGB9yrGSYvdpasyf2r6cVuvDdbQPdpYZIx1AVPjBw4EEdCvRtPbY525laDn0VNfuAqO4tL2xhsnRzdiplVwwBDAIWnv/Blytb3OjYZ4R1A3H2WYOWuLXAhw5g7FQJ0pOhOIkCNKMN2KWEeEDBG6QSn3NTMgwqE6sJJdzSeiTuiDLj0SNZQ3wk4QK1FGHZd6lJAOE3UF0bNbQSRywqJvgvDc5TRkDTglRheGviwfK7kQVDkqvxG5PmccBa+sFw3UW50nHfCS5xHMEK6oaIuoA2ZnmIyCCodfa5Y6d76eY62jIY7qn0pquL9uaHiLNS8SSU0r46qnIcDjknqTiKmqJAzw/N7YWcVfiT1StarhUaj5Rsn2Ss21uLUwOz1DYWF73AALN11Z8+5zIZMEeql32J8pa1kmWH7KBDRtgGoD7qyYB8o+KkMjiXEcwVQ1tYXkgnPZWNwuDojhpyOSoooXVtZoYNicn0QSbHSSVVwY/B0tPNdHZ5WgdhhVdooGUcDQB5sKwDlkPApQOyjhxRh6in8ogQQmTIi8RQPOKTlNGT1ReJ7Kh0pl47YRmT1SHOyoGXBN6VIIzyRaEUxpQ0J8NR6VBG0oi3dPlvNJLf0QMaOaAang1DCBgs2SdKfIykEDsgRpQDErujRSdCIMCdCLCBlzOabLOakEYSSFB6wvPEFrs8Tn11VG0j8ud1zPiP4tvdrislPgcvEf/hckNwmr5DJVSvkmzuXnJyhhd5HPU67X65XeYur6uSTP5M4b+ighmUgljTkkApiauZEDgqiS5unJKZkqWxg5wojX1NWcRMOO5SJ/k6GQNuMuqQ8mAqhRqZah5bCwuPpyUultUknnq3f+UKzY+mp4A4aY2EZyUIpXVsD5KLzAcieq1OU0xiKlaRHG1vqVT3O/wBNSnzSeI8dAqfiNt48R/iF3h/wrMeCdeJiQfVZvSyNTV3Krq6H5o/hwk4aFn67U+LU4kn1WltUBdY5o6hpbGweXVzKqjRSStHkOnuQs9EUUULnbnZSBFgj0Vm6n8Lm1Rn4GdlnVRIWE1eG55q1+W23P6qFG7Q7IG/dKdUSdyroleA0DplR5afmQo7p5M5SRPIO6aAQ9r89lquF63S/RIefdZiOUyOAcOanwONPM1wWubiWOkv04a4dkWcglQrRVNqaUb7gd1LIxsujI9yMKObnSUNc1lTgnH6KTqGT2CwN3n+Yr535z5sBS3FdFuN4trbXNWSlrmN5DqT2UCwfFqsprZVUfy7f/wCk4HGB2K5q576iYU+o+E3cjPNavhmlpZw6M07THydtn+S59dasmKq48RyzvlIBknn3kPPHos3O10spxGW+hC6FLw/Q0NQ8QkNLvMMnOPRRbrLTfIPErWNli2B7qK5+Y3AkYKLSexV0aqmyfIEYqqbGPDagpBkAjHNKZG5xwArZ89MRswJVI+OSdrY2AklUXHDdmhNJI+qbku5Aq5o6SClbiNgGPRCmzHAAdsJmerZHnJwtTESKv8ZoY934Y3ITFTTUBj1tA1NHNvMKvnq5JhpiG3cpunpiMucSXFXRTSUpnqZXdM7bK/4fpWspZIpWtP3wcJs0pLvLnJ7LsFi4apLJwP8AtG8xM+YmbqayQb+iTlNxzK3z1Fsna+gmMW+/TK1sXxIvFJSvga3UcY15VFUVkNRM4CMNZnYEbJMlNH4DnRnwyRzzkLP03zF0/LdXiE1tVMC95ycndR7Be23C8+Z+hreTs9VhrlLPLUOhMpe0HAxsFe2LhutMHzDZQxx5ebCst9JkdXr5K2niE1PU5YPyk81CfxpcRTPh8oBGOaxb6i+Useh58aMdjumG3lpOmqjLHeowt/ZMWMr3zyue87uO6jzztgyG80/SVNHPSzSCQ5GQ0A9Vib3dSHPiiO/UrNqyL6GUVsr2NfkjmnLbxD+zJpIZSQ3kfVY2z3J9DU+IckHmtCai33QZlAbIevIqSq3reLrM21lhDTIRucrJ2sniLiSKkt4wHHLndAO6zFyt7IpNNK5z++VY2yep4c8Gppn6aiQb+yW2+0zHY6/4aeRj6OocJANwdwSsTfbM62VYp6wxmU8g3mpto+LNXSwkVbNWBsfVZCO81F+4gqa6pcTnk3PIK28/w8pUb6KCoLXjzd+yerrrTUlPlj9bjyCrZ4Bc6vwWvbFk47nKlN4OdDI35uocYnbNeOXtv1U8qzNbWz18vmJDSdgrmitYkoyM4cRzVhU8Ow27TK8l0bvpeU3JUMjjDYngKTxfIz7rVPBU6XEaSfqWgtNmp5pmh7yABucqDNOHuy+TJUigr26/Dj5qyww7UWimp69zmEuA7qY6d8TA1jsM/dSXHmeZTEpJ67qSixhoKS4lr5sAjf1CzV/oqdtw0s04H5mjGfdWUQe3driPZQqykMry8k6loP8ADLGxSPi0tdqO3RLuVqnbO51M8NJ3wVDpop4nDw3YwFf2GrMUjjVZfnrzTIKNlfdaGPRJC5zf3m7haXhmumqIC/W5kgGTqOMKzHyFSfK1rXd27Kh4hglomukp6huD+XGCmZ5T2m1F4fUXSKlmk1DPmPottUWGllt7JaeVokA6FclslqqLhUGXxMO75wtSLffKRv8Aw9T4jP3S5Xm/6LE2SLwXlj+YTROHZA5KIbvW0pLbjSOI6uAyEn9sW+eVjGu8NznYPomonxB9ZM2Ju2eZ7Duq/jO9Mt9I2ipSNZGkenqrm6TUtntBqoX5dI3J35DouWtdNdbkZZskuPLsFjq/xqO6/wCzfSA1NTNjJ8oyeq9TwjEbR6LhnwAsLqS2CZ7dJmdrA9Oi7u1uAFjkGEoBEAlBaBgIwgjCAkaCCA0ESGcc0FRf7FS3Wlkjmia7UMEEZyvMfxD4MlsNycI2n5WQ+R37p7Fes2vHdZ/jKyUN1tkzKwM0FuDlQeTeGLy6w3eOSdniRg4cPRehrVdeEL3ahU1LKUv0762gH7rzxfbWKe91NKyTxoon6WvHUeqep4BE3SNWPdbnOpuLX4iW6xVd2LrDCyJgPmMf0lZmlszYZNbnFwHRXAYByGU1I8g6GDJPVX6yJpf7RbTMEcbBqHboqydk1ZUapDhvorRlEzGoEa+xVdWNkhJLCQ4dEqxIJZSR6g/BCFPxJryxwBe3ksncqype7wwCXHkAmKaKaCbMwLcrF6WRpmTSXW4ZkjwwFdEsHEUliZDBDAHNJDcALltBdooXEOD8A7uHRbLh4Nr6yldDVNfGHjUHHkrngdwgrJK2mY8jBcOSsbfRZIc4IrNQgUsXUYWgp4Awclkg6eENanwAOSA22CdijzuUUzJQRVDSJGg5WO4o+HlDcmue2MMk6PbsVvxsMJQUzR5j4h4Iuloc90bHVEI6tHmH2WVJLXEOBBHMHbC9f1NFBUsIkYDn0WD4r+HFDcw6RkYjl6PZsVMsHn3XzSmuytBxHwRdbM5zmxmogH5mjcD1CzDHEEg7EcweizolAZCQ+PKON2eac5hURDHhIMalEIgxXTEXwkbYu6mNYlCNNTETwVAu/iRU5MbSfQK8DEl8TXAhwBCarAxPMmSRpf1Cc1+Zrs5LTnC0dzs7JWl8I0yDss5LE9jy2UFrwtSi4bxPVw6Q0amNHIqHeeMXPdFK1rmPYdx0KgF4Y0mQbAc0xSSQ10j2+FqxtsOa1t9CwbxBb70/S+k1PxudKZjpKVkuuKN0ZJ7JdDQ0kEjniJ0Lz2Cs4qbfVHM12ejkm/1CI6cFuWytz67J2mgdLL4Li3WfpJOyaqnFgw+EY7tVRU1To4xPQTnxY3aTE47p6EMy1M13c05Y2F5aW+o6LRUMtDUvIleWPaN252yswypcC+WUFr3nLgqy51Wl5kidh2MbFZlVp+NKampKalZTuY51RuMKFZoY7eAZYy4uI3Waoaqaorad00hf4ezdZ2C3La+nkiJmpg14GA4J7Fs0amAjkUYYU7Rs1U0ZI5hP+EsiEWItJU4xeibdFsgiEbJOk7qUYj0ReDzUVF0lIwRlTfCPRIMR7IIm+6NoKe8M9kAxATGp3QiaMJxRTejdEWpwhA8lAxp5pJYniEnHQoGSxJLcJ4hJIQM6UWhO4QwimNCGhPYRoI4YUelPEeiBGyBgt5oixPFFgb5UGadcqOlq2MpZHyZPne48yrJ9xaWeU81gC/qFrODHePK7xoy7QNnEbLvPNc09sdXVZdjw4/3nbKXbqWnNQWOa+SRu+o8ku+11LFRSRzTiMkbBp3WQh4nnjojC3d7T5X9cLXiHtvaispqOPMr2sA6LnXFFeytu3jU+4aAAoT5Ky4SHUXuJ78lLpLRUlznMAJYdwVLdJMRqmurqwhsj3n+ELScPX99FGyB4c1o5DCnWMwRRPdW07WHGN90xW1EA8SWkpg4s3J6BWePJ7ad1zpn0RlqWYGNgebioMHCgr3Csfhjju2MbYWFirayuuMTWh0mHZDGjZamXieopKWRoBbM0acdil6lJMSI7PLJc3xV1W1tPEM6R19FIuDooyGRR4i5Bx6rMUwqJ52zSSOfI45cul322tZwh8xK3S5oGFz1WWqLG+aESxty1wzyVRPZJgcBhJXauB7JJXcLU08kedQyMqwfwzFry6E5HomSjgYsEzecZKej4dldyjK7sOFo37iI/onYuGAPpjP6J9RwpvC0rvyfySJeF5Wg+T+S9BR8LuP8Ayx90t3CJI3jb+ifWDzNV2d9O7JYRjqkOg1xZHMLvt+4I1QPPg/oub1/DRpS8NBCuWDK2SrdTTAOPlytrG5s0Qcw7rD1tK6CV2BjBVzw7Xlvkedh3XTm/xmxbVJMUEryDsFjp4I5C5zufMkb4/utPf7rTmBsERDpHHzDmstdJ42UMrgSHYx3x/cJSF8P2+nlqWeI7eXO5Ktq9/wCxZNFIdn/V7rIW+KsqZIzTPLQw5Dieqs71NXRxA1JBaNsrOasM3e8SOqBh+4CqKqsfUNdlxOyac91S7Zm6cfQVDW6vCOk9lnFQso2gk4AJJ5AKfHaap8WsMwOx5qyslEaCsgrKqPWI350KiytHw04oudrfcILcRSswSXyNa4j0aTkoqagitDnCcETt2dq2wuz0HxJtcPCUkRBMudo/DI/psuMXqofdrnNVPBY158rewUlgKS4ySuIi39U22B8jy6VxKl0VNExuX/opMdMXuOlrv/KMreIZijAGAMBSImgfUlMh0H8TPsUokHkMBBruCrDRXAPqKio8MxDVyDt/UFDj7iOW4yx0TJS6mpxgdMrIiZ0GpwkLARgkHCoL1XyBmIw4NcfqPVLUxYVV1hpAcEOd2CoKu8VNS8hryxvYKA52oEnLig1vXCzrSbSsJdqz5lcC71sUQYyQAAdlX0Y8iekaCOYQPs4jq43fi4eFeWuupbsBHIxoedt1jpoyXYAyT2V3YqI0eaiZxB6AdPstSphy52/9m1kro5B4ZbnA6LGTHVM8k5yV0C6RipoZp388LAxsLnn3WaqyslmdcCXuOmJvP1VlV0VLTANiI25+qf4djqfD8KFhc55w0Ac1Lu3Cl5gb4stHL4bt8t3wrsxDFM2mqGtAIaQod+ZK6duPM0DAwojqappn7tcrcklrfFBO3VWXRmZg8tLcHV2VxwvTP8CrlMhjLRpAxzKauRjbMwN8u26XYqxsVW5z/MzIw3up/RaWykfBO2qrI3NpxzdjmpvEvFIqaNtNBtGzYeyXxXem1VDGyNojYByAWFqp9bdLf1S+PEFzVcQ1FXbGUsri4R7Z74VO6pcSdymWYERHVKZC97chpOdgooCV73YG5K0djonxN8WT6io1soGQYfL5pD07K6Y8uGlmw7pIgOfhxA3KWxnU7p+kozI7YgdyUJWaHloOcLUgSGhFoBS4gCQHHAUuXwRGGxDfqVRXNrqOJjo5GEyHYKXStaYw7GMqP8jG+XWRum7pVCmiEcZy47YCevYFyuUNK0hhzJ6dFTRVE1a/8R7iOgJUOqjldIS9h3VjZ4uqxbpFjSvmpmfhOLUmW+18B8suQn3FgBBcFX1UWvOkgoqwouLXSP8ACrIwc7KyqbPT3eASwaWuJGMYBBWOp7dJUVbWMaTuukWfh+ajtr55JHAtbkD1Wpf1MZfjYmOjhpA7U7UB9gpfAlhdUVUOWasuG3dVEcMtyvjxIS4MdgZ6L0H8LeFRFFHUyswSPKCOQXO0dL4Jh+QoI2aQMABbCGoD1RQRiNgY0K0ooiBkqxVi12UsFNNS2qocB5owUkckYKA8oZScoIFAqDXVBjzhTAshx3xPQWG3ySyStdMBs0bknsPVBKunENNaqZ09XI1rQM7nC4vxz8Q6q+SOp7VK6Km5OkGxI9Flb/f67iOoc6rLmwZy2IH+qYpo2sGA3l3Wuef1m1HihkGcnJPVOkuAOANuZUglpafytHMqK13zDiwNIhG3uuiE+I+oYWQbdz3TkbTE3S7pzT0cIhb+HySZZ2uYWu/VQNyOAGph2VfVSiRpDufdCeXRkA7KsqajORndZtahNunihujRO1rsnAJWjunD0FZRy1AnfCWt1DbZyw1RrkmaI/rB2U6a9XF4jtziCX4aHZ5LHhW3+EfCNPfqetbXN8RoeWZVjxx8PDwfaXXW11UzXRnU5jnZGF0j4PcOssdhhbI4PkeNbnDqSof+0DUhvDTKWM+aaRkYHu5Z9TRsvhvUSVnC9JNPu8sBJ+y1XoFnuAqd1Pw5Sx4xhgH8lqYoupVnpSYo+pT4GBsjAxyRgICASgEAEeFQaHRAIII1VRQVLC2RgOfRYDiz4aUNzDpYY/Dm6PZsf+66QjUslHlq/wDBd2sr3ExOngH52Dce4Wd1YGOXovX1VQwVTC2VgOfRc+4r+GlFcA+Wnb4U37zNv17rF5sHAclKDsLQ8QcH3SyvcZIXTQj87B/ULPac5UUtrkoPCaxsiOUD/iBF4gTG6AGUDweCq+7U1PLEXPIa7oVKke2Jhc84CzF1uTtMglxjPlA6q8zUQpj4bHMI8R52aBuU/a6OnFMXPMkM4dywo9vjZJ/xD6lzJc/SRgK8b40mkjw5ABjZdZEGyN5GqOVkg7FIqMhnnpvu1HLoY0iWne092qDU1DvAkdRVH4kWDoeVdEWokd4b5qOpAkhdvG9Zq51jZZn1MsRgnAHlCcuVcK+fxHROp6gDcN5FUN4lkdPpecgAb91jdVNiuRqg8EeYb+6hyh079LfqPJR6LUzLx1GPdXlnof8A7mo8rBuMoGbFaZK+WWNj/DkYNs91e22zXaOsbHUEGLqearJaoRVXi0ji1xPMLplDK59LE6T6i0ElZtIfhj0RNb2GEsNCSH4R+Is6pWNkRYCibIlawU0N6EZYlhwQ1DCLhrSkFnoniRuhsmpiMY0Xh+ikHCSQMJoiPGCcJrVzT0+wKiOO6Kc1o9YTBOEWr1UDxfgpJemS5J1Hogf1AoakxqR6kDiGUjUhlFg0YI7JsuRakDwKBKZ14Q8TZQKKLmmy9JL0GIbS0NB562USPH5G7pNTxFNoMVE1sEXpzVdS0surxpoXvgH1H0V/Q2Sm8EVDC6cO3Y0f0K7xhQQUtZcpfIHyOJ3c7ktDR8KaGtdUSZI3I5BXP7Qp7dDCySJrJXnGhnRV1VXzVEjcu0t1FukK+IiY35ChDQME4wMKIy5Oa90cDA0EkkqBsGNPZ6eoqOd9VIImZYTkkqbVOTSudkuJJURktRO2Snp2EtecudjYD3WhitcTPNVPB9EmrqoYIHx07A3bGwU0SuHYIbfb8QxtdWS83EZwEmbg6pqY5p2Py9++ChY5NOknfbutO3iKKkgcDjUByWdVU8J8PyR1bH3R7WQREEjvhaq6STcW18NntLD8s1w8R45NCz0ENxvUjZpQ+Cjc7Go7ZHou58GWygttphbQMaMjzP7nug0FktcVutVPRxNGiJgapfycZ/IEdNK1zfKc4UphVwR2UUYBGkJbaRg/KFKaljdWIjCADk0I/CGOQUkBHpVRAlpWSsLXNG65hxpw+YpnvY3yOXXdKgXi3MraVzSAThUeUeJrUWOc5rVkK4vo6fLDguXe+LOH3MMgLNt+i5NfLI6pcIY3BoB3d2TDWIsr3yXF0gJc8DbKvquwVNdFG4gRsG7s8yrqz2SktYJiGuU83uVs0k81ZP01lqe3x07mQiVrJTyBKk1dvMhDJQS3qpdyoI45/wBpRxGSoi+luVNo66CupvFGGn8zeyehX0fD1LFKwNbqD25w0dfT/COspDTHBAczkDj+vZGeIY7ZXhsoBgdtnp/2WmbVW650+sYcCMDHP/utc3WbGPGOQGygXQ6fD0t1tDgS0dR2VrWw+HUvbHkRZw090untL6rcvDGHmTzSzSeHS+GOLeEYbLcKea2wmqELXAvgafLj+oPVciu9ay43KapiYGMcdgBgLU0HDFsbjx3F+eeVo6O0cOQMANOHf+VYnx+da+zlsYxlWNBcZKUuIaC4jGey6TLQcNOZhtI0H/pVDdbBbXDNI0tJ7Lf1qax+uSolO2XHoFb0dpLmh05+ysKahhombAZ7pUsx0nTttlJM9pqHNZ6WR7S7mOir75YmVdPpAAA5YVvCwuLXbnKcDM6w7fsmQ1ziOzT002l7Q9nqpT7G6RmqMafRbGekLw7TvhQJp20UZLxyWcjWspUW6vgaB4OAeRSaWz1cuC+TDOuFdVdTV3YEtIih5Dbcp6JrmUzYic6VnIpqioKakbmV7XPb+YncI4pm1lWdGSxu2/VFLTmQYyVLs9B4bHuA2QO1TAbfKwDmFmLZZ31FU2KOMve44a0LUQRVVfWilo4HPJOOS7PwDwHDZqf5yuaH1ThnJHJSCs+HnBUFqhbWXAAzYzg8gt86np7kNBhHhjbOFFNNNV1ZDssgbyHdXcDWQRhjByQc+4r+HNLUxvmpgGPxnYbLg9e11Jc6ilaQ7wnEFesrnVMhoZy9wzoOB1K86U/BNzvN/rKklsMMkhIJ3OFNwk1zipcKq4EEBrBttsr2jZbYQ1jGZl6ldBi+FVM6V0Xz5fUDdwaBgLN8S8JT8MwzPmhfMPyyRjl7hXnuF4qlr6OG4kRskAPJE3gyakHivBlYRkDG4/ym7ZTvmLahrXsdz35FbWi4pBhipJ2sD2bf/HZdJl9ssjTcP0TtTpGknoMkBTm0MUbGsaxuB6LZyWaK6RePby0T4yWcs/ZZyeCSnmdFPGWPacEFLzhqHbLFPdrk2mpgxuepVhfOHprG4Mnew9tJ5pNLLPBMJKVzmPHUJyWguV1mD5S6Q9NRVkNVcZwNjjKXAY2SZkGodlfR8H1zmBxOD1QfwlVHIjOX9AQrlTYzkul8xcwBrT0ClUFJLV1DYaZjpJHbABXFNwXeX1sVOafSZN9XMAd113hLhOlsVOMsD6kjzPI3JXH5Pk+nj+t88/Zjbb8NJJqUOrKhzHuHJm2FCuPwpdGNdHOXuG/4m67QyMO9kfhtZyK8/wDk6dfrHmi78IXSmf8Aj0pLW7amDKp322WJhaxpjd7L1VJFFICJGNI9lS3XhO03FjjJCwO7gYK3z8v6zePx5bfZrk+Q6JWO+5CXRW24GrbBI0HuQcrpHFvD0Nor2Nop3P1H6XHOE7aqBkQa541yu9N11llmxjMFw3YYqWMSTNBkxlSbzcGucKKNwAdzwpXEEFyt9tMzadzQRssRYLdc7le43hjyS7bbYKXobHgbg8VF41luY8hzz/ZehLVRMo6VrGgDAVPwXYm26gj1DL8ZJ7laiNhe7CT9DlLFrflW0bdIwmaeLQ0bKS0LQMJYRAJQCIMIIBABASBIa0lxAaNySm6qohpIHS1EjWRtGSScLh3xC+KM9TUS2+wnETTpfMNx9u6RNav4gfEqjtLJaK3nxqwjGGnl79lwmtqay6VbqmvqDLI45wTs30ATLWapHSS6nyPOXPduSU8S1g5b9F0nOe2d0pkegZcRgISuAaHSHSzkO5TU0wjwZBqefpYEtkPjFskx/E/d6BUDwJnyh0hxGN2gKSHMwQRj1CQ5z48EpmqkY9p0nS7snoHNKWZwchQJp8nJ2KalqMAjqFXVM2oHDt1lZC6qoxnsq2pc5zm6AST2Sg51SwtZu/klvqo7dAI5cGodywo0RUSwUWhv1VD9h7rT3zg19u4bivLnOE5w7dY7hy11d84np2wxOlk1ghuNg0Hclehfi7F8vwJTUrmaXPcyPl3IC52ib8PK2sdw/SGXUSWhUHxOnfc+LrDb3ZLTOHkf9IXTODbVDFY6QNAIDRyXN7zH838YaGNu4gic/wBsnCzfSu62SnEFugbjk0KxGFDpXOETG9gApbc4WwoJQSAlBIDCNEEFUBBGiRQQ6IIIAEYKLkiQMVdDT1TC2VgOfRc94q+GlFX65qVvgzH8zOvuOq6UhnZSyUeXL/wnc7K53jwOkiH/ADGDP6hUAbkbL1zV0UFUwtlYDn0XPeKvhlR12uaiHgTHqwbH3CxebBwgM3Si0NaXO2AWgvnCt0sj3mqgL4B/zWDI+/ZYe91wljliYdLWcz3Uk1dQbxcA/wAVrxpjZyOeaprfC6tqBUGpjYGnZh32SooqmrmEzI2OhYQNLzzV1GGF2mah0+rAu3MZEIpmuJdDHMw76mjCBFM36xLAe+MhSIo6bViGd8L+zshJqhVsikc0sqA0Zx3WkRah07KeU0tQ2Ysbq0uKx9zr2VtWJY2Pp5g3BHc/4U2519NVzRy0b30szWlsjT36tVPcnSiiL/8AmBuPsudrUQKqufHNsQ88nFCqa2VoLhuRkKtiaZX/ANSryz0M1fUNYxheyPnvzHZBI4fs761xkdhkLTgF3IlSeJRUUMbY/C/APlL27haOS1Xth/8A2yOKSkGHNZkNcPcFRpBJJS1MV9jZFrH0B2cnv6FawYu0xl9VHGCSDIAF2CGPTExo6ALnXCNs8evM3KnifnUeq20l3gfN4cc0bGg4JJ3XPNFljbqiIVrY6Cmq49bpBMMblrs4SbnbhRkPjfrhO2T+UpeLJpKqwMIwn/DQ0LDRklFq2TpjSSwoG8nugCU4GJOkoEklIL+ac0pDm7FBHkdlRi3cqTK3mmQN1Q0WFILVJ0oaEwRC3qiDSpJYiDFBHDTzRhpUjw90TmbIGAiKd0oi1FMe6I9U7p5oi1AySk6uadLE25igaLjj0RZ9UosRaCqIAljiJEzmkf8AhM5fcqOap2jw6doiizs1oUcN781No6CeoPlZob+8V31hU3KNzmRSAEljwTjsrKjtk9WdQGhgfq1FXcNLTUbXaz4jyMHKanrXEaY9gOgWfQRHb6KkB8T8R+c790mWuxkRNDR6JpsMs7uRIVtQcPzz40xnfus/ZcUM0srwc59k/brPUVji5zCGc8noF0G08HMaWvqG6j7LTR2BjovBiZpzttzSRHJW2yQPc2lfhrebjyTlvs9TV1AbGwyEHd2MBddoOA2692EA81rLfwlFRxjwmgO9kxWIt1mnlp4WVPljjAw0Le2S2P8AlI2hxbE3kArOksjG4Mm/oreKFkbQ1owArgYpYBAwNapTBgJbWBKDQrgJqcARABLaFWRgIwEbQoV3u9BZqYz3KpjgYOQcdz7BUTg1VN/4itdggMlxqWMPSMHLj9ly7iz4szzCSnsEfgx8vHePMfYdFy6trKiundNVzSTSuOS55yVZEbHjjjqS+TvjoYvl6TkP3ne6xWpzicom8j3QLg0E5VBhvPKGtsfM4UOeuZHkZTNPDV3B34bS2P8AeOwVEmetGC1u5PRZu40NfSVBrKaJ3gy/Uwf1WzgpKSgaHO/Fl7nuna2vp4INVS5rRj6T/hLxs8prlVxle8kSAg+oTFtuNVRPLqd50Dm08le8T3GKsaRBA1jAc6upWdpwX084AJPPZcsz03G7td7gutNplAZM0dequ+Faykq5ZIpT5mu0gFcponOimDmEgqytdwkpLtrY4jUcrU6Sx3KWKmgiyxrcqEKqBuQ7GViZ75UObu4qD+1JnuOSVq9JjojbjA36w0hKmuFI6M6QAVzZ9wmcD5imf2nK3OSchJ0fVuKmaJxdhwz2TTHh3lxvhZGiubnTguctLG7W1rmjfrha3WfSQyUNw1oPulhjnRks6HfKQzDD9IJPROudgkDbuECGBzI9TSD6dlCu1EKmmfjAJCkvk2LWDJynI2udgvPm/kmLGepqSbLKeONz5DsGtGSVYvsVziqm0z6Gfx3DIYG5OFrODrnSWS+xVlTF4kZ8pOM4XfbZVWqvgFXStjc5wzthcrMaleebV8Ob1V6XVUbaaM9HbuWx/wBwYaK36Y9T5SOfcrrEoMzjpbgeyENIM5fupisZwRwhDbIvGmjBncck45LewW/xWjUPKOikU1Jr5DACtY4tLcYWvSKGW1N/KMBZPiitbaYyGbvOw3Wz4jvtHZ6dwlcHzuHljHNcmu11bJUurbhguJ/DYN/sAsddSNc82oT31tWHT1bjFDz822yRSvnrT4NADFTj6pyNz7J5lLU3Z7Za/MdMN2QDr7qZV10VC1sFOzXMRhsbP7rz9da7884fpo6W0wEucBnm53NxUp8VLd6NzZGh8bhjcclWUVvkmkFTcHa5Pys/K1S6u4wW2M4A1nkwLMrWOQ/ELhmp4bElXQkOonHdnVvsuU11XI+fxWPIeOoXpessVXxVSyiucYqd4w1q5jxF8HLlRhz7fOJmcw143/VduO/1x74/GR4f4vqKJwbJI5p5ZHJaeC4MuZ8R7w5/MnqsDNaJaGWpjr2FksO2nOVHt1fLRS5jJDey7zpyx1CGqigOH4yFLZxJFT8jjC5zLcHuGrJOpCPxak4JOFftU+rtvC/xCoKWcGqa17fVXfF/xJsdRQ/8BEwTgbEDBC4VTWYOblxeUqS1xRuBJds4cz6q/wCS4fWPRXA9z8ehbVVeDNIM8uQWvbPFI3OQuPWK4GGjhYDgABaikvBc0NDl4uurbtejmZPDcNIOcHZHgd1RUNfr2JwVaxSZWVSNAPNIkp2vYW55pbXZCVlByn4g8N1oq46ylBfDGcub1+y3Pw04Rp5LdFc63LpHDU1rhs0K4mY2Rha8AtPQpVNcZbfEIo25hHRdOO88Vi8/iTdrCy8vEHh4hG3updr4Ro7dgsiaCPRTLLxRbpZG0+zJz06rRiMyHJ5Ltzl8ud8K1kGAGsGwU2lp9AyealtiA5BKDVpCWtS2hGGpQCAgEYCMIxugJVPEfENu4eo3T3GdrABs3O5VB8QviDQcJw+ECJq548kQK89cRXut4ouRrLnMSPyRNzpb/wB1ZNS3F3x3xxceKK17Kd74LcDhrRsX+/YLLwxuZsMfonYYo2t6/qm3yZeY6bLndXHk1dJMZ9hNNoOlo1SHkP8AKaDngkMAkn69mo6SNssz4IZQ1+DqmO4BT8NM6jJDd+7ic6insHTMbG0+OdbjuSU+9oLdUbsjsm3SMkbiVoD+jgodRK+F2lp+6B51UdLmP+noq+eUNJwUipn1nOd1WVNRp36dVFkOTzjWR1Ve15+a8Mfn5ZQqi8uY5gJPopc0lNQMY6XBqnjLQeYWWjb5YbU/Dn5nk5N7KkpqWe4Xd8rw5zs+UYyk0tPPcb1JNJk4OGgrqfA9vjt9QKiqjBd6rFo23wd4fjtVO6pqIvx5Nyew7Lc8Y2WPiy1yUbZNLxu0jmCOSf4PdTV1OXNaAPQKz+QdR1RmgOQeiznhXKG8R8U8EM+VudA+ppx5GTwjUD7jorT4ZWmvvfFdVxDcaZ1O2UBkUb+YaOpW/ukzKmHTLT6nDuFe8NsYKMaYwzbsmbRaRw6T6J7CA5I8hbAwjCIEIBEGggggCJBBCAiQRZRQRokEAQyiSS49kCsoApvOVhPihxvBw1bJIKaRrrlK0iKPP9fRBS/GvjSit1sqLTTFrrhOwjb8g6krzDVSvqHANilliBw4sHNTeILrUXS5PNVU66iUgyyu/oP8J2gpXxsMUddsfyuGP0TmIao4KEHSzxYGnGeZVxBDIzeirGvaOQfg/wAkUUFTEzL4o5m9zsf1UWrlpTnxYZYXDfIW0Krah4DzVUrCAMlzFn7rXh7qeps9WAXt0yMccDHUEd09cKypoxBLRytqqadpbo679c9ws5FE2okMmjSMku/iKzasiNcKvREJHhomOdIA/mVFgrJKqnkMoBLMZI7Kvr3SurJGy5Lg7GE/SxP/ANJgOuTYgLKn6OlfVyNgpm7uduey6HZLZTwUrYYwSGjzu/eKh2yxutkETJIJWzSgGSQt5DsFpIQ2OMNjGAFvmJaKEvomEsqXsYBnDtwAsfcpDe7g5wGII/qeri7w1dbTSwukbAGO+onZ7Sf6qJDSsjLaSnOWDGoj8xS+SFW+IOpxTQ5jhAxkcytfwjQUNocH/J09S7OSZ2h2VnZSy3+JM5+qM4axuPzdgpdHXVDX/wDE076d4GcasghMg6zeafhO6cMGqt5bY+IYYiSIgWskI336HK53YrrNc7LqrgGveXNBHJw6OS23JkkBAwSRyKqPmmslxkNYDyHRY55+q7q0oZS+DD/raSw+4UjIPVU9sqGST1YjdloeD7bKw1rnfbUPnCSU3r2SS9QOYCI4TYfsgXbohYAwkubskB+OaPXsimJGJoNGU+9yZzurAWhAMR52RalUAsRBqPUi1YQGG7InN2Q1hDWMIGS1J0+icJGUWUU0W80ktT+xTbsJgbDcpDmbeifGCgRzUEYs2ReGn8JTW5QRoKOkoxkDxJP3il65Z3aI8NCl0wihcRURFx6EqytdLFXT+HGWscemcLp1sZjMOppJJC0jOD0VzaOGZ6twOgtZ3K6LaeEIIQHyZc/1C0lNa2swyJu/QALGWtMXauFYacAlmp3qtDS2tjAAxn6BayjsT3AOlIaOyuKa3wwAaGDPdUZmgsksuC8aGfzV/R22GmHlaCe6sQ3bZGGq4htrAOQATjQjASgNlcNABLARBLCIACUB2QCRPNFTQumqZGRQsGXPecAfdVCwEzXVtLbqZ1RX1EcELebnnC5rxh8WqWhZLDw7B89O3/nu2jHsPzLkty4gr+IpDU3GrkmcT9JOA30A6LUia6nxX8W2MD4OHYtR5fMyj/8A1C5Tc7nWXWqdUV9RJPK483nOPbsooYcckbAAVcBAboyBhImqGxZBwoElXJO8x07S53oFRIqKlsLeYVeJKitfop2E+vQJ+ajipIm1N1mDY9QGM7ZKs7bU09TQiam0sgyQCNs4PNJN9puGKG0xQ/iVLvFl/d6BS62oMMRcZGQxAddsIrfURXCrkp6J7XeGMvkPIenqqbibhS5VLzJ8y6RvRvT9FrMnhN1VXPipkILKAeI//wAV3T2UCxPN2qKo1chfUacxgnbKjPsdRSEmqic4g8gNlYWujkqZWSRR/LCF4PidCOo9Vjzb5aQqyme2nexwOsbYUO1yGhqA9zNTSMELWXNgq6iR8Qw0YGcc1R1FK8ZGFz9VpAlEb6kviaGtO+OSFLTumrtTSNLU4aeQDcJLYZmnyZHspo0bhE1nmc3b1UR9RA07yNVMaaodndyQbfMeYKui4NXTkbSBIf4cjToc0+yqTbZR0KT8rURbtJTRPhDo5/XK2FjqtUYBO/JZO2tdO0h487f5q5onmkOQN1rmpZrV6NAzq65KZdgg5B1E/wAkmgqhI0asZITj25Ja0+fII9l0YBoETmZAyNyOyJ8riWgDAxgBE5pcXO1b8/dOBunQSDscbIGmOlMjNzz6rR8LcQVNmrWPieXQasvjz09FTPjId5SAO6RljCcZcVMV6X4bv1FfqNslG9pdjdvXK0FPRFxy4YC8s8PXy4WGuFVRNOARqY44a4f++q77wx8TbNcaKM1Evh1IHnj6tPqsXx7WeW8jibGzoAOZKx/FHGDKUPpbViWfkZByaqPiTi6pumuGizTUDfqkccFwWJ+dqbk90Nq8lOPK+qcP5N/yuXfyfyOvPG+yrpWyuqy0E1dxfuQTkM9XHp7J62Wnw5Pma13jVR6nk30AUiCCktFK4lwaOb5HHdxUqgrIKyJzoSSBsQRgrz2u8mKqpr5aqZ1NbBkg4fMRs327lTLdb4aJpeTrmdu57uZUgtho4nO8kbBvlUFRW1N1nNPQNIj5OeoqZcrxpf4FEPEmO23RPWqzCM/N3N2uQ7hp3wpFrtsFtaMDxap3VTKuphoIXVNdI3I5DoPZBJDtLPEmPhQt5Dks1d78ZdcdCSWZxr/wsrxJxJW3uY01AHNiOwA5lSeGw59C+3VY8Osiy5ufzBWI5Pe6aW7cWVdGyVrC8ZLncgAsncqCS31clPMWucw41NOQVf8AFEMrOI6p7XPjla7G2xCrW0MtRLrleXk9T1Xq5zHmvs/a6DXRtlmcGMPfsrRtwt9E3TG3W4dUw6lmljbHyYBgAJUVkc/8pTUPf7zN8M6YsYUaTiHxGkOiU2LhqVw2icfslO4alA3hf/6Smi7snFdG+Bkcx0OGy09suUMkzTFMHD3XMJ7IWZGkgoqE1NtnD43uLQd2lcrxG509B0VQJGgtO/Qq+t1bq8j/AKv6rmPCt6bUwt82e4W1ppBIAQfN0K5enSXWwhkyNlIadSo7bVF3kk2cP5q5hIIHdA4mpG5BGFK0hJLAFRTC3xi6UtWctMT8kjsut26eKppmOhcHDAyucPjT1tuM9tmDoySzO7Vvjr6sdc66XhDCh2m5wXGAOjcNfUKfpXonlyJxsiSsKHdblSWmikq7hOyCBgyXOKCS8tYxznuDWgZJJwAuRfE74pNotVs4bkbNVHaSZu4j/wC6yXxK+JlTxETQWIyUtuGz5ScOk9vRc9ggLW/Vt6BanOs2nJHVFbVPqa17pqh/1Pkdkp8ERtxpwcfYJuR7IIi+R+GjmSop/wCIb41STFSjcNOxf6n09F09eEPse6qBAOiIfU/lq9kmFxleI4WaKZhw4nYv9kbqaWSRpmBZTtwWtb+b3/wrEOjeMSNwf3goER00bWYpsAD8qabMYnEO3A5goT6oSSCCOjgos87ZGEOPmHVAuqewjUw7c8KrqJ9jk8kJp8ZBVZNOH6sEZGxWWoVUSu0HSd+hUPJq4tLBl52x6pukc+SZ0A3d+VWUbIbKJHPkD6h42j7KaoRTR2yma2pLTVn6W81nKWKe5XiWolJJYcNB5BIoGVFzu8tVKS7B0tC3VptscceA0GQnJKxaHbHa2xFrzgnqt5w5aKi51DWxgiIHzFRuFrDLcZ2xxtIjH1OXb+G7FDbqZjGMAwFzm9KcsNojt9G1kQwQFbRtPJwyn2twMBKY3Udl0DD6NjuTQpNPGYWYA2UK43602p4iuFfTwSYzpc7fCVb+JLNcHaaS50sjuwfgoLRrwdjsnAAeSS0MeNTSHDuDkJTRjkqD0osYR5QyiAggggJBGiQEggUEUEESB5IAUh5wjJVLxbxBScNWOpuVc7EcTcgdSegQVvH3FlPwxZZqgkOqi3EUWd3HpheS+NeJ6murJq6ueH1swx5Ts0dAFM4x44PE91qLhJr8XGmOLOQwdsd1mbdQPqZTV17TgnyRuUiIbblRWp4ZNqq6iQNkkkZs1mRnSM8yFZ0t7t9Q4aKhrXH8sg0/9lU8W0MtdchPTxRxs8NrNDBsMdVnzaq9jgDAC0nGQeXqVqbB0yKWaIh0UjmgjOWnIIVXV8SwxVToKn8aEgtc7AwHdPcd1gY6qekex0cz4iDsWuO2PTopjof2lWiSlidHTgAlpOQHdcemVPtTFjMyKNrnskdHEHFzmZ8rR0AVVBdZH1YiDW+E46WgdEriWZ7ZGRDaMjUcdSqujZqcXk4a3r6rKp9wLHT6y38QbFPUVI4QPq5XOZj6COee6VaaF1fVukmOImnLiepUq910Y/4ZgIaRjI/oqLC3ca3OLERq8lv5ZhkEe6vKTjNsjsVtvikP70RwffZcuY0ulY3+LYqZQxTy3Vgpi5rmuB1DotS0xur1cIbrIG0AkZSDBcHHJz2VhSQNpKZ89Q9rQG5cT+UdvdM2S3kljwzLc+RuOZ7pmu13u5Cgpf8A6WF2JHDlI/8AwFf9oTQMlutV87PqZSRH8GP+/unLrVyTPLYydQ+p/ZWNWG0sbKSn2yOfbuVEqWR01M15G3JgPX1KgiRvkgtxnMoy1wYGuPmPqq2puepmnk49UmskMmo745eyqfEbrxjJWdVueDY3Oo55juXvx+gWg0FV/B8WixQk83kuVzhc61EbSklhUvAQ0gqCHoOERaVNDAUDGOyCvLSEW4KmujG6aMfNBHdvzTZGMqVo3STFsgjbpJUvwkRi5pghklIOVLdEmzHglUR0Mp0xnfISCxAglJ1bJTmHCbLSEBhySXItJ7JOlQONcj1JsAoyD1QKyhqTeCiOUVGi4ponxkzscHAZOFLt9yt9e0Op3GKQbnJxhc6czTG/2SqXIaCMjZdvs5463T3WupZGsp7rM1x+keJn+qvbfxvxDbycVEM47Sx5/ouGeJMatuJXag3Y55Kzhu1f4enxXY7pspjug+MVwpW5rqOjeP4XEE/Zarhz4r8P3KhgfXVDaGqkzmF55b45rzA0OkJc8lzj3Umjgp/EE74RJUR7Nc47N9cd1Fez7fXU1wphPRTMmhOwc05ClBcu+AFS6fhivY85LKon9QF1JqoACUAjARhuUBAI9g1znEBoGSScAD1WP4r+IdmsOuCJ/wC0K8beBAfK0/xP5D2GSuQ8S8W3viZzm1s/gUedqWHys+/V33WpzazrqHFXxPtlqL6e0tFzrBtlpxEw+ruv2XJeIL/eOI5/Eu1W50YOWwM8sbfYf5VTPLTW+nM1VKyKIfmccZ9lViuuN2GLVD8nSdauoGCR/C3+5WpJE9p1dW0lriDqqQMJ+lg3c72CrIpKlzpbg6kFHRgZxI7D3+uOiivqbXZZHyQk3C4n6p5Tq39/8Kgul1qri8molJb0YNgPsl6JG8ZVQviEjSOSr6i4ZdoiaXO7BZeyVrnzR0j5CA5wDXE/yXRKWjhoW/gMBf1e7cqyfYvhnnxNDg65VDIAdw0uwSr6jiihhHgta0YznuslWXJ9qvJiuccU1NK4mNxALmAn+irr1xNUSvdFTu0xg4BHVTZDNXPHVZRzW40xkLpA4Ow3uFiY7jVmhbRtkc2BmcMG2c909TUlZVEzBpO4Gp3UrRUEj49FPc7Z4seoYLW5yVPdX0qrJc6m0uDg17Wu5nHNb6xcUmtw3QXEcz0CTWi2MpmMjpgx4b9A6BVrXMZHojaIo+Ya0Y/+Vrfr/UzU/i+9U8NMW+TSfqe0ZJPYKjopoqmhjlpydDiQWnoVU8U081TLSBjXeGc9Oq0vC9gkjgZACTkgnHc9AuXXW3WpMabgzhht3p53ynGCAAp9w+Hzm5MYP9VvOCbJ+z6Rocwtd26lbEUDy3JZ9lJivOVRwZVtk0Njzvtsn5eCp4WNGjLsb7L0C63sz5ot/ZJ/ZsUhOIxn2T6wcFpeCKmXGWY+ytqf4fuIy8LszbawfS3H2TrLW48mlJzBxiT4fjTsD+qprpwNJExzmDPuF6GFofjcBIlswkYQ5gP2VyDyNV0T7fVHLSCDuFax07ammEkeDnmuvcbcFRSB0ohwfbmudR2/9mTubj8IncKSWIzgkfTSYJVzRzsmDXfm6nuheraHM8SIbc8qhimfSuOcgBdOaljWAxtbgbnOcqXT0FRPEZSWQ0zeckhwPt3WUdfYaWIF4c6Q8gFQXniCtubdD5ntjHJucAD2Wr1Ikjb1t2stCXNfUOqXjscBUNbxsxmoUVO1g6HCxsUDp5WxxiSWRxw1rRkkrp3BXw8ZqZU3mMSS8202ctb/ANR6n0XPrvGueNV/DdtvnFT2zSyPprfneXGC/wBG/wCV1Wht9Bw1bWucwNHIF+7nn0HUp6WpFteykpYRPXFo0QM5MHd3RoUu3Wd/jfO3WT5ms6D8kQ7NC83XdrvzxIixUtXetMlwDoKEHLafPmf6u/wrKsrILdGyGJmqQ7RwxjcpqquMk8zqS1tEsw2fKfoj9+59FKt9tioS6V7nTVT/AKpXcz/gLnrpiJS26WolbVXUhzhuyH8rP8lSLhW09vjdI/DCRs1vNyiXi9x0xMUP4tRyDRyaoNBa3VEorL1MGgnysecZUUULKy/S65sxUgOw7qzrbhQcPUscZIY6TZuBknHMq5hiYI26QNOPKByC5R8ewYqW1SseWOEpacHGxW+ef1m3I39dfqO20gljd4s0jdQ7nKwddVV1/qzrcfDB/wDK0Ji2UUtayN75GuiDBlzXZPthWT5Y4YtEY8OFv6lTDS6KaK0YFJE2WT8z3dVIbVuvtQXsi+XroCCHAYDh79k1bKaOva58gIgb15ZVu54DQyJga0DG3VXEl1jOPOH3191ZU0lOXAsAkc0cyqSmsMkeA6FwP/SvSHBtpgmsLHzMDnPJOSFOfw1SOfqEbc+y7c8+HDr24jw3wJPXuD5mGOL1G5XQ7ZwLb6VgzEHHuVvKe2thYGsAA9FJionOPlblbnOIykXDdG0bQN/RG/hukcCPBb+i28VvA+pOigj/AHVUcsuPA1HUsd+A3PsuZcX8ATUeqSmjLmc8L1AaGPGwVfcLNFUxuaRuVM0143pm1Voq9YY4MzuF0rhu7MqoWkO26jstRxpwVpL5Ioh+nNcyNPPZ6vWwEMB3aufXDfPWOpU7xIBg4eORVvQVmryP2eP5rFWW5MqImua7/sr1kpfgg4kbyPdcPTrGvikz13TuoY5rPUFcX+V2zxzCuIXa25yrodceaZdg5SnZVdcLpSULHOmlaMdMqWiS2aop366V7mO9FMi4uuFN5ZJ2EjuVyDiz4qUtJqgo3h7+WGLOxcVzXGiEtPG75h53c8+Vg7+q1zOr6Zt5/r0lV/E+02yyvqrjIDUN2ZCz6nn/AN9VwrjbjW5caVLTWSthooz+HTRHb/zHqVlB4L5vErKkSy9XPdn+XRWdO6n0gxyxEejsL28c+PLz9X8IipmN3A29UqaZkEeXbl2zWNG7j2ClSEviZ8nIyd0mzWMduTz68h6qC+I0z2l7TNXv2DDsAP7N9eq2zDTwW6Jq12qTP4cLdwD6dyrOO2vl8OokeJSGgiL9w9fcpdHRRSFj5nhtXpwXfl+3ZOVkE9E8CZro3Yy0jkR3HdRRCZ0ezvM3kQUmbQ9pdD92lKdUMqY9MuGzDk8dfdVUsphkI/8AghNMOuqdALSRpO2Cqupl0uJadkKqYOyc7nf3VXU1Gk6nbjkf8qNQqWoBfoJ3PJV75CyrbvgP2KFUyR7miFpe/OQBzKtHyU9st4nmZqqHtzpcNws6o5o6a1Rid+H1WMtWZtfzVyuM1ZNqfqOloSbS6puVXPVVOp3inDR0x6LbWa1ikaxjGeY7+yzb/Qqy25lMSGxjWeey3PC9gluNQ2OJh058zsI+FuHp7nVNjiaefmdjku68M8PQ2qlYxrRkDc91y89VSeGrFDbaVjWMAICtLvXw2i11VdUHENPGZHewCmhuBgLjv+0tcpYOG6G3wSaDVzHxN8DQASc+nJb9ehEh+N8vzbBLaM0zz5S14JLe6gcb/E+rvOKa0udQ0gwS4HzuPv0XC2XmOhjEFtiEjnHDpn8if8IobncnGQ/NxRhv0hrMgrpJGfLcy+PXyPnqZJp5MbveS79SkZdGPwnEH+HoqG13+6QRxPkjpq0SODHQxZEm/L3Wopmw3B0jaJslNc4d5bfUt0SD1bnmteExbcO8XX/h3ekrpHRncskdqbj7rpfC/wAaKWWWKDiOmNMHkNbVMHk3/e7Li1Qx8wBmBa3sRhNTlkkPgneLkWnqFnB7LppoqmBk1PIySJ4y17TkEJxcg/2a6e4Q8NXH5qqM1CKjTTMc7LmADddaq6mGjppKipkbHDGNTnOOAAsNQ3ca6nt1HLVVkrYoIxqc5xwuF2341VV0+I9PRW+DxLM9/g7Dd2T9Xssp8X/iXPxxUnh/h6Im3tky+Uc5SP8A/lXPwS4ZpqHimjjk0yVDAXv7g4/kpbvoejxyRIqiaOmhfNUSNjiYMuc44AC5xePjBYaOaSKhiqbg5hwXQsJb+q0OjosLkEfx0tniYntVUxvfIWms/wAV+FLlhprjTSH8s7dKGtwiK5H8S/ixDQNkt/C0sVRWY/Eqc5ZH6DuVzq0/Fvi2jd+LVQ1cY3PjM6e6Tya9L3CsioaGoq6l2mGFhkeewC8k/E/4gS8b1z/DndS2KB2GEjeUjsOq7PfOMhe/gVcr7VMZTOnhkhwDs4507e68f1tb9LB9WMMb0aFPdFp+1aagLjb6RjCecsxy4qI/iiq1HTURj2jCpmQTVbz4bS8jm52wH+EptC1riJ7jTRO7DLsfoFdVd0/FEmsCaOnnHXbQf1C1Vnktd8zHR1bKSux5aasIaJD2bJyz6Ox7rD0nDtZXtJtr6W4Ec44njxPs04J+yrJBPSPdHIx7HNOCx45f4V2o3V3sUDqh8dfTuhqYjhwI0uB9e6gTMZSM8OMYGFGtfE8k1PHSXR7pYIxpimdu+H0zzLfTp0Tta7OpjiMcwRuPcKLFBdnNlGl/29ExbKZ1XUNhYMMHM9kdRFJLMGNBLicABX8MUVpocfVM/njqeykAr6iKggFPDgPI2/yspUTOewNfu4E+ZS6yVtREJJH4n1kFoG+Ohz/JQdGp7R3QTKSH5i4NbTsJDY8/y3K2PD9lEUeZBnxDl3cjt7LNUVNUUzJ3wEDxGhvPfAKt7Df3007YqsZaT1WuUa26Vc1FCylowRWS7NdjZjRzKkWqlitlsdMRh5BPsOv6qbPFHU0Da2nOuP8AMOrVQ1VW50hidkQtIP8A1HoFqpDlOx1TUuMpDdQ1vP7jB0VReK1tTOdvwsaWDPIcgFY3B/ytE6DIE8oEkp/dHRv91l6oaoj3HmB+6y0RE8yNOv6sFrh6j/sosNNJJKGRtJc44CvbBb/nK57XghmNRI9lrKO1U1IdUbBq7rFEy3ximooIRtoYAn/E9VHOUWSsiUH5QD1F1dENfqmLqa16GpQw4pYeVMEglIOCmg47oFxTFKzultGVH1YT0b0C9PZDSi1oi8KBJbz2SCwdAll4SdYV0NuZ6Jsx81IyEnZNEcx/okGNS8DCTgclNEMxeiQYsZU8MBRGMJqoAiR+Gpgj2KHhoiGYtuSbfCtRZOG667uJhj0Qt3dK/ZoCsbrw5Z6OJ7Deo/mGMzyyCeyn2m41ObmuCujBY/GeSZpM+E089sKxbTu8VoIw1xwSVBpGfU3O7XEZXWOYn5+ZZ5d9JGFZ0kkIo6hsvll8pjAHM53VfOMVERz3GVLo4jNIGn1KCSDgHH6qbaKSorKjwKSGWeZ5w2ONuSVBadhldp/2cXxNnvetrPEAiIcRuBuqNt8G+Gblw9ZasXZjYpKmQPbEDktAHX1XQmNJOwVHxBxbZ+HYS651Y+YIyymi88rv/L0HqcLknE/xKvV81wWzNqoDt+G7Mrx/E/p7Nwtc82pbjqvFPGtm4bDo6ufx60DalpyHP/8AN0b91yDifj2+cR64WP8A2fQO28CBxy4fxP5n+QWXjgawuc85dzc5x/mT/dVU9+bJM6lssBr6kbFzdome7v8AC3OZPbO6tNEVNE6SVzWRt3L3HACqjeai4SGLh+m8YZwaqUFsTfbq5RKuliY5tRxPWfNTDdlJHtG3/wAvX3Kr7jxDPNH4NK0UtMNgxmxI90vWEiwmZb7bN8xdKh10uQ3Ad9LD6DkFT3e/VdflrniKHpGzYf8AdVEk+Ccn791GMjpHaWglx2ACzrWHZJOeCmmCSeTRCxz3HoFa0FjllHi1bhDENzk4IHqeieqLvRW6Mw2uJskg/wCYR5f+6Sfppy22GGmYKu8ziKMHIaDjP36/ZO3vjWR4MNqZ4bAMeK7n9h0WeqWXC4hlTKXztkOA4HIbjp6K0tPDQllYKyZkevcNJwSrLfUT/wBUUNPW3WqOhsk8p3Ljvj3K11j4XIdrrhl/RvQLSxU9FZqIhjQ1jdzjdzvVVVwr55mytafDbG5uA07kHurk59nm+kqsdR09Po1DDHAkMGSMJEVe6oic2NnhNaS0nOSSFU1kZDK1seziwEfoptpLHU5Gkhzfqz1OOazeqYckjMkb2t2yDunIGOMbGv3c1oBcUiaoazZu5Ui2EySjLdW652tNDw7wtJdyJHO0wt3Pc+y1tNaYLTWw4wG48oPQqLabuyliDSNBA6K6t9oq75L80Q5sAOzjt+izuq2tmldJC2Rgy7ktRThzoml4w5VVhp4aaBsTebe6um7LaB4QPMBKZAwHZoSmuTjSrENiFufpCWIwOQTgKNUN6UksT+EWEFbcKFlXA5jgMkLkXGPDjoZJHNb5fZdt0qrvVrZWwO8oLsKo81kGBzoJxlh5Hss7fqERtLmjbnldU4t4cdC57msOnp6Ln91Y9lNJFKMkciosc5qAXyHKftFmq7vVinooi935nH6WjuStNw7whVXio8SQOho9X148z/8ApH911y3Wu3cNWtr5WMpqdv8A6nn+pK59d43zxqh4I4FpbUzxpMPnxl87xjA9OwWiNW+uc6k4eAZC3yy1zhsPRnc+qMQ1V+x81G6itQ3bTjZ83q89B6KxqqultVMxgaGj6Y4Yxu49gFwvWu3POFW6hpLRTP0HBO8k0h8zz3JU9jo54TocHMcObTnKpoLbPcXiovO0Q3ZSA+Ueru5Uxz6O1U8jmYhgLtQb69gFhs/AyCgpvDhjbExu+enuVnq+8T1s3ylra57nHBkH9ky+Wt4jqTFTgxUoO56ffuVpLdRU9qjEFHH4lQR5iefuT0CBixcPR0bfHqfxak75O4as3xNV1Nrusr7jSMq7Y5+pufyZ2WtulbTWykfNXVB19wcY9AFyHjbiWtv7TBTNcylBBwBucdSrErd1vG9BT2xjre0vlIw2MjAZ7rHU9TNdquaou1M6rY76ctyG+ymcKcJT1kNPUVW8D2hzWj83uulUFphpo2gRtGBgYGwVRzODhi2zTNlttxqbfJnLmB2R+hWur7Jam2+Bk8slTMBlz3HBd7p29voY6xsbYIzUjcOHT3VPcWT1VOY4tTnvcAccyFfaXIlgt8NrYg1sQHlDeQC0HC9g/aczX1JMdMOnV6seFeD9FNHLcdmtHljP9SnhX/LXoU1MMszgYW5znmufXbolupqaCmZBAwNY0YAUn5dnZNUEWImud9WFNBC7xyRxTMUiNoaNgjaAlgICASgEYCPCoThJcwEJ3GyIhBWV1FHUxuZI0HK5hxpwYHtfJEz+S6+W5CjVFO2Vha8ZB7oPKr6eostYSGnw8+Zq1lpq21MTS0+xWn+KVHaLVTl9RI35mT/TgZu93v2HquNU9zjjkmZ+0W0oG5YAT/Rc78X2a57x1RrHOw5mWyNVxbJi/AeQ09c8guGx3wzzEUl21v7eIWE/qrik4ju9JE9j53OjIx+I3P6FZ/wdfytf5Z/Wj+J/xGpbG80dERLNjGGnclcL4g4nvN0efmnywRu3DcEZC0sVvZ89LcqnXUzSnZ0gHlz0A/uplfU0dNROlrtHgjo8A59AFrn4fG1i/I57brVLUsNTNllK0+aQ/m9B3Kl1l4k0iGmxFAwYACcqrsblB4bnNo6CM/hMAy4t9AEmjrrXRnUyilqJB/zJnD+nILpzziIcMFfVbxRzPz1AOFNZa7ywHQx49NYVxT8VUZIbPDNE3uMOH8lpLdV0lfTmSjmjmaBk6ebfcc1qSfrO1z2GtuVrqQXeLG5gP1dMrb8M8V0E8Tm3RrzVyEZqA7cAchjsp0kMTwQ9rXB3cc1n7xw3Tzh0lCBBMN9I+l3+FcsX239RQOjoYa+F7KijnJDZYznGOjhzCQ26PNM2lqSJqYZw1x+nPY81yyzX+4WCtdG4uDAcPif2W3Fwpq+lFXRnDD9bM/Qf8JqYcrg2J5MTyWZ59Qex/wAqsrKrLCTl2Ntuh7+yFRVEggb/ANx2VXLNqDt9uR9lFkHUzuAOk4cNwouHVjAyEEufsAiphJVP8GMF8uce/qpE8rOGqad75myyPHlYByd2z2UU6ZhYra+SqDHVO4bpOcj/AAs9bH1F1E8tU5znTHA9B6IQCe80pfUv/FlO23IZ5LYWm3NhYAB52tDWgdFm3+hVotLaanjYzd42x2C33CfD09yq2QwtJJIy7HIKNwxYpq6oZDAwucfqd2XYLhFDwNwLXVsLR82I/DjPUyO2H8yuX/1VY+6cY/7pVRtvDdBDVeAdNRVSHZzxza3vjqVHpvjfc4J2wVdmbVTu3bDEC15HU9sLn9PfqCCKOCu8aCUbEysLdRzuT0ymwWOwY4PmbrWHTDGzYsH5Qftuu/0meGOb58u8yfFezPsLKiia6e8Snwo7a05eJPU9h3XCfiXxFV36sh/aVZ81UQhzXRsYGxRkn6W9Ty5lRK2sg4fpJaGgf4tzlOKmrbg423Yw9u5WdjbqOp5BcenZTmfrVvlFgomDLi0AnfCmR0YxnAUqCLuPVTGMAG+AtekVrqcY5D/CU6sY6o8W6ieokZD4VPUMkIlp8btLejhnoehUuslY1mAFAERLsvbueQPT1Wb5IsqO/VNfSs/aUXhVLQMv6SA8ij+ZY1j37uDBqfjsocMTXPaJXaWZ3Km3ShpaWOPwKlkpe3U4MdqDR67bH0Wh17/Z04kbBU1lurH+HDUtMzC84DC3n/JZT46fFCo4juM9gsEoFqhdokmjd/rnrv2XIqy9S1FWKKge/QAQXA4z/wBlLp4GU0ZA59SVjNU9aJ5LXUxTUpAljIdkjOfT2XRfh/8AEoQ/Eqput0ia0VR/H8GM6Y8NDQB+i5XBJLc53Q0Ti2Bu0k39gtBTx09tpyWjAHMnm4q5KjofxP8AiVWcSPkhgLqW0NOGQg4dL6u/wuTniGrp3ObBO+Nrv3TjCKvqpKsk48o2AHRUFTTTue0Bjtztsnr0si3ivdxGSJxK09JAHKwtl3hq6nw62OCnOMiTJDSe2FT0tG5jD4nlcBjBT9tsT62Zz5XFsIO2PzJBsI6ZrgXQOZI0jJMZDh77LHX66GSR1JRO/Czh7m/mPb2UG6iOGpe60vLYmEsc5sh8x649By9U9Z6HAEko6bBXd8GNI67XKq4Bp+HJqg/IRVHzLWgbg45e3X3WFrLW7xi4SOPfIWndVFz8MIETebuWf+yteBbVW8U8UQW61wt3/EfI4bRxjm9/9h1UyQc+NNNnQ8kR9G50g+6mQUJ0OIDMAb6cFejOJ/hZwfQ1UcvEF6uJqJGk4a5rBgcyAGkgBckttmpILlVfL1Ms9vhlcY55Bpc+MHyphLrNUdMYIP2lNby+laciUSaH+7Uw+toKyorGVTXOilcPCqskmI/xDq053PMFaK81Rv8AV/K07Q22wEN0t2Dz2VlR2y2U4/At0LHH3d/NSeRzJ1BUitMEDPEeDjy8iPdXf7MuVNSkVUDtDfpeN8DqFvpGUtDTiVlPT0zsZDmsGzR3UKXiwzBlK+nZUwklzctJkjGDy79OfLorkwYeiqqOklfJVEibHk2yB/3UWe5R1YlcA4OZyB7Z2wol5Y+OYNlGH6yD0TFviMkrgOyypL8kBx67pALmPy07hWIoJpZI44mGSaQlrWNG66HTfCG51FriqIyNbmBxbhwU0c3juUzQA8B38k3NVBxDtCtuJOGq/h6cR3OHww7JYc51KheMkqwdP+GHEMVPM+lr/wAWje3S8+h6+4UriOCGjrny0jxPTNflhz1O4yuUQVE1K8vppHxv7tK3Fqq3XCzwyynDwSJCOuNsq6Yaqp5J3EvJL3uJcShBQSSsc3TnDS77LSWXhyatqWiRrsEahkdO611mssDr5T07WBxkkbEAOwOSf1/os3rFkZ2zW02+FxlaQ9+BuOgU8gFekIeE7YaEU1VSxSRY+lzViuJPhPqElRw/Np6/LynI+x5hZ2mORkBJ0KwudrrbVUmC400lPLnk8bH2PIqIWqaYZ0BJ0J8tSS1NMNtalhux3QAx2Rgppgi1JLUvKS4oGy0oA4SiUWMoASiB2StKGlA2Smy/GU85nPZMuZugMSI9aQ1nZH4ZTFGXlAOSSwoNaQpgea5K1ZUq12mtuk4hoqd8ryM7Db9VuLRwfQWumNdxFVRlzdxTtd/VZ66nPtvnm9emOtFmrbrM2OkhcQebzs0Dvlbers/DfDNDFNWTfN1wb52E+XPss9xJx41sYpbVEyCNmWt0DGy5/XV1RWyF9RI5xPcqc89d/wCo1bzx/utNxJxxWV7XU9HimpwNIbGMbLHTGSQkve5xPXKLSTyRszuu/PE5mRxvV69tPV1tHVOxdrCA/wDfh8pWeu1mtBOu009SzVlzzKSQD6L0FLbaKf8A1aeMn2TD+HrbIzSYAG9gp9f9mvPDuFqSaKJ/7VZHIDlzfDJx/NMTWr9m1bvlZvmYyz6tONz0XoqPg+1atQiAPqFyn4n3q2We9SWu1QwvmiAE87t9D/3QOWwxk90koxNLbHTTt8R3hRc3E8/stlbrlPaKOSl4aIojKAJahhEk0n3/AC/ZctuFzqKiXUZSW9sYTcFwqoCDHK8FbmRHQAJWyPfK7xnuOXF+Q4n1O+6flqvCp3GKLMoHlY52lpP/AFcgsW7iqtZDGAWnDgSS0EkdlpbZeaOpY3xX+HJganZ8v/ZdJ1GcQaqnlqYvmOJK1sNJzFJTny+znD6ioNXxGI4DS2eFlJTjk5owStVRyUFwhL6dzZGnORpwSOWfZVl04WpakF1PmB56xjY+7eX6YS/6IxE1QS8uc8uceZJyVFlnyDhWlTw1copywsa5n/iNOw9xzCs7ba7fRTtbUStlqQ0vd10NHMno0fzWJKuqW3WaqrnAlpjjPUjc+wVnJPbbK1zIWipquR0nYH1d/YKvvV+lq3OgoyYaTOPLs5/uf7KNbbTPWvAHkb3K1/qJ/wCk19xqri8CV2W/ljYMNHsFOtfDk9Vh8/4cZ/Uq+o7ZR2trTL55nchjLnH0ClzPlk8spMDD/wAmM5kcP4nflHsmfqb+KtlrntlRrs8rJeQmp3PG/r6KyqoIaipjllAn8LeOL8jHdST+ZGyJrGBjWtjZ/wCGzr7nmU61pLdvK1T7LipqNbrtPrdnXSnA6DGdgpUsZkdUNYMl0bHBLfS5q45y4BgY5hHU5RyT4YGRjYABZ1omSJjHvdK7OpoaQOiQZTp0RDA5bI46eSZ3VXVvtLnuaAwuceQAWL0KqloXynLlruH7JPKQ2GPUe/ZaXh3gl8umSsGhn7vVdCt1tgoogyBgaB1wpJvsZux8IxxTRzVwEhbvo6LoNNUQxQCNkeloGAAFCjY4nDQSVZUtCT5peXZakz0GKGJ75w8DDQcq7akxsDRgDATrWrUBtCW0IAJbQqg2hKARNCWAgIBHhKAQQJwgGpwBV1+vdusFCaq61LII/wAoJ8zz2A6oIt+s8NTTSPfpa0Ny4u2AHquLV1qoqu5OEH48TDzx5SrTiL4iycQSugobdWVFCD/pxjS0+rj+Y/yUeKquFfCyntNDLbWv/wBaoqIwDH6MH5j6rl38n8jpzx/aOeritcjKaliNVcnDyU8f5fVx/KE9RWmSSqFfeZW1Vd+RoH4cPo0f3U602mntkLmwAue/eSZ5y+Q9yU5daaaemEUE5gDnAPe0Zdp649V57XeIdZcnuqHUdtYKis/Nv5Ih3cf7J+3WplG81NS81Fa76pnDl6NHQJ6mgpLVSCOBrY2cySdye7j1KpLrfy6T5e2/jTu21gZA9lFWN4vEVAwh2HzH6Yx/dU9BbKu+TipuDnMp/wAreWR6DoFNtFgEOay7ODpPq0OOQPfuVftjdUMzLmGmA+nk549ew9ECKWNrI/l6BrY4WbGQDYe3cqs4g4go7DTOjjOuodyaDlzj3JVXxVxfHRg0drDXSgadQ+liy1nsdXeaj5mrc/Q45Lnc3e3oqaYP7R4mry+UlzQeX5WLa2PhangYGPAcXDzk9VbW21wW+nDWNaxrRuegVbW1lwq66J3DhY8Q58WSXaJ38I7lEa2OOOnha1oaxjBgDlgBZq98QEh0NCduRk/wqSW+XaskqaW4wimcxwBY3qPfqFX1VTFTR6pnBudgOpWvaekm1gVVS5jWufUk/wAl1PhmwUtujFTVvZJUYz6M9lyax107KozwsDc7fZdCsr7je3CFjS2Lk5/RdOZI49datrxdamvmFFaGkknDnDkFd8N8KxUUfjVJ8SpO5ce6tbHZ6a2QAMaNX5nHmVOlnz5Wcl0k/tYJgfodoPJTMbKPBDjzO59lJAWkG1LCJoSggMIwgh1VCkXdFlUvFHE9t4ao/Huc2HuH4cDN5JD6Dt6oLiR7I43SSvaxjRlznHAA7krk3HPxVjg8Wi4YLZZRs+scPI3/AKR191heN+PLlxJrE8nydrYcinY7bHdx/MVyDiLiAyh1PR5EZ2OOblrM9s7vpP4r4ofLNO51Q+oqXnzzudkk+iwLquWSq1BxBJ3yVZ01sfOdU5JceTFuLR8HuIblRRVtFQSSRv8AM3UQ0EffmsWtSY57IwucHNOR3Wm4fuNFT0ng1lc+OYuyBKCWD2PRW984KudkMcd0tE9J4h0MeW+VxHYjZZ+501vtsfgzMbU1cgzoduGjucch/MrXP6laG63OO121tRLM18EufCEbw7xSO2Fzm4XOe61ZlqnZYz6Yxyb6Jl9K7xWtBa4O8wAPLfr2VqeHnNoPHjnaHyOOIcEkDuSm2kmKwSvnJjiwP3nHkE6aUMAzFNUvJ5An+ymWaz1dRKaeGLVIGl/1AA9ySeQHdTaSKOOQiojfVgHYNlMcZ/Tc/wAlm61FP8uMfiUdRCMcxkoQCemkFRQzu1sOQ5h0vH+fZbKSCW5eGyz0c9JKxnmEUxka7HUh24/oq24iKEQRXB1O2sc/T4kY04bn6n9Ak33UWnD/ABNFcwymrtENcdmyDysmPYj8rv5H0VjUzmMnfBH6rAXagfT1Dw5uJBzxyd6q5tN2dW0vhVD9VRGNnHm9vf3C1KYkX2Flxg1tAFTHyPcdlS2K5SW+qG5EbjhwUytkIyWOIPdU1U0mbWdi8asevVBrq2fBzHnQRkKFSudNU+DGNTpPpHqkWQT3GKOmp43TTE4DWjJV1PT0dlpmmdgmq9Xf8w/K30HUqBM0UFkIlEjpKwgtIafK49vYd1QVtLPc3s8Q6i+QF/o3sFIJkqJjNOdUr+Q7egWhtFD4Lmve3VK4ZA6AKWqXaKGOB4IjGvGzQNmhbHhuyTVtQ2GBhdI47noE1YbRNXVrYoWapZDvtyXe+C+GIbNSNyA6Z27nFc7/ANg/wdw3DaKRo0gykeZx7rA/7T9zNHwrbaKNzg+pqC/y9Qwf911LiS8U/D3D9bc6rHhUzNWCcanE4aPuSF5n4h4juHEFSam8SVZfv4bdMckDAejeeBy91vnn+JbjmcF5uVTIKOGqmIfs4PGQG9TuthBdBRWmaGjpZPnqgaJalx1HR+6wY8udsnmpEVrhhqRIxkfzEgy84xj0A5D2CnxxNaXnPnzvjddZyxrECJ5eXPBB9RhTKeIasHC19RSsijD5JGSiQcj09MFV81pPg+LC0tJ3042wmLqDF5Y3NBbpd6bpmqkawHByUUzzDkOGH9kyxmMSSgFx3a0/1KzfPhYJrCQHvGXdGn+pShknc5PdAvbuSck8yg2RpcQFZMADTqWa4lvOQaOjOSdnOCVxFfdIdSULtT3bOcOvoqCngAY+WZ+G58z+eT2Czasix4faKbxJXuAZpOp5VxR0s18dqIkit4O5A803t2Cj2e0yVmiaticykadUcB5v9Xf4WujqPBiIjxE0DBx2VkTSxHS0FFhrGMijGNIH8lmqyrNbMQ0Brf3egVk2luvEdQyC00r5GmTQ12cNz1JJ7dVbUPAlfS3SjpLvPSUMFRK2N9U+UaGk/wB0tWLH4XcD1PF10bDG0soYyDPNjYDsPUr0nH8NOEWU7In2Wlk0tDdbm5cfupvDFrtvCtmhttqi/DYPM/rI7q4lVPH/AB9TcKWoy+E2a4zAilpyfqP7zuzR1P2XOT9HKvjRwfwVw3BFFbmzQ3qoIdHAyYljGZ3c8HOB0A6lcavdy0AUNGPwx/rSDb/yD+5+ye4nvdVc7nVyVdU6W5TnxJ5zuW55ADp6DoFUW6i8UjOfl2bbnOo9v8rcmeIE2+h8VokkbiIfQ3kD6+yXWTnV4EXLk4j+im1kpaNEezuW3RVbh+HOR/pQgGV49TgNHqc/ZX0GKmoGlrGjXqOGgDeQ+3b+q9U/CHhiHgHgSa53nEdxqmfNVryMmNoGWxj2HTuVxr4B8Ms4p4wjqqimYaG3DxXuxs458rR7kfoCupfHziOTFNw3bnEyvaKmqLT9LAfKD7nf7BOf1m/jmd/vdy4rvdQ6KnkmlqpBqhbIG6Yx9EQcdgANye+SsfX1dTdz8pb4ZY4Gv0zOA2a4c2gjb2x7qx4luYslG2zWhwkulW3E8jHZ8NrvygjqRz7DZVFNeqixUrLfFGXFnn1hv1E7k5P/AL5KVqL+02h0cbIIKd7iSAGgYz91Ppyz5YTYIiI8m2A4+meizEHGF2Dxohf5g5uSNhqaW5/mqmsute6hbSV9U+V7Ghj3k7hgGGs98c/0Unj0JHEF2NdUGOJ2qEO20/8ANd6fwjp35qbaqVtNES//AFn7vd/YKjt8Ja8SvHnP0t/cH+VeMJACs/QLrbKS4tBqGEPHJ7NiFW0XDwpJHvjl8Vp5B4wVbCU457I2Pz1VyUaX4T8L2ae4vlvtwpYKn8jJ3aQT0LXL0vFDTwWxhidHMxjQA+Mhwd9wvJAOexyptDV1VG4OpameA9DFIW/0WfpnpZcRPjjPW3HjWrFWWiKmPhxMYdg3Gcn3XMpm6Cenuup3CIV87qitL5piCC9x3I9e6qbZZqZ0jo4IGySzvbDHr8xy44H9VZMHOjkra8DMdNbaiPm3xdh2yAs7fKOKlvFwhpMmmiqJI4znOWhxAP8AJb/4f2l1PQiWdpAc7xXD+gWbcHSjPHQUUcFMAakxgPePy7cvdXnw0tT6m/Q1DmPMcR1ah39VVcN2KouszGsGG5Gpx5Bdr4ZskNpp2xxs0v6nPP1XKS2tL5sfV3NPs2GAkYS2DddBGudpobvTOguFNHNE7mHtyuW8VfCN7A+fh2fI5/LzH+jv8rsQCUFm8yjyNc7fWWupNPcKaWnmH5ZBjPseR+yir1reLNb7zTOguVLFPGf3m7j2XJuK/hFLCHz8Oz+Kzn8tMd//ACu/ys5YOQlIyp1xoKq31Lqeup5Kedv5JG4z7d/soTmpKEF2EguRuCQUA8Tmja/KbDcpyNpQOh3dHq9UYZt6pvQSmhRckOOxStOERYmhDE4MYSNJyj3CaYVtjdbb4X8K0vElymbWPxHEMtjzjUViGglRKziS48OXCgmtExjqNYJxycM8irPPhfTvNVR3qaSWgsFujoxTExlx2zj+y4pxrT3i03mWkvGtk2NWNWQR3C1cvxgrKPiJ9TrYDDTB8sWPrJTHFfHlh4+gpp6gfK18eWZPPHY+ifH8Wea118mzI5tgk7nfulADG6vX2Rz43yUzmStb+6eirZ6GaHBexwB5ZC745IuB3CLG3qllhHNJwg9YGBp5xtP2QELNOPDbj2UnKNYxUZsUUR1iJuWgux7DK8P3eV9XWzVMuTLO90j3E7uLiST/ADXujIBBIyAdx3Xjv4hWJ/D/ABRcbZIwaIpS+GQj6o3eZv8AI/yT0jFEAHBO/qi0qRG04OTyzn3SCPOQRj0QR6gfhH0ITkOdiNshKqWYp3nc43/mjhH4bD6JA9Y7lU0Be6ncRuMhaSHi+X5mBksTCwt823MkrH0o88o7FLnGJos9f8qymOtRPp6tgdC9r8DOAVX3GwwTxVGlgjNS0B8sYAc4cxvyKwD5JIoJRFI5oLSCAei0HDXETqSkDKphmYTzJ+kei3OozhNJwnHSTvfPJ4xB8oLcfy6/ZPvmaZhBb5aNsmcZc8B4Pow7591p6S4UFY0eDM1jj/y5Mf1Sau3RSyMkkiaZIzljyM49jzWv54RTxwCmieY3EyE4fM7d7z136BNN3PkG56q1qKYljgNgTn0z/wC/RRXReGwOeNvTcfqsXWoYji6u3PdG+QDIYNRT7KaeoHlboZ02VwbHBTUYe2rc6pP1xuZj7BYtxcZkMklO+cKbRWx8rgAwk9gFqLFw1U18rBDESxxxr6BdQ4f4UpbbG0uYJJ8buKxN6VgbDwVUThr5m+Gw/qugWbhyloACIw5/7xWijgDRy2T0cBecMblanMiIbIsDZS6ajfLvjDe6sKeiazeTdymBoC0I9PTMiHlG/dSA1KASwExCWtS2hGAlAKgAJQCIJQCAwlBJRoFBDKRlQb1d6Ky26StuUzYadnc7vPRrR1JQSLlcaW10M1bcJ2wUsIy97unoO5PQLzxxZxXBfr9PcDRyVTc6KdtS7THEwcgGjmepJ6lVnxJ4uuPFU/iNq46SjhcTFAMPDW98Z3d6/oszWXiGnoo47eXVNU7DW+KMZPcpkvsls9N3b+L5INLZ7fAYuWIyW4/Vam2X+21wDIqjwXk58KY6d/Q8iuOWWpuMsz23UUkLQMjScOd9uyVU3+2wzvildLoYdLpWxlzAe2Qpfi5sWfJ1HecYGf5qHcquOht89XMRpYMgdz0C5ra7tXUbI30NVJ4TgC1jtwQfQ8lef7x0lwYyK+URcGnIfCSMe7f/AJXHr4Op68uvPy832YgtNy4lk+auU7qekO7Yxtt7dB6lauxWeitrAbfSvkfy8V5/oT/ZSLbW2+vc009THNG0bRcjnuQVPuNW2lpWyyOA1Paz/pyuX1s9ussGI2MIlrHsLxuxmcNb+vM+qicQ0tRcrRPFb6hrah3Ih23t6LinxIt3Ez73LUyGumoicxGlOW47qBwU3iwX2F1v/ahgyDL83nA7nJXT/HM9uf8Ak85jolg4NlbPrujMPB/0zuPcnqug0VEyJgDWjZMUNxinpp3yvb/w79L35wOWcqoufGVHTWsTQu8WWQubGxvN2DjJ7BcnRcXm50lqpXyVLm6cYwd8+gHVYSPiq7yB37HtbRStzpAjyopj+YlFz4pmcyI7x04GSR7dAt9abjbXUMMkL208Lh5GyjwyR6A9EGOo+IGXqY0V2p20VfjEUuMAnsVk6q21/wC15GXRhErDsB9OPT0XQuL22SvLaapqY6esO8MuCN+m/IhVtgurae6QWziiEOlhcPBmdye3tn+i1Gepq04M4VnrtD3tfFT9zzd7LrtooYrbTtipwGtCctvy0tIySj0+ERtjp6FTY4i84C9HMx5x6nybZz6KTDAGbncpcUQjG3PunAFpBAJYCACMBUGEYRBBApAkYJ6DfPZVXEN/t3D1Caq7VLYYz9DBu+Q9mt6rhPG/xAuXExfTU+qhtZOPAY7zSD+N3X2GysmpbjeccfFOmt5louHdFXWDyuqTvFGf4f3j/L3XFbvdJaiaW4Xaqknnfu58jsuPoFDrKuCgizL9ePKwFYa9XWWqlcXOz2A5Ba8csyafv96fWPLGHEf5WD+6q6GnLpRgF8rjgAD+iXaqCquVZFS0UL56qZwaxjBkkr1P8I/hHTcMMiud9ayou+NTIzuyD/LvXoudtbUnwh+EWhsN34ohwdnQ0bh+hf8A4/VdX4v4qtfCNsE9a4GRwxT0seA+UjsOg9VV/EDj+i4WgMEQbV3aRv4dODsz+J56D05leVuLuLaq93CrqZ6501S86ZKgf/6RjkAO/IdMlWRFr8SPiBcr7WyTTytdO06I42/6VKD0A6u/9lc8hZNcZnNjJ55kkO+/Uk9XIUNG+uIDC5lOzOXZ598Z/mVfRNipIRHG3GPpYFZNPRiGip6KEZYHO6E8yUllTI6QskkYzbOgYGkepOwCjXKvZCHnxGmUbOJ30egHU+n6qrtturb1VNawmKEnXref/wAj3J7q256JNOXG6GKcwwGF3fSC/P3OP6K94YhnuMbJJGZbI7DWhmkn1G/JXlHZaGgjbT0lPHPUg5kle3UfuSkVtwNMTQ2sCSqeMOkbyaPQ9B6rMt9mI88ENqlYyidJNfZHAsmjeQ6J3TTvtj9O6rHcOXqqr6iprY6eWSYb6ZBp357dFf2q2NpWOe93iTP+uRw5+3orBsWrOfK0c3Y2VzfYycXC9ybGKepDPADsslLsuY3tjr/2Vj/uI2Oj+coKllSGPDS6GQ5a49CD/RSr3fKW3NkghcPGjG4G5B7H+L06D1WUabrcWS10ReyIYaGgEtfvyI6gb7lPEPJquifFK+J/1tJB91TV1W0zRwlhBa3Bd3K0Yilqqybxd5MhzjjG5G6pLpQsNa9wJy3AKjSXYKmppJHyU0skT8HdpI/mFP8AxZ5RJO4ySEABRba38MnG+MDC1dotj2M+YmZl5wGNPRQFa7a6IMlkZmR/0joAtnZLTNV1McUTC+V+w9EVktc1VNHHGwyTO2AxyXdODOFYbRTNkkaHVLhlziOS57evAVwVwrBZ6YPe0OqHDLnFHxbx1QcN19PbxBLW10mHPiic1oiYeRc47AnoOq08ksdPE+SZwZDG0ve7s0DJP6BeKrpxk+58WXi6VrXvirqkzAtPmib9LQPQMDRj0W5JPCV3n418QwX/AOGtDNYz81TT3KOKdj2kadLXOLXgcunIri8d3tFra2KnZpaxxcW6i46u+euO3RQL7xBVTcK09mpLxC60QzOqHRnLZJJHndzxjzY5AdFkmVFCzAbRSVkx5uneQD7NC3z4TNdEo+KbO6oYZZJYmcnHwi7+hV7RStuLnm2hlUwfT4Bzgdz1B91yTx6XH49oZF6tDm/3V7w/SfNTCawSzCuiGoQwy+HPjroDtn+wIPoVqVMdBiY17tecyDZ2obtPoOiYrKxtK4MlLnZGzWc8d0im4jfdrRM6qbDJcKb/AO4azw35xjTNGeWf3hlpO2xTFHTiTEzsyySAEk/37Koj3OlaQZGxlz2jVodtnqsd/vDRyvc2aSWGUHDhIw8/cLdVjiQTzI6jquZcc0TYq6KribpbOCHj+IdfuP6LN/Y1Gus1fHKx8NO2Oqdglohl3z6jmQs1xHdxDqpqMgyO+ot9egWWbHM0xyxlzX5zGW7OyOoPRTYaaaSoAc10lTLnDRzPf2Hc/os26uEU8QaQ6Ql737YYMlx/dH9ytZZbNoLKmvaDIB5IObYx69z6p+y2llGPFqMPqiMAgYawdgrhjefb1KvMxLSmyYaS4gNA3J6Kgu9c54b4Ti2MkNaOpJ2ymL7d2nMMO7Af/UVn81dXKzQx73NcHkAZwBzJ9EtWR3anvEFLRW+32trII6WIQ6zhupx3cc9STusN8Rr26W5w0T5M/Ls3BPOQjJ/QYWYgZHcJaUVtTLBLTzaw4HkNQJ9jtzRVMjLtc6yV7HS1s05cwg4DWF3mJ+yzbpj1YeLP2NwHa7jcpHOlfSxMhhBw6eTQNh/UnoFwjie/1lyuE9ZW1MT7nMMgyHyRM6YH7o6DqdylcV8Sy1k0M9XoDwwU1HTBx0RMaNmj06uPU/Zc7rZ3GrmL5HSPccvedtR9ug6YWp4Ro4ae3SPLJK5+XHLixmS49SSeZPdW9+p6O0w0Qo6yKpjqItbfDB/D6aXDuFz9s51bbLQxvdU2ijk2Lo3Pj/oVZQxX1QhY4NkDZObn8ywd/c9FU01NUXN4YwOjhyPL3Z1Pr7q0ihhut3pKeufGyOSVrXyPdpAHd2Oi6j8KOGae98YULGVlJX0zH+POYnY0xs5N0kbAnS3Czlq+nYfhXw/BwH8OhNXM8Od8fzdUQNxt5WfZuB7krgvG/EUjaqtq5j4l0uEpkeM509GRj+FowPUgldq/2huKY7Hw/TW9rwJ6txe4fwN/y4gfYrz3YbVLXTuulyHmdvG135Qr1c/6xOf0zYLa+EvrKgNdPKADkZAGc7ZVxqle8NZpDvRg/wAKU+MvcGQsc9x2DWtzlV9wqPkYSMA1Eh0sjJxqd29B3PRZVU3+vFM7yP1Tlu2cYaP3v8LM08XjATEAtBwxjj9R7nutdTcB3iophVXKaGKSs/EYJDgPxsQ09NOMYRT8KXK3uzLTGRuMAw+YAdlr602KmliLQS4kuO5ypO4GAlljozh7S09nDCLGfRFFglOQtxvthJa0/dSGNw1VDkYx3KfZjAG+Uww4Kebg8iPVAdQ4thdg5PLKlcMwBlwjk/8A44Muf43ENb/Mk/ZV9Y/IZG05Jfv/AGWg4ep3SMgZEwukq5ZJAB+5EwtH/wCTn/8ApWer4WKSl4ao56v5mRzS0uL9AHPJyuj8JcPyXSdjImaadh3P/vqq2ltUjMMELs8uWV3D4fWltvsMBkZiZ+XHI3C4S/ZpZWKzwWyjbEyNoI35bq7ijxueaOOPG7uadaFuTAAE8xqJjU6AqgAJQRBGijQygggrb3Y7be6YwXSkinYeWobj2PRcj4s+EVTT65+HZvmI+fy8pw4ezuv3XbUMrN50ePq6iqKKpdT1kEkE7eccjdJUbQvWt+sFsvtMYLpSRzt6OIw5vqDzC5JxT8I6yl1z8Py/NwjfwJDiQex5FZywckEfon4ox1Uqqo5qSodBVQyQTN+qORulw+yS1uOigQWbJPhqTp2QDUVH8NEYipYaj0bclBC8JJMSnaERjymqgiPCy/FhaLxSMOfKzJW0bHvjusdfnsq+I3/MM/Dhj0+Vb49pWRnlMtdXykud5gwE+igPyHZaSD3Clxeaic8f8yQlRXhdGFlauIK+2yAwzOLf3Scrd0HxApK+np6W6QNGk7uwuY4RBoKujubKWzVtDUOppg6Rw/DbncH/AOVT1/DlbTxmTwXujGDqAyFy2kraqjeHQSubp3xldF4Z+KdTSMEFxjEsRGkkjKuj1OjQQUBHkuUfHXg597tTLzQReJW0LcTRt5yQ5ycerd/sT2XVikO2GUweHKuGN0sngBwj1eVryCQOmehKaEeWjbl6YXbPi/8ADplJJNfOH4f+EJL6qmYP9I9XtH7vcdPZcikgDGamkYPRQV1RH+A8Dsk0jC6la4cs4U18eY3D0TNoc4U0jcnSdnDuP/YQQ6Zv/FztPdCtbgxEb7ndSA3TdHgfmblFcmARRu7PCA5W5if/ANJSbef+Fx6qTozF6Fv9lGto/wCHd1wUEludQIJaR1HNWdvvtfQbNl8WP91wVbo2259UMEZSXBsKPiSjqSBVMdC/u3l+itWiGpaXUz45SerTh36LneBjf+iXDJJC8OikczHYrc7/AFnHSKO6V9uaY4XjRjGiRgOPY9FZW2/0z6lgvMMxiHMwgf0P+Vz2i4iq4cNqMTR46jKsncRW4wSSPjkD2tzpYcaj23Vzno8x6CsN/wCFXU4ZQ3Gmpx/4c34bs/daGmqKKox8vXUkueWmZp/uvMFFdrfWM0vd4DgN9W4J9E/JLbo3xh1TF+JkDA7cyVPrDa9WQUGRlxD/AEac/wBFJERYMBhA9l5Xga4t10lS8MPJzJS3+6Oovtdb26W3a4eL0jiqn7e5zgJ9V16mSmrzFZ/i3f8Ah+GRlQ+W5iolYIo58yuj2OQDkHf+y7R8N+NX8VmuhqKRlPUUoY53huJaQ4kYwdwRjkpg3ASgktSwgMBKCIBKCABGEAgEBokaIoGameOmp5Z5iRFEx0jyOjWgk/yC8m8b8UV3E12kqquV2jJMcIPlib0aB7cz1K9PcWMlk4YvDIN5XUcob76SvJVTTujkcXkcs++UFZC1vgBxGSRzSZWN8eFpA/Mf5J2kGqjZ7Y/mq+puEQrdDCCIQRI4nABOABnqVBO0jfHQ90drqainotME2GPJdhzQcElCJzJYxIwbH1zn2KRQNApIs77JBJqblUVckFNXzSinyXPMGGvdjlv91ZWmqpKGaSOW5VdRC5o0fMMxo779SqOQf8XFj9x39k5Js13staYu4r8zWyR1DXRQSH8GdrC4P3xtjcLZUHEVypB4TniqhxgxzDV/3XNrdU1ENI1lPUyxMc0ZDHnBTk9Q+tqIo7jUVLo42lzTAQ12c4ye6bL7Js9OxW/iSglGNU1tlPMs88f3H/wrCWluFxhc9t4jmpQM4pYvO4dgM4yuR22sp4YpWVNzlncDlj5o9JDccs9fun7XxPTNqG+BUVNJO4gML2lmrtgjY/dc78XN9Vvn5bPa5ulVVzyfsqjpqini1Z8GQESSH955/wDYCmRU9DZBGBmsuZwBkZbG7sB1KsaPi+pa0MudPFWxDbLgGyAehT9vgsFRLUT2yskt9dLHojFSctiJO5aTyJG3Ncr8XXLpPklUl1r20BL64Nqrk7cQO3ZD6v7n+H9Vmp5Ja+SaorqgGZ3MyOx/8LX1XCVZRkySQGoYTnxYjrb7nqoNLwubrNJDCZIc8zozg+qxi2qKhrmOp3Wm9OeaNx1RTDzOp3dHN7t7hXkThIxtj4ic0ODQ6jrmnIweRB6tP8uSzl+4duHDVU2luIMlK8kwTtHlPt/cKXbKuPwf2Vecmjzqimb5nU7j+Zvdp6hXCV0Lgji2u4augtd6ORsGPcfLK3pv37Fd8ttVT1tIyejcHRO/UHsfVeXo9GGWXiUgxkB1HXMOQGnkQerT/LkVp+CuLa7hK9m13WUSR5DWSEkMmb03PXsfst89Z4Z653y9BpQUa21tPcqNlTSP1xu2Pdp7EdCpK7xxAI0QUG9XegslA+sutSymp27anHdx/daOZPoEFgNzgLnXHXxOorJ4lHZvDr7kPK5+cwwn1I+o+g+5WB46+JlffRLR2rxKC2HyuwcSzD+Ij6R/CPuVgGDkBstzn9YvX4sbrdq+9VT6i6VT6iVx1an9PQDoPQKju14htzC1pD5+37vuq6+8QMpGuhpHAycnPHJvssZJPJUOLnOO568yl6zxFnP6n1FdJW1J1yE6ju7/AAnOEuGrrfrjDbaCmklq5TsP3R3J6BW/w84QuvFd7hp7TCCI3B8szx+HE3u7/C9Z8IcNWvgu3ugomiaulGaiqcAHSH+zR0H6rnutK34ZfDm2cCUDZpNFTd3t/FqSPp/hZ6evVVnxJ+JjLSJrfZnxvr2g+LM4gsph1z3d6ch17LN/Ez4oAMqKSy1YjiYCKi4A4AHVsX9NX6d15/vV0fM4Na7wqZh1CI7lx6F/c/w/rkqyYntK4g4hlraifLpXsky6WaVx1zk9T1Df6+gVVQUD60+JK0spugAxq/wFIttsdUu8eszgnU2N3M+rv8K3kmDfLGG56kcmhak3zU3PENuxCAyMDV0AGwVTV1ILnMZK1m+Hzf2b6+vRM3K6RNe1upxpycvLNnSD0J5D16qgmE1bWva2N8bS7DY8HIB5NCl6WRb2ylp7jeWxukkkgaAGhrdiewzz9yt1b7XC+fwaKE6xu+SR+Q0DqTywFUcNWJ9LC6WTZ3N3mw2MD+Rd/lSbrcZbuHWfhoSNt7SPmaotIMh9R27N+5SZ/RYiir6wTssEoqKEnw3VMmGkvH1CPG5Z77qVSWKS2wOLoXbDXJK8jcAEkn0HZUUYudr00VE2ZlHGAWSGMyEk884I67qLVXS/VsU1JPFKyKRpbqBxt+qzbi410cbnxNkkD4o+z2ljvbSd1m+JuJBCHUtvdh7NnSA5EXt3f68h7qhqr9XGlfDLVvlnecS1JcS49NIP23P6Jyw2OerkjcIRLK9zWQ0w3JJ5Et5n269dlZbfSZhqy2l9fUxGdj3NkP4cIyXSEnmeu5+5XXX8BcQUNA2QUDXRtZqeIpWksAHJwyMYV3wbwVdeFpxd5aagrXCIumZJP4b4T1cHkacgbduy0cnEPD3FVrbBXT3CgpfEBkDmFkcmD9DpACMfcLrzzjF61xwxwu88kTc8g7l/NUVbwwyR75KWpcC45IkGR+oXpu7PrzRU44ZtlnulrazS6IyjHoG48uMd91S8QcK8P/7vvuVzpP2HUCPLm00utrX74bp5OJ7DH8lbzKTpwG3WuOjazxQ582of9AHclbyw2matlYImmWR5wNO4U2n4DrH26mqKyut1BPVDVDS1cvhveO++w9imTbuIeDqyKrxUUDydLJonB0b+uMjIPsVy6+PfTU6du4J4Ris9M2SYB1U4ZcT0WtIA2C4BJ8YuJKenFKIrfPVv2bO+Egs9S0HSf5Kw+DPG17vXHFba7hcJrhSOp3yF0xBMcrSDluBsN8EcuXZT6fWLLrf/ABXqhRfDriCUlzQ6mMWppwW6yG6vtnK8TStwXbg74yOq+g1Xb6evo56WvgjqKadhZJFI3U17TzBC89/Ez4DsoaSruvCVUfl4WGWSgqXZLWjn4cnX2d+qyrz/AG6hFZVaHvEcTWl8kmM6WDmf/fVSK64iJzqW2M+VhbgEt+t5/idzTsAMFDcQ8FrtUbHDqBr3H8lDbHl8jhsXOLs/dFJhnqMEmeXPq4lSosPc1+fCmadTZWeXB9ccvcKTTU7HRjUMh23mO32PQpbqURl2lpaMjAJyUEu03a5W+7NrhKZaiPIPjjxA8EYcDnmCFeR3ilFypnxNNM2pcXPgGSI3N54PVp546KgiaHxjuNgfRV9PUE32QvaWthboa3PQnc/fZalTG74julPReJBAGSVT8ODRvoz+8f6BZXiZ8VVb9LgHPgkblgzlzztj2HX3Vm6CGGA1jPxNZy0jc5/yhQwPFO6QBrSX53O5yt4zrKMs1fVwl7HCEu21vaf0GOS01itVNbINEQ1TO+uR3N3/AL7Kykoq35WOSSgw0E/jtheC775wcf3VZPcoYahsMnLB1PHQ+qkki7qzcwdcLO328tLDBSuJB2c4c3eg9Fcsnilgi0yskZPq04OdQHM/zwqt3DzBOZoZs9mybhvsUu/wipt1BJPKwFpfO84a3sux8F26gsVBUfMQxSyPiPzEz+Qb+77f1WR4cpoaJ+uZzRMdsnkAjvF1mnqQylmLaeJ3TlIe/wDj2WMtq2q7iOkoK66zyW+J1NA7GkAdepAPIeig0lPDZqaaYgyPG+RsXdgFYTPGoyuecAEvc9Yq63GS6V0cUAPgNeNDf3j3P/vZayQixdPJVPMrww1DmnIBzpA3wOzR/M+6oTIXkvJ3cclaSpopKKyTinY+aplAEjoxkgdfsP7rJxuxscIJbDgK7o5CeHq0b6oZGvA9CMKtorfPMA4aGNIyC92MrSWuw1L6K4htRSBr4ceaXGTkYHJJKazttpZrhWMZG/Tggl3RozzK9Zf7OXB1vs1Ddr3QSTyx3CQRQmdga9kbCcjbY5ceY7LgfD1ld4lNb6BviVVTI2PP7zycD7L1jf6mm+H3wzmdTgYoKUQwj9+U+Vv3Ljn9VrmM2vNPxz4nqL7x9cjRRCpp7TKKeNmnIIaPO446aiVg6rjy8Y3pKWPPQMdj9M4W4pqqEOp6t89TTXgNLJaqnwRI09HtOx657q04d+GfEHHNZV3q0R2822Fvy0M0gNMKoj63NABHPbUdtlLN8rHPbDf+JbxWRU1DU0dEZ3eH8xJ5Gsz3O+B64VfUU0oudRBNW/OVjf8AVncdvXH8IXSrr8I+LKJ7/Fs1W7bd0bRM3A7Oj3/kFBr+Fr3VQGSbhCvpoYYwJH2+lLGkNH1Oa5uemTun1Vlq+/VU9PFRy3OokpKI4jjkdhoJG7gB3P3VrUcTyxiD9m1NNAWRtY/wpCQXDm4hxPP0Wbq7NRyTPMNzED3HJjqozEf13Civ4YuYjMkUQqIh/wAyE+IP/wAcptieG9h4rnfDFJX22OtoneU1TWeXI2O47d1FuVdbquUvoaRkMDBl0urn7BUdoldQ0NPQS1IjfK4tOoYDGk75HYeqhcQV1LFUy0dskdPQwuLWylujxcbZx0Horb4JGzdw/VGy0d2p4pH0VS3U1xHI9R2VW5u56nkR2Wg4X+KsNntFNbG28MgiibGdR8ZryBu4tJGMnsolZcbZeap1RTVVugkd/wAstdCf55H81IqpGRsnWZwd1aOtlQ2PxDCXxf8AiR4e39W5UKcCNju4VwV7dTqiSXTqLBhre56fzXYPg5b45viIaZzS+G1UDoM9C4Ya4/d7nlc34ega2op6iob+BDrq3kjALYxqx65cGj7rtf8As500tXBebvUjzvcynDsbuP1u/qFjpY6bJZaQuyGY9lNpqYRxgMADRsApojHqlaBjssYqOGFLYw8yE6GJYGBhAgBKCUggIId0oIkUEEEEBItkaGEBIBBEgq79w/a79TmK6Ukc23lfjD2+zuYXJ+KPhTXUWuexS/PQDfwX4bK32PJ38l2xGFmzR5Nnilpp3w1ET4pmHDmSNLXD7FE3GN16c4h4ctXEEHh3WkZK4fTKPLIz2cN1yXin4V3Kg1z2OT9oU438J2GzNH9HfyWMsVz5uM4TgxhMSNkgmfFPG+OZhw6N7S1zT6goxJ6qB3CGkJnxEtsnqmLqTSsb8zH4gy0HJC57eXxipvVVES0N1ln9Fv4TrLhrDPKTqPIbLld9dLFaak4JbM/wy4cskrfCVWQxYtkA6luVXVGQdloKmHwqeNg5BoCqZ4tQyOi6MojeQ3Q6oDZxGNkWNyCgNvNHpygBhKAwg94okEMKoI8lXVU7nEt5KfI3UOqjTQl4w4Aj+aorHSYJDt++Vy7jL4YwVtQ+rsDmU73nMlK44YfVh6ex2XUquERMLtQDezllbtcqmPLYWOiZ+8RuVM1Hny82WttFUYLjTSwOG3nG32PJUdsZpM8Z5tcu8VlUJI3MqGh7DzDxqB/VZauslpkbMIaVkEkp1GSPY5/p9ksxXLJxpuULv3hj+aXc25pX45gg/wA1orjwtMayJ8M8To2ncu2OPZQLha5xSyt0Oc855EaSOn3ysiFTnVAw9MYUW2jBnbjk4/1U2kppW00Y0Entjko8EMkFwq45GlpByQRyyqHxsc4RkDPl/RKQwECMeiAA9k4B2OUMbFAgNzkc01Ut/wCFmwOTVJDAkTMzDK3u0j+SobgYHZ1AHbZJmaGzRYGxDgf5JVN5mNPdoQqR54T/ABEfyQP075IwwxyvbjoDsrgeZmdznqVTQ/SD1yrmH/Qb6hA/Q5E0mk48o3xvzPI9Oa6v8AZNN7ukTRhjqYH9Hj/K5baqeaqq4YoY3zSSNLGRxtLnE57Dmu8fCvgmusE81yuj2RzzQ+E2laclgJBy48s7cgrEdLZyTgTTeScCBYRhJASggUEYSQjCA0lxRk7JtxQIcR1AI6g9fReXviNYZrFxBVUegilLvFp3Y+qI8t/Tl9l6ixlZP4h2Ch4gtAp6h4hq4zqp5w3JYeoI6tPUfdLB5UohiJrd8gkfzVDV2qWOvmDAJIZ8kszguA3/AFBXaL98NKmgo3VdHVRVYY0yTDHhlvMnA6j+a5zWQubUwyYyPM0+5Gf7KCqs7i2LwI4ahkUbSXPmGCXE8h6BTqIYpYv+kKQd489OSj0P/wBLD/0opDh/xkX/AEO/qE7K3yPI54KQ8H5yMH9w/wBQnZh+FIR2KBumb/w0f/SEkk/OD/8Ax/3TlKP+HiA/dCRj/jT/ANA/qUCqog0spP7p/op0FfVRxQt8QPEeCzxWBxZ7E7hQawYpZf8ApKdAwAFfSJX7Qr6+tLIa2noDG0Ya9mWSuOdiTsFdUL530r31/gRyMcQ4xOy3A6nssrFk1c+3Rg/kUVW0NgLW7Me5rXNyQHAuGxwrOkx0GyX2pgjEtqr8xf8A9N+pv3b0WmoeMxI0suVE12rZ0tOdDj7hcqphaYquGpjp5aSVvNsbjo9OW5HoU9UcSRx1j2R0cs9NHtJPGdwfQdUs569ktnp3NlXYuIbQ+2SeDPE8bRvPhTMd0c3O2QuY3Tgq6W6d8bYXVFPk+GWYD8dPKefrjKjUVVFWU0c8DnPhfu0uaWn+avaHiOvoGeG2o8WDrDUDxGH7HksdfD+N8/JP6gcP01VVEWK40FTJTPcTE8xkOpHH84JH092nYqVUQmA/sLiUYa0f8LWDfR2Of3f6LQUPFNHPhsk1VapD1Z+PTn3Y7cfYhS7vHFcqHXfZaB9mia577jQyEyQnSdJETt93YBGTnK43nqe46zqWeEHgriy48IXdtvujx4bsBkjj5JW9AT/Q9F3Gp4qs9LZf2pWVjKem5Frt5NX7oaN3H25815dfW1E9jpYZ2tmpNTjFIWguZgkaf4eWceqjyyzS08WmXMmMN1u8QM+236Lv8fx2e3HruX07LVfGqMCqFJZJCcfgOlnG57vaBt7ArlN/v9fxBXvrbtVOnmHlaDs2Idmt5Af1VTcZmUcsUdS4Q6o9bi7YA+vUZxndMOAMBqY3NkiaMmRrg5pHqQu0z+Oe0+alrM6tgN8k4CzV84mDmPp6IkA7OeObvb0VtXU8dyoPDbIQyQBzXt/kVk5eHqykJfpE/wDGzp9lnq3+LzJ/UABzzqk/RbngHgaXiASXG5VLLXw9TuxUV82w/wChg5ueewSuGuEWRWpl+4iaWW9zi2lpA/TJWPHMfwsH5nfYbq5vFwrLlHTuqJYmUsDdMFLT4EVOOzWdPfcnqVmc77atdf4X464JstvZaLJ8xbqVm3jTwEeMf3nOGSCfUBc9+J/xQbXeJb7dM+KhJw/SCH1A7n91npzPXssDdLnBbKQS1P8AquHkiB8zj/j1WJq62StqpJ5sBzug5Adlbk9Mzy0jrpbbhV07bjBUtpmOA/DkHk/ix1Kh1rrXbuJKqGOSSamhfphmI2P8WFTNOTjuivbSbg53PW1rv1ClqyNY+sjdE50UjPCAy6TOAAs/cri6R4ggY5+ojTFg5f6uH9v1VXRyCOoj8V5bFrGoD3WuoLZZq+qd+wLixs8ry1tPXHQ/0brGx/unmnpVWiyvmnFRPIXPDtRPQu7Dvj/4Wwt9vo4ZXVUzGs0AufKfqdn17+qkNoH2ula+5gRsDdiz6HkHB0999v6qokkmvUufNDb2/SG7F/t/n9Fn6rp2srZ77KYKUGC3sd5nAbu/yf6KxoqaKkj0U7BGOuOvqe5SYGMhY2OJoY1owAOilPdHTQOmqiGMA1Yccbdz2C1JiHg/REXzOIYN/qIz/wBliL1dH17Z46AONNG3VJIDu9ucbHo315lIvlfcb5Vx01HFJFRve1gkkaWNlJ5ZJ5NVyeB73bS+rq7f4zG489PKHDHVzdufvyTLT0prBZKmqq4444fGrXkNigDc6M8iR1PZv3K79wfwJX8M0/7Rjr7eK0xk1HzkJexg5nEgOQe5x/Jcy4au8lkq/mbTV+BUaS0iaIZweY3zldDoPiV8zSOpuIbTT11LIMPMJ05Hq05B/ULpzJGLdaCmvsPFNrmprnYLlPbxJpdU2/W+J5aeY+lxHpg+ysZOKYoq23WPhOlimlI87JtUEUEQ5gggHPpg/clV9RxxRyU9uoOFBT00smGa6xojhpWDuM4JPp/Va2+PtX7CdV380dXSRMGuUsDmud/BuSCegBW2ULiO32S3Uc9yrWfs+Ro3qKMmCVzugGnGok8gQVibI6grKeGv49vcsz/EMdNRzl7TCeet4aAQTgb8vXok8O2C53CoZcaOoji+XndLR2u5tle1rDyOSMA4xj9Vs7lUfNUrhxUyttVO1pE8fiCSlnHQCUAubk9NieW6YM9e31/7Plr7q3hzia1R7mbxBHMxpOwDs5J9NyVheL+K6i8eHqiZSUFM3TBSRfRGMY+59VDvNe241DPBoqSjhYCAymYQHHO7nFxLiT68lnq53jziHP4bd3dNuqzasiJU1boKWSqc8ConyIyfyNHN3sAuuf7NTGy3kmNmmKG3OeM8y6R7ck+pwvP/ABNXGolEMQwZgAGj8sedh/5ufsB3Xo//AGW4ZXi51FSwMkbSQxYAxtqdj+TQuVrpHejso1dTtq6OeB50tkYWOyM7EEH+qhVt0eydzYGNLAcaj1VffeIG09u80bg9xxhp+r0UV4+47s09i4muVBVAfiHdzfpcR+YehO//AJln2QGKRokzodjBPLK7/wDEGw/710XjjAuEO7Nsah+7/wC/bsuXWb5KmndRcRRSilAIbIyPW6I9nM2L2egIc3mOykJVLAwRtON8hPDAIcchrd8DPPkl1lIYZXOtz21FLk4IfqDR/wBWM/8AqAKgS1vhMJljcMDvtnsipOA2SNowC44AVTUR6eIKpwBwIWuPvsrK3Mlme6srAImBuI2nbS3q4qLjy1NXJ5H1DstDvysAw3P9f0SCZXymmsYeXFwyx2O2SMlO2i/wNmgdWwmWFp1HRjJ+xTAr6K4U7WF4bM9oL2NcGYP7zQebXDfHTdQpLKGHVS1Ph/wytLc/fcfzW9/Gc/XVaz4i8PzWN9I41kZaBpb4H69cLkF6vEFZXAUcLmAybPeMk+mAm7nQOpKYy1c7mkgiJrWB/iu7ZB290vg60T116p3viIa0ghg/M4nAH6qbael9QWept9PHcLnH+PVantEeHSkHszIwPXbKl09xopGNJn8In8s7XRH28wwT91tb9aKKlpqV0shlqZDokdny6W7uIOeQyB98rlnEN1n4mu3gsldFQRjRE0HDGMG2r1J/ktXwk8tDc6sQ22pezDQ2MkEHO/T+azreJa6mpYX1tDSSMkOGuI8N5xz+k/1CtJNFup4YhR1Dra1p8V1O0Oc1o57H+ZKy4jdUyGsrgA5w/Cj5CNnQ4/p+qluLIkXq9C5sZDRxSU0GkGUPdqJd1GR07dU9Y6Hwn+KWjJ2APMJVms01TLiKmkIzkNAyfcrUyWG40NO2oqqSaKA/8wNLmt9yM4SQ1Dfr0eVxDhvkbbqquOKp2mSGJ8zSD42kB3sSOf3Wpms9VFbRX6BNRZDTLE7IaT0cOY+6qpzT6fwmDHfO6tSRU0sTw76HO7nktDRuDovCZkHmQVVhsmryA46JyCaSOuY57sbHUB2wpq47P/s/WAXHiua5SszBbmZaTy8V2w/QZKuv9pG9iSotlihdsz/i5gO+7WA//kf0W4+C9mFh4BpZJ2hlTWA1cxPTV9IPs0D+a4BxRV1vGnHlWLW10tXXz+HABvoiB0tP6DI+55AraGOAeEKnjfiVlqpi6OjjIfXVIH+mz90fxHl/7K9a1ElBwlw3HFSU4ZTUsYip6eLGXY5NGSMnqfuVgOGOGv8AdOG12O3PcyMgzVdSw48d4adbtecEMyMNODzKF1nrb7cYKeCbx6WJojjkleWkgfVK8gFhzjPIbbLN51r0tuCa2+3W7SSPrqgUcb9c8c0AAyeTG5GQPZxwB6pHx34sZw3wVPTwTabjcQaeBodhwb+d/sBt7kKVSzwWalnuFTP8rZLXG/xCW6XPd/knHLHMBeXfiDxVV8X8R1N1rMsYfJBDnaGIHZvv1PqUzzoom36viBZI5lRGNg2dgkGO26FPWWqWTXNbPlpj/wA2hmdCQfbcKGdzySHaY2F79mt3JTUxO4mhoprU6ode6ySVhAipqqLU6Q53AeD0G+6orJRQT1Uba2UQ07vqc4Ej2OASEy8y19Y1zhho2a390f5V/BR6Ithv2wsW6saarj4buLi+urLIHkAZbTzQHHLm1uP1CrpODbLVZ/Zl5iDuzJWzD9Dpd/JUVY3njptsqaoBY7IV+xjUHhe+W2fNsrI5iOQgmMT/AP0uwf6qLdLtfoonwXhtQ3y7GaLBP/mwoVkv1xhmbTt1VUTiB4L8uz7dQfZaVkbuIITHTTU1RG44ZT1FV4Loz2GSB991Z/oOWq8zV/A745442ik00bJGtwZBJIZXZ74EQHsvVPwgs/7G+Htoge3TNPGaqX/qkOR/LC8ycL2ITsslihLnOrrk90m4cA1uIzgjYj/U39CvY0QbFG2OPaNgDWgdANgudVIDQhhNtceiWHFFKwhhEHI8oBhBDKCAkEaCgSgjQRYJDogggJEjRd0AQRIBAaARIZQU/EfDNp4ih0XWkZJIBhszfLIz2cN1yPin4V3S3a57K/8AaVMN/D2bM0e3J3239F3NDKzg8jytfDK+OVj45GnDmPBBafUHkia7C9O8S8LWfiOIi6UjXTYw2ePySt9nD+hyuQ8UfCu7WvXPaH/tOkG+lo0zNH/Tyd9v0UwY2mlENDcKh7Q5rIHDfudgsFeyGcM0FIW+eoqwc+gWnvT5YbXUQODo3OeGPY4YI9CCs9dJxM6wUEkLdcbnza+ula5FddWYJA5BU0jeavrozzOwqd7OasRXPjB5hNGP7qbMzy6go7tuaBnSgOZwlE7FJH057IPeAQRolpATFRKI8Bo8x7p9NyMbIMOGUFZIwSEl51H1UWaghkBBbz7K0kpXDJYcjsVHc1zD5gQrozVdwxTz5IAae42WfuXBjhERTAl5/Md8hdCJ2RZB5qDitVwrcmvIcAGjq4rN19tqWFzZYXBvq3C9GFjHghwBHqFFltlLLzhb9lMg80y2otcDLG9np1T8dHDhwLGOLhgkjcj3Xeq/hOirDqe0F2MAuG/681S1nAcXgubTNAefz539t+iz9arkDbFS1Bxgs/6XJ9vBfiEGmrWAH8srD/ULZ1nA9dBkx4cB3y3/ACFWPtV0pHbwy4HVo1f0U8wUEfA9wEgHguez96FweD6HkR7qhrLa+B5a+Cenkz9EzC39MrpUFa2Lymsmik7TRf4VnDdKqSPQX01ZEebS4OB/8rklo4pJFJEfxWOaTyyMZSCM5HfZdmrqK1VkRZW218GobmEFo/TcfosvU8EW+Z5NFdnR77Nmiz/MFalRzeh2jjHYYTtY0GKJw2cJBn+a6JTfDSE0Erhfac1wJMcfgkRu7Auzkfoq+q+G1/dHpibRTbggsqmd/XC0MdB9Jz3VrAc07dwMBXVx+H95toYJGR1DXnJfSkyhvoQADlNWfhe8V9R8tT0rw0HDppQY4wO5J/oMlTRofg9UeD8QLWW8yyZv6xn/AAvSFJL4xOBhw5hco4H4SpLHVMdCWVtzc0jx3HS2MddDenudz6Lqdv8AwI8OAc88zlWIsmhKCZZMP3SE62QHuFQ4EYSA4JQIQKGyCHRETlAklJwl4QwqItdM6np3PY3U7ssZV1EkkrnucXf2W2mgEhJ3B7hV1RaY5nZe0e4GCiMm+RksMkUwzHI0scD1BGCueVnB9ogrctq5p6UHPgOxsf8ArG5C6peLT4kT46XLCdtQOQfTCyv+6tY5z9T2hgGw33KYOUX+20dDUGGEPZA7drn78+e/oqCK3VMNOwluWDO+d8D0XTb3Z62GZ8fgPlYNgQ3IPss7e7PX0sRfVU8kbMc3Db2WarEOGKxh7MP9U9LjwJN/ylO1VFKHh8eoOaOm+3qmnNzSFsmBLpOfdTVFTf6EX/SEkD/in/8ASP6lN0VQyQNjGpsgbktcO3qnmuPzLhz2Bx/dUFWj/hZPb+6eA2SKrekdscnH9U7HghER6cfj1B/iaP8A8Qiqx+HGO8jP6pynGJqg/wAYx/6QiqhvAB/4refXmgd04G+CDthFbKuaGnmjDWS075Hnw5W5AOcageYP/spm6yyUttqJ4d5GtGnIzg55qjp7gaOno5WxOkZKMyykkkvzuOwKDf0F4w0R10ZGPKHsb/UK3jfBM0OjljLD67rKtiGNb36GkZyev2VbcnAeaPYDryJW51U+rYV1bb6QEy1DAf3W7lU9zueqmLW/hROcAe536rIOc57iXc/VWlwifV0ADHfWAW5GP0PLPvhPtp9cXtnqo2VbfCqhFuNnEAOx3B2P3Wzq6qDwJS+Sgie+Ma5GtiZt9htyHJcQqPmqfyVEJOOR7qtqZX41PYWtJ2yE+59Wx4iu9FFM9lPMJ5HPBMjNwB3J6lQ6SOS5OqZg00drcwte5uGGZoOfMe2yi8IWU3quje+Etp48Aj/xXffp3XQL5baeJsUdbO0RNbqc3HlawenJWS3ylueFZa5aSWBkVtmhlawaQ2J2SB7HdTIiXk5yAOa5/dXUVdWiKw20RAHyO8Q+I/1AzgBbaxUNXBRvhnq3VMzIzLI98nlhYBucnfA7qypYhUnEVoqciSpkpZ84Inbln2I5BFfrxDaYYy10NRNMwPiEbw5uk5w4kcvbmshK+Or8WC3xNZRxnV4z25e498+vb9VBkpn/ADAi0sLx0ZuB746rN6qzkVTUTVcz6mre573f+/sEcZPdXUdgnmoneE9gmJB0uONQ7A/5VRJTzU8xhmhfHKNtLhus5V2HWO2Tl4P/ANK/96EfyOFKpbRVytBxEAejpACrGfhe4zU1ukmbHHTuL2atYcWgHO4HfOyuUlZygoZ7jUmKlHu7o0eqvq2z2y2OiqZp5XNjcwS0snldL+86N42xnoeXqtVbaCGgphDTsAaBknqT3KjXOkhqiGyt177N7q5kTWTddK+smNFTQvdTCYyxUPmLQcb4HPcc8c1KHG9ziYGSRQ4ZtjBGMdMLV1MMVyq6KolfJSXKkGPn4vqfj6Mj+EDGVmOI6ptdeD+0JRM+MY+cp4gBMSc6nA4z2ymWGn7dxZe7jVRU1uoYpKiVwYwZ6nlucAfqoV6mutRXup7u9vzDXY+WjILWu9cZyfuU021SzSCW31DJwdyxh8N/2af7K4rP2dUSBtG0Wap8NrHuqw+RxdjBIePpB9tu6mWrq0t1/eOGZOG618FTTPlbO9obmSNzcgBru+OePZSaK8SWxsbrVXXa36thHP8Aixj3zvusPceGbnGPHggbV0zQMSUjxK0fpuPuAo9Nd7lFGaXxpnxN5Ryt16fYHkrLYma6M/jijqJfl+JLTSTykZ8aE+G53qFPuFBbGQMktNXWNnkaH/KOZrIHuOX3Wc4JFVdbbNQPo2VjpnvkDZIg4gAbuzjLQAoN3uMVrg+St0znStGmSfUST6Bb3xqZ+NDrqIo2STRB0T86Xgc8HB9Oak0lz8B8b4ZXROjcHtyNg4cjjktf8Ob9w9UcM0PDXEFRQVdJHDqEsTTHPTyPJLgCfrwTus1xRZ7fba57bXcPmacnyh8bmHH3VRuLR8VLvGNFxjguEXIuH4T/ANW7fyVNxdxHNfaoiKSrjoAcx0005kwcfVk9f6LDimMYyZPD3zjcn9E+Jpm5IedA/e5q6iXWzilpnPdjURt3VDUPbBSTuqsiNjPGqSDvozhrAe7jt+p6JTqg1E7qifzRR7Nb+8egA75Wf42rCyRtojcC6J/i1jm7h05GNPsxvl9y5cuq3zFB4z62ufPUEeJK/JxyG/IegG32Xs3/AGdoQLNfKqPzF87I2566Wn/K8lcOh9M10j4Y5InjDhKwOBH+V7Z+CVjksfAFDHUMMc9STUOYemrkstHq231hmfLS1jgSc+G/YD0WY4gNWx7TWgteBhmPpd/Zdckp45QfEjaVUXCzRzxva4AsPNjxqCqY44a15cGv8uOioeLrdb66mM07QyrP0SMG7j69/ddMvPBflc+l1NxyafM39eYXN75wteIpHvfE+Qd2ecAfbcfoiOX1dsbHIRLECejsc/uExDRU7HB7ImaujjuR+q0Vypamn1CaN7COZ6KgnkmiJcwMdjfcZWa1EOpukZgqGNhbG2N2h8kjw5zz2a3/ACsneLhJWDQG6I+ozkn3V5V26qrZ3SOpngvOQI4yB9ldcIfD+tvFw0NhcHMbrDTjI7EjoM8hzJ2UViYbTLNSsdUHwnM/0zjzY7H+3VWNlEkNRHHFNI5jZCXk5Id5Thp6AdUriWCqpat8EwLJY3EOacjdR+Ga2ojrXUWW+BKdbwQCcgbEFb9MxeuoaWurjLpa+Zg0CPOkjHMgdSpNCKiijqHMjxO+XDfD/IwDb78/1VDPDUQznWCMu2OPVTqe9SwuMda0Thp05J8w9ndfurKWNEDNcbYKMPdHUTnwmuI+hnNx/kUcfDD6UEUjIXN2wB7Kmqayfw4quz1T4n+eJ2RpdgjcH7KLRXm50rwyTIaTjOdldiZU6tbL+14bWATVyscWxtO5ODjP8Pp1VRb6V1QfHqN4wctB5uPc+ipxcn1nE5r6t7yS8kmPc4AIwMLR0lypKxz4adxLmj6Swt2+6ntV7kwRtijGlg5joT3Pda/hu5TWyMSQPawPAEkbmkNeDyD2HILTyyNwojbfTz0DJyS5szdbGjALgW4dpP7zSM46hUL5JYn6HyOe1vkbqbpPPOwWdVZ8R3WGz3IVNtjLLdVNAnpyctIds5uPQ8lnbdRwvi8UvBaSdPtlUXGt4c6qjoo36o4/NJjvnOFHprzpo42NOnpvyG6SjS3SrgpYjowSBspvwzsMvEfFFBTSA6Z5Q6Q9mDcj9AsfRwS19wkbJKySGA4dIz6Xn0XoT/Z6tjXVFzugbhkDW00R9Tu4/phb5mpbkdL+Ld8/3c4CrDTDFRMwUtOwHHmd5fsAMn7KB8CPh8OHbYLzdY83esYC3UMGJhHboSOnQYHdZH4qcTCHjSzQ+DFWRWtwqpYJd2PkP0g+w3+4Wrtfxys8gxdaCqpO74yJW/2K1ZcyJyvuObhTTzuttvkpmVPKocyUQynkQxrsHPTI9k/Y+HK6kpWNlLnTTjVJLNpcWY5RnHMdSe+OyrrRf/hzcbhFW0dbRR1esvAkLosu7kO2J3Vd8aviJT2Wxm12KrikuVYwgyQvBEEXU5HJx5D9VMs8NObfHHjEXWrFhsz82egkPjSNI/4mcc3HuGnP3z2C5PC8xmTMccgewtxI3OnP5h2PqptRK6eNkYa0MZyAA/qmmQAjdKiA2IZ3TEkHzLogXYjfK2KNoBOp5OBsPdTblNHQ0rpH7n8o6kqNb4KintxuDmSGsjka6NrKprHN6jTHjP3yFirC7bQ6KiXWMaDp+4Kshhr8DrsqsXmMUMlTGySZ+Tqa0btd/F2WdFyq53uc+dxDj9P5f0WFaKsYdRAa7GcZwqipj3ON0VPVEEFzXA92PLSp8dQ1480zj6TMz/MJoHBhZTcSU1TM5rGU+qYlxxgtaSP5q4+G/B8vE9RAypkmYwuE0jwfoizvnPUnYKvoLOLlWwxwR+K5z2hsTHZD3Z2b/nK7xGyn4D4RlnMZnqQA6QxN3lmOzWj+EHYeieiIvwatkVd8SbjPTxNZQWYSRUzANmZcWtAPXk85PdegRsud/BLh2SycO1M9UP8AjK6YTSn10jP21Fy6KijaTnZONdlNhOMGxQLCMJIRhApBFlA7IDQwgEEBII0SAkEESigiQQQBEgggCJBEgGUWUESAZQB3RIkHEv8AaSdT67NG2GIVMhe58oaA8tA2BPXcrh7XfN8QNMzQw0lJhuBzyV1j4+VjZuNaSHOptNTAkf8AU4n+y5FYniqu95qmgiPUGMB6BFFcBknP6qmkbhx22VvX7OKqpHg80iIkoAaVCl2UyZw3UGU5JViGSlPe1lMT1zum3O3KjVL/AMPHcoPfrdxnl6IYVJwnfIr3bmTxkeM0Yezqr8AEZB2VQ3hDCcwENKBohIcOifLEgsKCM6CN3Ng+yadSs0kNJB7ndTS0pOkhBA+Ufn6m47psxSNJ8p9wrLShhBWFrmY1AjPdHkKxwDzCSI2YI0jf0QQMNPRNyUkEgOuNh+ysDSsPIkJBpnD6XA+6CirOHaGqBEkQPvg/1VFW8B0UmTCzQ7u0lp/wtz4Ujc7Z9kklzeYI9wngcvqOD7nS5+TrJQ0dHbj+X+FXvtt6jJE9LT1I9QAV2DUOwRFkbvqY0+4UyJri1VYrowOmZGItXKFjskfqhDQ3EaW+FWF56gNA/quymlp384x9kn9n05zgEFMVx6YXKkeG6axx5+UAj9QVa2mO8VzmthbK1g+qSbYBdK/ZdPnOP1CcbRNYMMdt7IKyx0It7CXOMkzvqkI/oriEue/yt680I6R7nYaR79lYRwFjQ0AY9FQ4x2eidYQm2xkJ1rVULGEsJACUEBowEQCUAgGEDlGggSmaguxgDy9cKR3RYQV+3VJLWHm0Ke6FhdktGU3JA0jy+UoIDqaA7lgz3USus1HXQmKpjD4zvgq3bTbHLv0SDA8bDce6DMM4OtEUb2RUcOHnLstzlZW5fCeiq6x87J3xte7JY1oIA7BdQdE9gyRkeiJocRsCpg4nxF8JnRQ+JZA902rGl5AAastP8Jr3URGaRjI5B5Q3Vh2O+y9LA4Q2PMBMHkGqtVbGXUjYJnVDToGG5yQf+yjRw1cL3srYRE4cjgjP6r2E6kpnP1mCPWOTtIz+qpL/AMGWe+tZ89AS5mdLmHBGUyjycKhkVTKx4kGXA6gMg5CfqsNdAXkNAfzJ9CvRlZ8K7FJRGKng0yhp0yucSS7uVhJfgvcZXuZUVcJgaMtc0E5PQYTyOcNDXRPa4BzSMEHcFUdPbnmFrqOpfSl31tDQ5rvXB5H1W0vXB9fw5UPpDTySx/UJWMOk56Kpj4fudsqI/wBqMqYKM5J8Ruwzy9k0MsZoiYzLnaQBknJKhVwy0jCupGQQkFjzNsD5D/dQquEyjU2NzR6hNFAIzlO/KVksQfQzPgew+V2cNd3BHVOuLGy+FG1005OBHENRJ7KTxMKiikkpQCHwnS4N2xjoRzV58hu3OnlMsFyYzxxjDox9WQefrsqye3sp/ErLm/URuI427DsAOin2Z8dXSkxMkbVQgeM7P1bnSQrSnroyfDuA57CbGf8A1Dr7rUyp5K4frYrbGGtDWu0gloP053KruKK+pudQKOHzPnIfMd8MZyaP7/YK0mtdMS1/hsIO7ZIzsU9DTQwh5YwN1HLnE7n3K3nhnUCz2eKiawwvxLq1SSFuXSD93J5D2UXiGeinlLGwF0pAa6dryzU3O7dvqBx1S71eY4WOggPm5Ocdtv8ACp6GjluDw+XUIT+r/wDss/6iz9ooIJK04haI4G7FzRgezf8AKuKO2wU2CxmCFIY1kLAyNuGjYAbJMk+nkcJ6PNPVOiKAmQ4HqOao66sbU6BLnw4/oaRqcPv29E7Vzh58z8gKDJURxkhoBPdS9E5W1kEdRIGuBb1AI5rSu0gNa0bN2AWItdQ+e5U7GHm7O3ZbCZ5zpZu4/wAlZ0mFSS4Olgy89EyW+GwuLgXfmceg/wAIjIyFji5wGN3OKpqyqdWO/dg5hvV/qfT0T15PZ+oqvFaWsOIe2N3/APb+qpa+jdLlwJ3U9ucp4xkx5A6ouM5R+JS1TS8FzWnl0K2dmrmm3v8AnY46qncC9rJjGWR/wnJ8TPsVU/Ltcclv3Qip4w4YG49Eguaanss58alkrbJU8w6Nxlj/ALOH81NmpbpI0ukprfxBT/8AiR4E2PcYd/VVTWs06dOAmpaqKgYZvELAOrTgk9grsZ8q6aoqqKtqPlGVlBDK0xua9xBLerM7ZCr6G2yXGtcwN0Ma7zyHk0KxrLvcr/PA2uqHuhhBbDGTkRg9ldWplXbJ/mbdW1NJUHnJC/BKxs10npAunCcRq5nWWucWNd5GVbDE8j3+k/qmKe6cR8Pvb8wySSmacmOYa4njsr+v4s4paCP94blKO0kgeP0IVTHxpdIJCK5sFVGfqzGGOP3G36rWz+JlTKLjW3VMmbpbnwk83UsmB+hyn7nXW+cxRW2vD2Tux+INLmD1SY38PX2nfOaAFzd5fAPhyx+uPpcPUYWe4hs9LRaJrRJUVEL9yXx40K+WfDYcS0beEzVTmVkz6ARsgAwQ+qe3LSe+huXe+FzChgdVVXncXEnU9x3J7n3Wr44cYrFw7Sa3PdM2WtkJ3LnOcGg/o1QLJRSeSOKMyVErg1rRzLicALHutz03PwxsDbpe2SzRa6Oic0luP9WQnyM/ufZe0KLLKWFkmBIxgDgOQONwFxT4McLNptFQSH0tASxj8bT1J/1JPUD6R7BdiY4jks7osPEAGyS9zXjnumo36ufNK0goG3juPuo01NDMPOxrvcKZo54STH3CDNXbhO3XNhFRAD2PUffmsVc/hDbZ5NTC5rSdwCP8Lq5bp5Epp2vft6IOe03w9t0YDDQQaWjA1Oe7P80YZQ8PGobQMpopuckzYwxkYHX1Pr0W9mcGwSF5LG6SNXZcb4srKyWrkppGtbHGdIjzkZ7nucbobjnnxIltdzuTaijp5JZ3kiaSR4DZMcnBuMgnfcndYynssEcwrI4PDDDp8x2PfGOZXTZaGlw41UMQPYDc/wCFGjtFLXvLjH4ULRgFpOB6BTyapLhY2SML2Na9jtw4bhZO5cOgklgwVu6iOO3Tvjpql/l54OWn7FRZayllOmoAjd++Bt9x0Q1hYqV1JQMZJzMjj/QKNVktpJj2YT/JaXiiONk1M2JzXM0FwIOQclZm7eS11bu0ZWlYqkqHU08crMam7j1Wstc/i5kiYJJnABzgNh6BZq3wxtLX1G46NWntM4lYcQRtYPXmryzUv9tXOxUsoaHS00jtboZ2amZ7jsqWt4uqqgOFNSwU7nfmZkq5qKxkMjR8u7A5hjif5LoHBvC/C/GFK6OURRV35TEfCm+wPlf7HB9VfrpK4kaCskHiFpkc7ckc1Ps1nlq3SCcOiDOQdtkrqPEnA1x4cbJOGCrt7HaTUwtI8M9pG82H329VnA9rpWxNaXSHfDRlZyxTUFM2ipI6eMDQ0anEHJcfsvTPwrgh4f8AhfT11UDE2SN9bLqGCAdxn7ALgdnpw+shjcWxh7msydsZOMrtnxl4ipLDwvQ2iDRN8wGtdG13/KaP7nC6ceJ5Y68uQXC6G4XSsrat4bU1UhlLXHBGeQ+wwFRVcxLyM7ZS75ILhMZW2+OmgcG7ufl+3bHdVj5C5x3UaToJTG5x8xDhpdh2Dg80KpjZmuZAHsY76tTg4/bZMwZOOZUxkbyRhpwN1UFE3TgJ9xDQS4H0x1SHv8Manxuz09UqGF9RE6QvAA5jsggzU0dTURyzN8zDlo6D7KWYnSNxJCHDoWnB/mpFPC5+SBsDjJ5ZU+niIz4heNWzZGY0D37JhKopbbA6USyeJDOAMTNzG8D3Gx++UHWRspLpDbqkH80rXQP/APWzIP3C1zqMzunZK+J8EOkeY4Jz1GOY7qvrrY+Nv/DgRvZ0HmDv+yn1XVDJZrTTMDqymuLA781FVwztHuHBpCr5qe0yQPda5qxzmkZ+YMYAHqGq1L3Nc+Odj2yD93kVacB2mDie7F0jw+gpNLpxjBc78sZ/qfRYskixtfhVwz8hTNuFUzE8gxA1w3a083H1P9EXG89ZfLzSW+31IioI3Fr3NO75eQPqOgx1yVdcRXf5OP5OmcBVTNydP/Kj5fYnkEj4b2z5/iyiBaTFBmd223lG388Ljerrbt9koxb7TSUg3EMTWZ9gpoCMNwEYC6IIBONGySAl9EBhGEQ3GyMBAAggEYQEjQwhhQBEjQVCe6JKxuiUUnoiSiktaGjDQAOeyAIIIICRI0SAFJQc4BNucSoDc4BN5JKCB2Geg3QeXPi/V+Nx1e5M/wCkGxj7N/7rCcHNxZqmc85Zyc+gWg40q/mLrxDV6m+aSUjX1AJH9lU2Bng8LUYxguaXn7lVb7QLk47qmlfsVZXFxBOFTTv59D1SIYmftsobn5ynZH7FRSefdVAJ23USoPLKdc7JTMpBd0RHoThS+TWS5MmYT4TjiRvcd13i118NdRsqYHh0TwCf4SvN45LZ/D3id1qqxS1LiaSQ4GfylZlMdrwjTUEjXsaWHUxwy0/2Tq2gIkEEBdEYCCAQFpHZEWBKQQIMQ7ojEnUFQz4ZSdDh0UhDumCPg9kFJ+wQwOyYqJ4bDzaEXy8Z6EKXob2Q8MKCK2CMdCUQp29CVK8MdEPD9UEfwG4xuD3Rtp253JKkaChoKIJoAGAMBKagGlKAVCmpbUkJQQGjCARhAYRoglBAAEeEAjHJAA0ItOUoIwgRpSdCeQwgZLSi0nspACPCCLgoYUrAQ0BBE8Nuc6RlE6JruY/RS/Dai8IIIYgaBjf3SPlzn6tvZTTF6ovCKCE6FzT5dwkuY8AkhTTEe2UCw9kFcWh4w5uQO4yqy82O33ikNNcIBJETqxkjfutFpPZNmFpOS3dByO6/B21VDi+gqJqZ/TPmH681TM+CBlmzWXSR0WdwwEk/qV3N0LXHby47BG2AjkQVMgxnCfA1l4Yi1W2ga2YDeeUapD9zy+yw/wAROAaS/wB3qbnQVrI6iXBlbKwiMuAxlrhvv7FdU4jqHUzY2OcS1zSdDfzHsT2WWjqHTOBfgDo3oFfXo1w6HhOr4YkrJbnAY4J2tayUEOYXA8tQ9D1wolTZPmTqp543Aro/xrY+o4bo4on6SZ8nHXAXFo5662u1PLixu5IK1zn9Zu/xKqKg8PVAp5pGuMjgPlzydnrnopl4iqXOewxvpaYgObI5wdq7gY6rnl5uMt0uslXMd3OGB2C3VPFLUUbQ0kt6DOcJ9lkSrJw/Zax7W1Qqc5+vVnfuQrqt4YbangtrZXsdvHIPpPphVlmLba94q3aHYy1uP5qTeb42W0TtDiAw6m78ljb/ABcQb6aY0MkseI6yH62t+l7e4WNqrk1+0Yx3OUi4XR8wLWu5tIPsqTUT1TdMxNkq8jnlR3TudsM5PJMtGo9StTwzZtJFVVNwR9LSOXr7pPIncMWx9LGZph/xDx1/I3/KuZpGxRnBwBzPUlFLMyGLLjhnQDmVSzzSTSl7zgD6Wjk3/uukmMewqZn1Eh17MB2Z/c+qQBzSxE/QHFp0nkUoZA5clFKjjwAXJ50mgaQjo4paqQRxNJ7nmAjr44opXNjkc4jYgjkfdFSrBT09VUvFY+qEWPppg0yE+mo4wm7rSxUNaWUs7pYy0OBcAHtz+VwGRkeir2DdOYwCT0GdygFVXtp4S6Q+gA5uPYKilE9VN49SMfuM6NCk09TTanT1WXTOOI2dh6J+lL6uOV5YG6XaRjfIWash6xRecuI6rRj6VU2mEtjc7GGt3cScAe5UCq4p8OYtpaRk0Y21yuI1ewCirOsbqJVHXwgg7KdTcSU1SdNVTRwn3dj9d1NdTU9ZDrgdjsch7f1HJBQ8N087rjPNSuaJaaF02l2weBzafcZWwoaymvUMtHTWaqguDsSxOaQ5g7lxO4bjfuqvhiz1st1ljp2g+KwxOHcdft6rrNJbqexWSqLC3xvAeXyHbJ0nA9lqXIzm1xW/3GC83yI0wcLdRQtpqd2ndzW58xH8TiTj1C3/AMMOHZ66uiqIBmeV5p6TI5OI/El9mg49yeywnDFlmrKukoYx4cs2CXOH0NxkvPYAAles/hJw7FRW4XLwixj4xBRscN2QD83u87lZv4sbSz26C02ynoaRumGBgY317k+pO6sGBEAnYm6jhA5C3YlOnIGAM7o2jA2SgO6AsJJCdCIgFAyQk6Qn9I7ItCoizRCaJ0bxs7+S55xlw++ocZIINVQfK8A6dYHJwPcLpLxjYKNNTsmbpkaHAcsoOA1NhfTS66j5mDByRMzI/VZ6/V5icaaMBsWMhzRjWPT0XpCotbC3yPexvUfUD9iuT3/hGoklnkpGMrKd7i/wXDS9uT06H7bqxMcfqJjvpVbUSuOcrcVfCMsznijfHHMOdNO8McD6Zwsnc7fUUU74KuF8MrebXBZsWK6sJMVLsM+Fn9XFVV4aDb5I+r8AD77q0vbXNh0xnzinaG+hIP8AlZOsM08raR0r3+G0CV/Vx7JBC1Uscvna+d2clrOX6qbRVVTBU+M6J8dEPyMbkgKxtlCGAaI2j3C0VLEMaXsAZjBwMrciai2yztu0EtTZ6hlYI95IfpmaP+nr9lIEgpA1zstkaQdTdnDCVdLfBHGypo9VNVt+meF2k/dZetvNRWOdDXY+caP9QbeIO/ulI6KPjJVQUropYI6upZH4cdS7LZMfuv6Pb6FZLhO1f733i4vFXFR17vxYoWuEbHZO7W9lig7Ew8Xk5XNqdBSyudNrGRhkjebU+y41VXR3aySSQVbDIIjh8cn1N9j1SHV9LVkTyOe58X5JDvhRJBVvj8RtUa2B2Ccuy4emUzcHwzUxknBbMfKwAYKmkXFKx92b4rAXQ8vLyCsYKSipd6gRNI5j6iq7gO1Vk1sqSwyCmMxDT0z1C1A4XIjMj8nbmtRmmorxYIB/9NUSu/gaGj+acF/srv8A+3VTe24Um18PxGcNkDRnkStrb+CKGd7GOliAcN3YGy0jlF7rKarlYKKF0UYG+vmSotKxznhgdjPPsuxXDgC3QlwjqoJCNuSxt1sMFA/WyQNe3cYTwKGJj44Hsa9x0vBwz6XHup9JmKSpdDPJHRghzmBudTTsRnGM9soNdFNTyOjna2oAJeHf8w9AEwajXCWtZiTGl7OeQPZA/M6nYZYIi8wOJMOSNWn+LCTBGHsDI8+K3OXOdnI6ewTMEjg8yO2Dd2ggY26KS+R01TJUw4Y13Llj1GyKbmpqXLxUZy7zDSMkH3Wl+H7bXS36ohdUxwRVskYaQ3yg8iT2yds+qoIqWSpdNJHo8PSSQXeYgc8Jurja97TTtaGtAByNyVm86suOh2rhGrrOKa6SpaY3ulJw5wkDG9NxzAGAF1ThPh2G0NdKA50726S9wwSM9ug9Fxvgbjas4YjbJUwmqpZnanMJyW+x/sV3Hhbii08R04lt1S0yH6on7Pb9ly+n1al1b/ZJUhzQmyEUhvNLQaNkYCAkYR4R4QEEYCGEoICRYSgESgLCLuldESBKJKRFFJKJGgUCQc5QRokBIiNkf/soIGCiwnJG4OU29zY2lz3Bo7lAQCjXOoZS2+plkcG6Y3O39Ao9RdQMtp26v4isxxvWupuErvVSvy4U7gCe52H9VFeWeKZS601cuM+I88/UlWj4vlrVRw8i2Jo/kqjiEF1vpaYE/i1EbSOh3V7fHBjtI5NAH6Koy1efPhU1QMEq0q3anYJ3VVUE755qogSHn09FGLsEgp555jqo7tzuiE7EkpqdgYWkOB1D9E444zuoZkJO6DuMD8+U8xyTw5jCi4x/lSI36m/xDmuaup/DbijW0Wyvk8w/03E8/wDuulNOdiRkfz9V5ogkfDK2SJ2l7TkEdF2vgPiRl5omwzODayLYg9f+y3zUsa1BGNxyx3HZBbQSCNEoAESNBAEAgPRAKgI0AggCAQQQBGEAjCAglIkEBhAeqACNAAjCARhAY90oIgjCA8I8IgjQGEYRDqjCAwlAJISggMckYRBHhAAj90EYQBGiCUEBBHlDCCAD2Q90YQ6boAgEMIwgJBGiQEcdQkFo7JeEQHZAgMHZANCUBsiJVGevVGZ6eVu5lYdTfU/91jjCWvIDiw/uuGF0yWJkudQ3/eHNQa2ia6PziOQf/wBRvIKpjiPxVy2zULXkZ8YkDPTC5Xchm3VOR/yyurfFqjlp6CEyx4YakmNzdwW46H+y5XcWE26pDRkmMgBSkcs6Lf8Aw/vAZrir5IxEcBhPPPr6LL0NoMmPmH6f4QtFbrPDTMc8RSu/iBzhJzprTcSPE7fKWlo5EEYWDvVeG0xpYnh7ifMQULzT1ssxZS+I+PsMg/oo9lsrqic/MseADgh2yn18rqpZlucnJIRvYGhuHB2RnbotXLwvE9x8GZ0fYHdSqbh2GKnDZGa3jcvBxlX61NVNhtgkLausAbG36G8tS07Zmvxp37Nao76cNwQzW5ow0POw+yfsFFcLrWTw0TImuAOp7zgkAdOwWufCVFrQfG879T2jbG4Cag8MSgzAlvbupFxoZqIhsrWu1DVqaeYUQehQXFI9lxqYoJX+FABl2Du49sp183yTpYHWeFzcacyRuc73yqVunSCD5ld0/FV4p4J4IasiKaMRPGkbtQQX1b6YGONhhY7zOjKgOcHvJAIBPIpTsvJc4kuPMlLggfK8NYOfXoopLfpc47NbzPQKPFHJdnkN1R0DT5n9ZD2C0TKemEXgvcx45EE80fyAEYZTvLGDk3m1XGfsobMyO2vq2vqZddRE5rI4NJLd9tWoH9AlWivbSl9NcGA6yTHI1oaJD27AqdWWsvwZGeZu7ZIzgtRwt1Ruiqo46lh2JxpcfcHYpi6q6qmqq12mfU2MHyxD6R9uvupcHCVY+PUKGUt7kY/qrOmoWUoEttuk1M9u7Yp2a2tPpnl+q1Nk43uVEHRVNrtNxjjbqdO6LzffV1WP8a/Zz6fhWsYSX26fHdgz/RHY+HZai4MZTidj9WNIJafv2C6eeNTdahtNR8NW3xHt5saWluevlwrC021tsjOt3iVkm8sh/oPRPr9Vl07YbVDaoPDjw+d/+pJ39B6Ki4ruVNWVbbf81/wsbx82yPd0uN/DB6Z69k7xdepaKJ1FQ5FU8ed/WMH+6zXCdnca01T8u8P0zqJ6eqz9sV0/h7hGK5caT+Fsa2OOSpxypqdoH4Y/6iAPYLvUUbYomxxtDGNAa1reQA5BZr4eWF9ns3i1Y/8A3CrIlnJG7dvKz7D+a1IGUgIDdSYW4bvzKbjZqPoFIYP1VQoJQGyDQlBASGErCGFYEgIjyS0RQNvbkJktI6KQUkhBFfgA5OygVVvilJdgtd+83n91Zycj0zsmyMIMpdLGyqbprKZlSwcpGjD2/fmuM8bUNFT3iaOj1VMON3kYw7kRnr7r0hgHJ2HquRfEaKjg8QupmsETtfzJ21sIPTrv1KJXAuJZGw3Gow36dLWt+w2VJR0o1F7m+Zxyra6PFwuk87BiNzyWhP01IQMkLUiWk0dOOynaNDc9EoMDBtsoVfWCNhGd1aRHuVUACM7LF3hgld4kf1tORhWlZVl7jgqviGqR5P0gFyxWoqJg4kOcDg7q3ofxIA0jpsoZjM9K6qMm0j9DIh0U4RyCgm8H6wzbCipFNI6GT8CcNf2a5OyGSokDp3aiOSxjXFjvNqae61VjqHVNEXSblhIJ7oN/8OuMjb7ZNaajQ6kfOXtOPNG5aCr4pY7MURGT17rjXC4fLVVJGdPifzWsbSSmQu+61Okxoqm+vZINBO2+xQZxXVR4LHuBPPdUsNNkgvyXdQRzS30w82WkBPsYuDxhVfmkcd991U3TiCWd4JkOD3KiS0gOcEgeyraqhcRkHI9FftTD9Nd8znUVqLdXxygatOc5z3XNXgxTEA7Aq4tdaWOGXK89M3l0WpEIZ4TWxHxgH6v3D6IqOGOKRsRkwXO0uLRgem6pLfX6sBxBCuvmY4odVK5w1EGRrt25WkJqhLSVEzGuyYxgkHvyUZkpcctJPUpcjmua/XIHOkPm32KadTGAu0ZBG5HoinBVTAvjicfDPNvMFSrdVzwVcc8MssD2nZ8Rw5uOygQB7NUjSNbd9zzUxspjjL4zibmCNgoOw8O/FaOlfBS3l8lRG4YNQGYcw/xd11W219JcqZtRQzsnicMgtK8jw1RdG8gtL3nDiQrKycVXKy17H0c5Y4Ddo+k+4WbzK1K9YILnXBnxNpLoGU94jdR1ZAOojyO9crosT2SsD4nNew7gtOQVzsxoYRokYCAIwgEaAsIkpEgSgjSSoCRI0SKJElJKAiiVTxJxDbuHaL5q61DYYycN7uKytv8Ai3wtWzNjbW6C44BcrJb6HQEAmKKsp62ES0kzJWHfLTlSAoKytuIYXRxNOsbZcOSoppZZnkyvLj2WhulH4rfFjHmaNx3Co5I/NkDmoG42rJfGGYw8CVLBzmljj/8Ayz/ZbSNmBknA7rnHxwraeTh+ipYpNUhqQ7A5YAP+UVwuuk8e82Sj0DDJjKT1OApd8kIleR+ij0rC/jGmDgcwU75d/XYIrsS5zlUUFQWv1Y2cOh6qE6InONvQqVWU7nNLmOwQmaKoAf4c40O6Z5KoqpoiHuxsfVRC3fkreuixOS0YBH2Kr3x7/wCURBmGI3KD/VW74ctIUGalIJxlB2YOBCUw6XZCZYlg4XNU1hB9ip9puE1rr46mmcQ5h3H7w7KoilDTudlLaMt57Kj0Fw3eYbzb46mB2X4w9vVXGxGQdlwPg+/y2K4tdqPy7zh7f7rudDVRVVMyogcDE8Z26FdObrKQgjwiVBIBGgEBBGgggCHRBGEAQQCPCAIIIIDCCCMIAEEYQQBKCJGEBhGEQRhAoIIkYQGjCII8IFBH0SQlIAjGcIwjCABGEAjCABGAe6ARhAAggEaAIIAIwgCGEEYQF0RFKRICxsiSsIEbIEJBCcwiPsgbTc7BLE5jhkFOnCSEHI/jnB4XDdFg5b80OfPkVwm4TeHFoG5cN137/aCmii4Zo2BzRN8wHBufQrzTV09RUSFxqXMyeTVQqmoS9+fDA36haGGlMFOTjOeypaOmrafzxVZeR+V4yCr23XN1QRDVRNjfyznYrU8M+07hmKgdXN/aMLnwE7luzmracVcNWyOmppXSNbSzgCCtZ9TD0bIOo9f6LnV9o5hG2ejqDBURbtGdnehQoeKX4ipbnKWPIABJywlJ1FsOXe01dqmAqWgsd9EzN2P9j/ZRWy5GFtbLd6dlOaO4Rtnt8u2k+Zo9uypuKbLRW+WOW010dRTS7iPOXR+hW2FFojc4809TVUtsDpYZjE7mMb5SoIi7YDzeqlw26mLtVYTO4flHILOKzN3r6q9XF1VUZfKQBpjbhu3oE3HQVb9200m/cYW4jq6CmcGljGs7MCm0N5sELw+otVRWEHkXloV+qawTLXWH/kEHtkIzbaxmc0smPbK6VUcS2ZwAoeE4ogOZLslMRcS/LyeJBbRGRyHMBPqa51TUpkn8ObVFsTu1SXyGmg8GLc9XK3uM8ldWzVEjQ18nQDGFVfKEH6sglMXUampTJMHNzjqSr+ERxxBpzkd1EbKyGPS0AKNJO5xwzOURNqZwxuxBVXMWvORsfRSI6WWZ3mynpKDQ3mEqxBbOWt8+7R3T0TTVOa2nIL3HlnYDuUzNSuc0gZVhQ0dPT2N0geG1bp2tIzvpWbWpG94VtMFqofGadc8oy6Q9V0XgvhdtQw3e8sLaMbxROG8vYn09OqpvhZS0F8r3xVOuSmt8TXyYHkc8nZpPX2W5vlbVXisbb7aC2MeVzm8mDsFzqsBebIeK+Lp/AiaYwRGHhmMNG256+66NwzwVQ2g6vCEjxjTqAOnHYYWisFlgtVI2ONoMh+p5HNWZaG5CkgYAICMDPJO89glxswckKgRt0jCcaEYalgIEhKARgIwEBBGhhBAEWNkaGECcJJCXjZIfsFQ0QDukEJ7okkAAlxwAMklBEqRGKeUzEsjAIceS8y/Fzi5t8uJttveDQ07i0yD/AJhzy9lsvjX8QceJY7PLgkYnkaeQ7e64lTQ5dlbkSlUtONirJmGs5JMTA0bbJmplDQcFXWZDVXOGB2FmLhOSXHOSVMuFUTkAqDS0UlYyR7R5G9e6y1FWInSOOApE2KGlc4gOmkGiNnUkq/pbc2lpn1FR5Y2jJJVBU1bHVDp42apuTCRsweg7rGtExUoijp6dwyYxqf8A9RVjFG0MIaMKFQPL4pi52JGguBIzkqFHVVDnHTO8O6hBOrLPBVO1Obpd1LdsqXTUTKWkfHC3ADSq+KprQf8AV1DsQtFbSKijmkfESRE4YHQ91BD4dgt1vhD6qshjGdRGcklXLuLLFTZLGT1B6ANwFiv2bI4klvPdONtTjzCmi4quNi55+VoI2t6F7iT/ACUX/fGrOzqWAjrjKg/srA5lJ/ZnQOP6JouYOKWSECakLfVrsqwFZS1sZER0v7HZZU26Ru4cCjZHNEcg7jsU0WFRSh8jmvbpcOTu/umhTOiPLcK7s88Ne0QVOGTjYOPJym1FudFlr25A5FWUUdJO9jsfyV9QVuW6XcuqrKiiI3H6qRbaIPpqmR7y0xjI9V0nTNjTwCKoB06Wuxsmy57S9rsknmCqCguDo3N82CCtC2tFaAZMahtkLbIoWjxWF5bv3R+KGQygOaG5wGkIYb4bw8HxBuwpuaENGdR35twijfTgMjlifhriM7cig+HS9xfK0nVjI6hLggdjQXgsIzjKBiLMGRmkO5KCZQ1k0Jc0TYb9OXb5C1fCHHd2sUrtUpqqPO8TuY9liGOYZHOf5tuSanrnGFzGENz2RZXqjhXjS1cQxN8CZsc+N4nHcFaUdV4stlTU0tQ2elmeyRu4c04W4b8W71QUnhyVLHFoxk81i8/jUr06gvK3/wCtN+bLE+OVkgJ3Zhd7+GvFY4rsQqntDJ2HTI3sVmzFa5DGyAQUCCESUUgqAc0SS97WfU4DPcpQRQScZSsKuut7t1pidJXVcUbR3cEHHP8AaMqBLX2ih+rDXPI99lwZ9hpmzl7DIzDsgA8l2f4n3q2cZ3WmdZo3/MUocH1Ltmlnb13XNIqd807mAgkHd2dlqX+JYsOH+JrrYJWvt1XI1o5scctK7ZwN8WqG6aKW8gUtVy1/lcuB1MTY5NAeH+yjluCVr37R7WgljniEkT2vjIyCDkKg4gkiommSFhkDjjA5NK88cJcd3exYjE7p6VvOJ5zt6Fdq4V4xs/E1N4XiNjmcMOhecH7LN5xrVRPWVVZJiVxawH6G7Bc++LUrGvtVOM6w18h9tgF1S8W11DUAjeN30u7hcu49opq7jqy0cTInPliZoa92A7znYrJHOLexw4nvEkgwYqaKMbYxndNVLQ4nKubhO+q4k4qqXwR07nV3gmOMYA0N0qrkbuUFPNBjOFAnpWuJyP1V/JGMEYUSSHIKChMToxgHU0flcm307HYLfKexVvJAeyjy05AwmmM7cC6mLQW5CZZLHJywD2Kv5GgN0ys1M9Qq2ooIJSREDE/p2RMdDBwi1qQYspIhWA01ym0c2Dod9j/ZRxEjEeAqLJ3Jbf4c8Tm31Aoat+aaQ4aT09FhKeQubpd9Q/mnORyNuqS4j0tG4Fo0kOa4Zae4Slz/AOHHFArIRbq9+JWjyOJ5roAzuHfUP5+q6y6gkEeESAIIIIDQCJGgARokAgNGEWUEBoIBDKAwjCJGgMFGiCNAAlBEEYQGEYSUYQK6bIwkhGECgjHVEEYKBQSgkBKCBSMIgjCAwjRBDPTqgUgOqIEo8d0B57boD1QQQBHyQCNASPCAQwgGNkSNBAlJdySiiPIoGyCsrxzxnQcK0D3zPD6ojDIxuSVVfEb4h0nDtO+npCJq5wwGg8l5zu9yq7zXyVVwldJK49eQ9AtSfqaf4p4hr+Jbk+rr3k7nw487MCqWwkHzDCkxQgkk7IPPPK0mk/S3AKQY2yDDv1CMDJynYws2khisNQKQtDjIG8j1WMuU3iuLH8/VdEhbnYqsvPDsFcC+I6JvRZzVlZKzcR1lrdoDvFh6scf6LaWi4266uL6Z4hqHfXE48ysHW2Wqo6gMqI3Bjjs/oq3xHQT6oiWuadiOYSWxcldeki+VDppn6KdvTqtDabPPdbdFUxgNpX8tJyfuuWU3EEl0tpoqwjxGjyuHVS+COOa7h+R9DK9z6TOA0/lWuet9s3l2Oj4JhwDIRn1VjBw1b6c4m07LBT/EV/h+V+PVZ64cdVU7iGOcexBW/tE+ruDbTamMGlzMnooFZS26PI8i4uzi24lv1OSDxVV8nuP3T7xfq6ZX01vLCW6fdY27sgicfCKz83Esr2kFxCgftYzSYcSn2jP1XsUElQeZwrWkt4YMv/moVmqW4HJXz3BwBHJUIaA3ZoSHsDvcdU6Whg1OO56JvJJKCJLT+YkqHLE1wLTnCuXNxzGfVRpYQSs1ZXV/hbxFb5rJTcP0EIoqsfW47eIers9T/RdrsdnhttMGsAdI4eZ3deNzI+knbLE98crCC1zTggrtfwz+LGsx26/Pw7ZrJzyd79is3n+xp3BxDR6pnGo7JMMramNskLw9jt8hPNGBhYUTW4SwEAEoBAAlBABKCAsI0EaAkEEMICQRpKAHkknmj7rnnxA+Jts4V/Bc/wASoP0saMuP2Vkt9DoJGVyr4xcfssVC6326QOrphjb8o7lc5rvjjdKhzxS0WGnYF7/7BYCruct2rpaq4gvmlOXOP9AtznPaaiZfUzPklcXPecucTkkqZEwt5clPpbZHOzVTyAH913VMVUT6dxY8FrgrWTE0uhp3VNW1ex3TtxnLM7rPPfJPN4ce5JWWokU8UlfUCNn053K1bI46OkbGwDAH6qHa6ZlFTgY8x5lSIo5KypDGZ3/krPERKuWmrpIo4m4iaNx3KpqeyS1kzo6aEPLQSScAD7rqPB3Cwr542Ya5jR+YZA9Sui8NcGw0twD3ujlDeTGxYY31I6lcsbjyy+mNHO4GLQ9uzmkYIUqW30tW4TVFA7GkDVASM+u2d16U4p+Fdtuz3Sw/gynq0YXPLh8H7lRvc+klDh6bIY5ZFZra8Eg1cYzsGzDIH3CvKC0vFtlbbopJWk+GQHai0cySe5WgreDrrTtDaqB79PXf+q33AHBsJ4dfJW000c0kpIkieQS3pkKaOR0/DNdJ/wAkRjvI4BWVNwm1xxLUue792FmV3Oi4NoW7/KzVB7zOOP0WgpLIKdumJsFO3tGxMi48+N4HY5u1FcnjvoP+FDq+CYWNOqK4Q+ro9v6L0v8AsvvUSH7JD7W/HkqCfRwVMeUKzhOdjSaOZlQB+Q+V3+FnZ6VzHuZIwse04LXDBC9bXfhqmq2O+co43H/xYRpcPuFyrjfgjw2GXUZIhsypa3zM9Hjt6qZ+Jjib4ix2RsRuPRaKz3oPa2mr9xybJ/lRrhbpqOYxVDNLuhHJw7gqufCWnIUGuno9tTcOYeRCgSxPjZI1mwcMEKLaLxJSERzeeHsei0IbDVxmWAgtK1KMfNGYjkAqVSVhiGFZ1dHkHZVFRTFhOFuVMaGmrI6kNa52COqlwh0pIcMkcisdHM6N+Vd2646Dglbl1nMX08ccQYY85LfMD3UKone8b5IHJGKtspLpD5E/R0wucga1/hwN+pw5qiuZ4kr9EILnHoEmpihoQX10rdX7gKkX28U1va6lszA94GHSlYyWOpqXl9Q9zy48ysWrInV/EJcDHRs0t5ZVS101QfMS4ncqUyhDOYyVJjYIxyAys2tHrZRt1tLtyF6P/wBnSN7aG6OP0GQAfoFwW205IDuhXpv4IW40XBzJnjDql5k+2dv5AKEdDQQ6IKKSUknAJ7JRKj1kgipJnk7NYSoPNHxA41ukvF9wpYq18VPTTaYw3bcd/ut7wj8WaZlnLL0HfMxDALRnX7LzvxHdTLfa+oO7ZKh7s/8AmKlWm4xzMGHah/RdNnqldb4m+LV0ry+K1RiliP5nbu/Rc4uFdV3CYy11RLPIerzlLLA5uWnOVHczGdlfXplJgrvCoXU7di47kcyoBcRqDchp7JRb2SDsVmcyLpVOWsmBkbqb1BVlHFbqiN73OdAW8hnOVWDBGeqcDAY8jBKnXOkuEOpZmDW1jtB5HHMJqOeammbLA90cjeRacFaC2mSnonzyDWG8mkqmncyonkk2GTkgdFOerbi54b/h74n1UVAaK+t8eHHklH1NK1ldeeGOK66z3FnisuVujyxsONUuBs3fsclcKJieMNmYcbYynGNMDmvieWSNOQ5pwQr1Nngly+Uuahq7eKh1dDNDLV1EtU0TNIJa5xwd1FID845jmry+cY1t3p4oLlFFKyJrWteG+YYGMg+qqpDRPeDRTnJaNTZBpOeo9Vnz/V1Cc3ZMvZ6Kc+EgnITT2YyCEEB8efQpmaLIGQOSnlmxGEgt2wQoKp0ZwQW7KLJTg9ArlzeflTDowemEGp0AhGWABE07FG4+q5qLQOyT4eclONORzQIRDRaWnLeYUlp1tTPLZLacDKumH6WeSlnZNC4tkYcgruPA/EDL/bmtLmtrIh5gTz9FwrmNuqsLDdZrPcI6mBx2I1AdQt83GceiAcjOMenZEoNjucF3tsVXSuLnEfiN/up+xGQuiEoIIIAgEEEARhEggMIIIBAYRhEEaABKCSEfNAYSgko0BhKCSEaBSMJIRhAoI0QRhAYRhEEYQGjHPqgEYQKCMJIKMIFBGEQ5IwgNGiCAQGgghlAaCJGgMI0SCAIIJqonjp4nSzPDWDmSgVI4Ma5zyGtA3JXJPif8S47bHJb7Q4PqnDBcPy+/+FUfFD4ml5kt1lf5hs+Qcm/91xhxfK975HFznbuc4rcme00upqJ6ypknqZXSzPOXOcU5DFtlwRj5WKJr3ynUfTZOBwe38NwLe4WoybkeGBQ3zDUU5WjwmFzzgLNVt0AcWxLNqyL01DGDchSKR5mPkHl7qis9JPXSB8mRH/Va6CnbDGGtWZzq24NmGtPoMlV5qpnlz3P8KAfzUusqIqaBzpXYyNh3UKX5eppBFrLS4ddlvGTU98tssDoKiTWG9cKifZrfcg91unw/npTr+D7gGF1I9r2O6Yyp9l4WntrnVNU/Du2MBT/1YxjoJaGrMbxh7TzTdUwyV5DOZwr/AIpb/wDuDJSMD+qYtVLSGX5isqWtyc6QN1y/rcWlHZS+Fj3cyN1NjtLGc2j9FI/3lttPGGQQySYGM4UOfi1xz8vRgerirqLJlFA2Mh0biVAqbex2cAhV8nEtxdnEUYHskN4krGn8SCNwQNVduLQcKtdC6J+RkLQRX+lqDoqIjET16IqykbIA+MhwPIjqmqi0Fc6JzDk4HNba11jaiEDO6wEkJZkjpzVlZ64wPAJOF05rFjfuhcY9R3CjuwNwnLVWCaPBOQQnp4RqOkZW2UUPJPcJJeefVLczSeSaeP3SopmceJ7pgNDTnqpek4xhE5nlwQMqLre/Dn4lVfD8zKS4PdPQE4BO5Z/kL0XZbvSXijZUUMrXscM7HK8YiMNB1c1oODeMa/hesa6lkc+nJy6EnY+o7FSzVlewAlBZTgrjO3cTUTHwStE2MOYdiD2IWrC52YowjARBGEBoIIkAJAGTyQQ2KCAIigmamZlPE+WZ2ljQggcSVrKC0VE8jtOlpxuvF3FFRJdb7VV07y+SV5PP6W9APsurfGT4gPuE8trt0h8IeWVzT/8AiP7rkUbNRzuV05mJabp48OGVbQNaG7hM0bGOnDXclIrWNheWsI09+y0yUJxC8GN2g+nJHV3AVMRjn+oDZ3ZVVQQ84ZKCVEqRMxpB/VZqxW3OR7ZiwkuJ5Y6qxstD4LPFkHnO/sp9otkFXGX1TsPbyx0U026Z2RAWuA+ySLaijVI/A/mtFYG0wpJHwu1yg4ceyxt8uAoIW00BBq5jpA7f9guvfBLgV0lLHPWOL6cHxHOcPrcs9LzHVPh3aGUVjglezEkg1OJ5k/4WsA7IRxhrAxgAa0YA7JYZ6rCkNGd0oRjG6W1uyW1pzyRUaWjglHnjafsjipWRMDYhpaOiliPPJGGe6CN4RReEfdSw0IAIInhnfZFox0U3CLQOqCCWDsq64WqOdrnMY3U4YcwjZ3uFelg7JssHZBxXi7gSCaOR0ELnRDd0P5oz3b6ei5JeOGH0JLmuc+A8n9vQ+q9d1dFHUNydnjk4LC8S8KsqDI6NjWTuG4I8knv6p/6jy7UW9zM4Kbo6qot8uqN23UdCuk8Q8KyQSSGCNzS36oTzHt3CxVXbyNXcJmC0oq6nuUeBhk3Vp6pmrotzkfdZ11PLDJqYSHDqFeWq8agIq0b8g9TRWVVGQ4kBQcOjd1C2ktK17dUeHNKpbhRtaxzgMFblFFJWvLtIOzVYW6vqDG9kLi1rtiVVS0rjKA07Eq/oaQRwAAbpphltPq6JXghgVgyIdkplNqeSeXQKCtfDpYXFM0dFLUztw06c7laIUrXNIeNlNo4SZWQ08Re9xwGtHMqGJthsklzuNJQU7DrlcASByb1P6L1PaqKO3W2npIQAyFgaAsR8LODv2RTm5Vxa6tmaAAOUbewXQkUSCCIoCKoeOav5DhK61JONEDjn7FSuJm1j7HWMtoBq3RkRZOPN03XNfimblbfhvVuuNe+WWpZHE6LSNLTsDg/qix5Xu0rI2yF7tz3VBQXGain1sJ0ZyQVY31oc3xC7cLOPcSjLqVkvMVVEDG4Z6tV21zZW5HNcVoquajmEkLiCDy7roHD3EEdYzDnBsw5jurKNaKUujJZuRzCiPYQpFLUkg4OHEbpLyCd1pEUjZEMg7KUYzjJGyTp32CAvEnMRZqOnsozIwNbMfXsrKJh0kuCEdKXHPLCYrB3bh6phe6ahmed86cpNrv01O/wbi0kcslbCqdHC5wkeA1Tvh5wtbuOeKH26T/SZEZHOb13wFkispn09VTiSJ40dd1VXOto4XaA4FxKsePeALlwZfpKFssn7Nl3hmPI+h9VUUlihjIfKTI/uUMWdokrKmfwKQGo2yGO5n2KsA9j3ujmY+CduzmPGCq6oe6gp3T0+WvYMgt5phl9ZdsS1En/EAYOeamLq0kgc3fmEzoS+Gqa5XmaoitjGy+E0uLXHGfZFFUMlJjmYYZmnDmO6Hqo1DDmJpzMeynuiPPmOeUy9ignCXCIy7qG55CQJCPZcxZxyDolh5IVfG84TgkOMIJgcOqda4FQA/ZGJQOqInBwGd0eyg+MCOafppg8aD9Q5eqspWt4G4klsVwa17j8tIcOHQLuEMsU8DKindqhkGf8ApK80ldC+GvFZpZf2dXO1Qu2bqK6c1h1chFhDABADg5hGWuHUILYJBAoIAggggNBEEaA0EAggMIwiCNAYRogjBQGEoJIRhAoIYRBKHJAAlBEjCAwjCIIwgUEYRBGEACUESAQKRhEEYQKHojSQggVlAIgjCABGgEEARogqy+3mls9I+aqka3SM4JQSrhXQUFO6apeGtaM7leffib8SJ7pNLQ2qQsgHldI08/QKp+IfH9VxBUSU9I9zKQHBIO7/APssGBgZP2HdbkxNGBzLjt1J6p+mp3VDtxpYEukpXSkPk2b2U8kMbpYMAIiNWUsDoTFoB9eqhufDbaXBdyCXcq+OkYS45csRc7hJWzEAnB5BTVkO3i7SVchaw+VO2KyvqpGyTAhnPBUqw2IyOEs426ArYQwthYGsGAkmluCpYGU8QawYwmLjXx0cZzu88m90zc7mymGiPD5TyA6KDQ0T5pPmKolzjyB6Lf8A4x/6VS0s1dMJ6rl+VvZWstJHKGtewbciNiEcOxwEusq46SIve4Z6BPS+yogKCFx8ctHqq2O7PqZjG5xezPNVodVXicgEthzz7q+pKCKljDWgZ7rnbrcmKLiKj8aeLA6KBFZ2HmSu5cGcDsvMUNdOwCMAkO5n9Fe1Hw+i8XLDTuH8UWCsYrz9BZWu2a1zj6DKs6bheolGWUr8d3DC9AUHA0LANRefRjA0K9pOFKOIA/Lxk93nUU+o83jhCqx/pxD3cEzNwpWMaSKZrx/CQV6j/YNOBgQU+P8AoUOp4apJGnVRQn1ZsVfrB5NrbMInaaimMbvVuEdsa2A+A/8A03fT6FeiL7wVFNE9sHmH/hSjP6FcX4o4ektdQ7DXeFnG/Nh7FSzEZyqpQ17gquSJ0UmRyV9Edfkk3cORPVMz0wdnZWVSrLcnQvDXHZbOlqWTMByucuYYnq5tFxLHBriSF05rFjYSRtc7bkVH0BsjuqcpZ2yx45pxzMDONlakQDlpJCPc+YhSJYxjZRt+RSA2kEEEKPNBkkhPMaclKLMA63YVCbNda2yVraqhmdHI3sdnDsV6L+G3xNpb5A2muBENW0bgnn6juF5slLfpjaXH9U3FJNBI14cYnN3DgcEfop79tSvckUscrQ6J7XNPYpzC8h2n4j362NDWVwmYOQlG/wCoWz4d+NVca6ngr4muZI4N1NdnGfRZ+qvRKCj0FSKujinAwHtzhPrAARhEgSGgknAHVUJke2NjnvOGjclcO+MfxC8Br7bbZPx3DBIP0Dv7q6+LnH8doo3UtG4OqXghjc/zPovN00stbUyT1D3SSPdqc5x3JW+ef7UtwWHSPLjkknmU+1unYc+qcihIadI3TsbNDS93PoFpkTGCNv8AF/RUl6r3D8CE5eVIulwETC2M5edlCttE6STxZvM9ylqyG7fZ5nyslEz8jc5OxVhcrjT072wOcC7llSbjWxW6jc1pAeQsfHbai7Okn16e2Qoq9+bMZDonEtPJSobvVCM+CCAdjlV9ioJnM0znOOq0EFGKiVtPC3yj6iFnVMcMcLvvPEUVRVH8PUMudy5r2Bw5TQUtphhpGBsbWgbLgVDCKSmihpwNe2Md13ng0vdY4XSc3DO657qrpoSgEAnGtyVQTGpwBG1qUGoCASgEYCUAgTpCIMCWAjA2VCNKIgJzGyLCBotSHMT+EnCCMWYTU0LJWFrxkKYW7YTbmqDH8QcPx1MZErSQPpkb9TVyjirhJzHuc5oa4/TK0eV3v2K9BloIweSqblamTRuDWNc1w8zCNikHk+5W2WmkLJ2Fp6diqSopi3cBeheJeEWvikMMfiRdYz9TfZcsvXD0tKXPjBfEOe2490z8GRoLlNRO0k6o+oKuXzU9xpsxEB3Vqq6mk54ChBskD9UZIIU9CSKU/OSAjZpVpGzygKHRVrJJf+I2J2yrRrNhoIcOhyrqkBoaEtuPf2ShCwnVLI1o7AqZSyU7TiJmr1KmhVuttRWvAaNLO66DwvT0tjk1thZUVDttR5j2VVYY6mqaI4Yjv1AXSuGOFhGWzVQy7ng9FN0a/huR0tta97SxzjnSeitcqPBG2OMNYMNCdHuqFojyRZ2RZQQ7prFFIYnaXDfK4J8e7r4nD9HSRzGQySFzmg55D/uvQFTG2aFzHcivO/xWtlRZ+Iaeeen8Sg3Eb8Zbk9D2Vg883ukqWRF0sTmMxkatshZx22V1jiN8l1nLp2hobs0AbALBXi1/LuLmtOM9FcRQu6oQyvgkEkbi1w5FLe3GeiaIUG64b4kbOBDUnTJyB7rY08wdguOR3XFGkscHNJBHLC13DfERYWwVZ25BxVlHSHzAtA6BJaA06gVBppxIwaXBzD1ClytPy73A742WkJluMFM0umkA+6o6/iZ8oMdCwud3Cjssz6mUvqpHFpPJWlPQwUzcRsA+yiqBlvrq92uqkc1vYLZcA3GTg+7NraEZdjS8H8wUNpAznklObgZxhJB6MtXE3DvHlv8Ak7pHF4pGCyTuuQ/GDgmPgeOG5UExltk0mgsJ3jJ5YPZZOmlkgm8WGR0b27gtOFN4o4huHEdpht9xmMlPEc4/ePTKZnprf1T0lTSVlOfxAcjcLLVlPTvuJ+SBBB82FHrrXV295konOLf3VZWGpHhPfUxhjxzJUZT7ff6nh6uaKcuiEjdBkHQFXPGUdFS3KghoJhL48YdI4nJBJxn781nK2ugqCWNjD9ueExR0UonFTLIXPyMZPQcgi67tcPg/cKe001bYqwzl8Yc+GUc/Y9Fz64W+qoKl0FypZaaVv7w2PsV3v4b/ABKt9xt9PRVcjY6iNoYQ7bJW5uljtXEFI5tRBFMxw5kZWb/tp4/MWSkmDfkpuAUekZXJEZkW3JKEfXClNAA5IEDBRUXw8hIdEpZAJQ0hEQfCPRDQW4wcEdVO8PPJJ8JA5BL4rPN9Q5hLa4seHMOlwOQfVMsZpIIT3MZWpUx2L4c8UMuNJ8hWvxMz6Sf6rcYIJa76gvNlBVy0NWyogcWvYc+67rwff4r7bWEOAqGDGCd/ZdJdZxe4RJQ3HY9QiK0CQQQQAIwiCMIAEEEECkYSQlBAYQAQCMIDCMJOTugMoHAjSQlIDCMIgjCABKCIIBAoIwiCPogUEAiCUEACUEn2RhAaMIkaA+iARI0BoDdDkMrG8ccaUdgo5D4g14wADuT6JPIs+KuJ6Ow0Ukk0rQ4DuvNXG3GVXxJVvBe5tKD5WZ5+6ruKuJqziGudLUPIiz5I87BUzAdWAMu/otyYmltGOYy48gp9DRFx1y8k5QUYA1y8/VTJHjG2AAiCfpDcNwAFTXa6R0sZAI1Jq9XhtPGWsO6xskk9wqMNySSpqyGrrXSVM+ou8pK1Ng4fxG2peA9p3z2SrdwzHLSYnHmISoG3Oxao4iZqbGG55s+/UJIau2z00ThF4gB7BMXeaaOPTStyXdVUWykdUVrqiYHLjnHZa6nih0/iEBoHVbZZegog0+LUHVKe6sg/GzdkzXT04qzFE8FG09CkQ5U1cNJAXlwLsKngpp7rUeJPkQg5A7qTXsi0Zfu7oFNtTpZImgMwwLNlrUqbAyKkg0gBoCZtdfbpuI6OjudUYKWR+JHjoP7e6frLW2rGRKWkdFEtvBk1yu0UcEzWTvcGtJ3WPrjUsr1xw5TW5lpgZapInwNaA0xnOynmlbnO2fZcE/ZXFPAdPqhjkka3zCWny5h/6mdPstl8PfirFfKpluu1M6mrXbNcN2vPp/gq5+DpPy5HJEIT2U0DI2OyMMWRCMXoi8P0U8NHZEWjsqKyaljlaQ9v3WG4y4ViuELyYwZMY/6gulFo7KPUUzJmEHY9Cg8lX/hU0MztBcG58p7eiopYXNGl/wBQ6r0nxhw22oZI9rBqx5hjn6ri1+s7qeVwIOOhwmIwtRBkHZQNLoX56LQ1EJaSCFXVUGsHCkVKtNxLHBrnLVUtS2ZmCVztodC5XdtrywgOOQuku+EsbEtB2AymH02N8pFLU+IwYOSp3hCNniVLtLeeFcxnUNlPlx0jKhXYMo9LpHAtPMBIuvEUUZMNCA5w5kdFn5ZZqp+qocSO3RS9LIsqi7s06KVm3dVkk0srvO/7BEGbYCdgiJOOqxrXoxHE4P8AM8NYe5V7YaMPrKSQOBImZj9VkqiRz7y6GU4iaM45LX/D4OrOK7ZTRjMQnGfturz7V7S4fGmzUo/gCsAo9Azw6KFnZgT6iD91z74m8bU9htsga/Mh8rWg7uPZWXHnFlNYbZNJJIG6RvjmT2C8s8R3uq4huj6qpJxnDGZ2aFrmb5qbiHc66ou9wlq6x5fLId+wHYI4YgwZI36IRMEYyR9k/EwyEuPIc10ZSqIsZG4vx6Z6qvqHfiuaDsemeSeqJgxvTPQKFCDI/WeQP6qEJ/Z8Usoc8A+yfqYxQQueNyAn5ZWwxmR+A5UFXc3TFzXfR0PdSrFNI6W61hJz4YKv6WIU8Qaw4HVRqPwIgXNwMpiSvjlrGwa9LSdystLuGdoxFDu5xxla+20jKCh8V2NThnJWVibRUr4jHLl+QSCQV0K0WKo4mFJFTv0QtILyOeFmwjT8E2J9fLFNI3ycyuyUUDaamZEwYDQoNgtMVsoYoY2gaWgK2AWIo2p1nJNhOs5KhQCUEQCUEgMI0QSgFQEAgAjARACCNABAkhFhLRYRSMJJanMbIsIGHM54TZapRakFuVBW1dEyYE4w/usff+G46gudpEc374Gzvdb4swmpIWyNLXgEIrznxJwi5kjiI/Cl/wDxcsLX2uWB7mSxlpXqu52dk0bmlgkjPQ9FiLpweyRzvC0lv7kg5J7THnl9vcTsnYKKf6WvcfQLtDfh+JH5MUYHputBaOAKaLBewH7LKxxW0cM1tY4aI3b9Tuuk8MfDx5LX1QPsuo26wUtI0BkbRjsFcRxNYMNGExVLZuH6a3xgMjAIV2xuBhvJLDUtowqAzYJWUAggGUkpWEWEDThsSq2722lutHLS10LJYZBgtcMq1I2TLmqjzb8Qvh7UcPSOqKRrqi1k51Dd0Xv3Hqua19Ix7S14BaeRXtSogjnidFMwPY4YIIyuHfEj4aPojLcLHGX0x80lO0bt9W/4WpUx5qvVmfCTJGMt9FnnsLSQQQuq1VNsWuGWnb2WUvNl+p8QSxGRIRt23T80To3FrmkEJnCyNDYL7JSOEcziWeq39vrmTsDmO1MPMLkA2O60vB1c+Ot8FziWEZCaOp3SgdRUUNRI5umTbGeXZVu2nUTthZ28XurqSyF8hMUJwG9/UqrrrzUSR6GbDGFdGrdcaWnkxI8bKVBebdKR4nJczaZJZcvcSVZU8Z0hNXHTGVNjnYMPLSoFxFHDG+SCcOA6ZWIcHAbHdMipfE7zElmeSmmLqaslqCWwR7dyo37Mlmf+K7DewU+3XClmaGt0tdjCnkZGQqiZwlY6Koc9kpaHDuoNzgZBWSxwnLWuITkIljcXRuIKjvBJJJye6YpMb3Qua+JzmvH5gcFdG4H+KNwsz2Q1zzNTjA1dQubEElEBzyVd/hK0JKIHmjOMJBOcrzqW07IE5CQP5JxrclATfRKCWGAI8IAwbFBwSgAEPZA3yQBS9GUekYOUCdjurThu8zWa4MmjJ0EjW30VU3Y47o1uVHo60XCK60LKqncCS3LgOqmc9wuJ8AcSvtFa2nmefl3nA9F2qGWOeFs0JzG4ZPoukusjwiSsIlQEQ5I0EACNEjQAIwiCMIDCUEQ5IwgNGEQRhAYSgkhKCAwjCIIwgMI0QR9EBowiCMIDCMIgggUEEQRhAYRhEEYQGEHOaxpc4gAcym5pmQRl8rg1oXJviT8Ro6Fj6WicHTnYNHT3Vk0XPxD4+p7NSviheHTEYa0HcrzrfLtWXutdPVSOcSfK3oEzW1k9xqnz1MhfI45JKTC1zn4jG/Urc8emdFHSPwSQQVY2+mZGMvGSoVWyrh0uYDgnup1PJiHXLscJ4RJmkwNzgBZy+XltPG5rHbpu+XgNa5kZ3Wajpai5vdpBKza1IQ3xrlNkZOTzWysVmZTMDngFyp+HZW2iYwXCLAJ2eRsfv0K2zZIXwGWGQaAORO6siWjy2NpJIDQqerq3VkvgwfTnmnpZDV5aw+UKfRWd8VJ47A37ncrTOI1PAIGAcyqTiKue1ohp3HWdtlc1k/hROd2CzNC11XXOleNgdlGop/2RcfEEzZHaj1O60dC+aCkDag6pcKfVztpoST2VXRzMqptTnj0ynpPadRUZqJfEnyW+q0tNDHEz8Igeih0zQIxpwfZOOc1jS5xwtIkzyMjaTJgeoTPDFXU1HFlA2jcQ4SbO+yqKieWsk8KMkjutfwDQMpr9b8gay/n9li1qR3L5q8MpWMkp2VDS3qstw9wRWnjR15qGx08OdQhaOvddRp2f8PH/ANIUuKMAeq5xs4wbAJQCNoSmhEABDCUAlYVDRbsmyzZSMc0gtQQaqmbOwg8+hXOeMOGGzskexm/ULqJaotXTNnYQQMoPKd+s76eRwLTz2KzMsOkkEL0Zxhwu2dj3xs36hcZv9mkpZXZacZ5piMVVU2c4CiRgsdjor5zNLsOCQ+hbI0yRjPopK0K33EQYOckclWcQ3mvrH+FCHBhPTr6pNQ000ckvZOWWQ1dP4r2jdavSYbt1IYog6TdxUzQSVKMaAZhZEcRnBUinGggjdBzC5vl2T0UTnDSwEn+6Coq7a+suAc0YLtjjmu4fA7gBkFxirqw4cwZYztnqfVU3w+4RrKt7ZvlTk8nvC7zwlw+LSDJI8ulIwVdGuaAAANgNlQ8V3+ns1BLJLI1mlpLiTyCfvV3ittI973gOAzv0XmD4j8YzcS3B9PTyH5CN3PP+qf8ACvM1L4VvGnE1TxPdHPc5wpGE+Ew9f4j6qpgiDQMooYg1uTsEoEySDSNgdl1ZOyREeY/Ty9kU9QGR4j5Don6ydjKXDicgb+qyc92LHlrA4j0UItYWvqJDqzjqrAhkMep2AByCYs9QJodUg0jnuoHEFSXNcyF3PmVNXEC53A1EpYw+UdkzSQGdwB+lRqaF0kgaOXVaa30wiYCRusr6UF9hfTRjwgfsoNiofHqmyTglueq280MUzcSNGFXNdA2fw4cc+iuGod8oowGPohhzewxldH+DvGjrPJ4Nxjc2MnZ56LN0VK2R2XgY9VMfFFGPI1vurkvipr1JbuJaCrgbIJW7jmCrOnraeo/05Wk9l5GZWVFPtBUSxjs12Atf8N+ILnPxBFTOqHyQkEnKzePytS69KtCdaMJml1GCMu56RlSAucUGpQCLCUFQYRoD1QRACMBBGgLCPCCCKZqqmKliL5nBrR3VOzim2Pk0CoZnOPqWd+MVU+l4ekLXloOASDjbK4k2jkqGsfTVDxuCcOXf4vhnc21jrv6vVFPPHUM1RODgeycwuJcL8V1VpDIqh7pIwMZXQ7NxlR18nh6gHfop38HXBz3Ompwk4So3tkaHMIIKPC4tmyNkgtT2EWFBH0ZTT6WN/wBTQVLwiwiojaZjfpaAl+Fjon9OUMYUDIZ6Iw3uE8gmKaAR4TmEAEwIAR4S8IYTEIwiITmEWFQ0QkOCeISC3mioz2pl7A5pa8AtPMFTHNTTmIOQfEj4bMrRLcLKxrKg7vi5Nk/wVwqtoJIJnxTMcx7ThzHDBaV7QLdiDyXPviJ8P6a/QuqaMCGuaNngfV6HurL/ACma8j3q0tl1SRDdZSop3ROIeMFdZvVoq7bXSUtXA6OdvNuOY7j0WcvNjldAJX08jA/dri3YrX1ZYIhXfBsXi3XSeyr6ukfC52QcBaL4fQaq6SUjlssEWNdbxAJHDLiTuqeen64W6q44xI5ruqp6235BMe4RWcpaffKsWR4GE4yDSSCE4GYCioz2qDUsOCrOQBRJm5QVEeuOTLCQr+2Xd7AGS7hV4gyc4Uyntsk0Tntb5QrKmNLS1UcrctI5IOaDlZtjZqY9QrWjr2vGmTYqyifTUjqqbRHz5Jd0tc9tc1s7NOoZR0s76aRssThnmFO4gvEl4kidMANDQPdA0JNQ5pHi9E23Yc0CN1wVIEiejk55UIZA2RtJHugsWyY6oeIAoTXkBGJEVN1g80QeFF8X9UGyc90ROa4FBxACiiTA5oF5IKB0nOyWw6hvzUTXzKUyUh23NWCURjlzC6Z8NeKi0igrX56NJ6hc1YQ9uUuKR8ErZYiWvacghblxl6VwMAg5Yd2lEsjwBxKy6UQp6hwErdjkrXkYJB/+V0iEoIFBAAggggMJQSQjCBQRhEEYQGEYRI0BhKCJGEBhGEQRhAaMIgjCAwjRBBAoIBAIBAaMIkY3QGExWVkVHC6SVwGOiYulyht8DnyuAIHUrgnxG+IUtXJLSW+Tbk54P9FZNFt8SviMQ6Skt7wZORIOzVxqeaSoldLM8ue45JJTT3Oe4vkJJJ3J6p6mgdO4DGG9lv8A0g4InTOw0HT/AFVzTwMp2ZIBchBE2nZsBq/omaqpbG0lxUQ9NK0AueQstfLxgFkRx7KPerw46mxlVFlpzcqtwkfjB6rNurIeoKOa4T5cDpW4tVujpIhtul2+gbSRgaQCpM0zYWFzzgLU5/WbUe40tNLE4ztaBjms9BTvDZGU8pEPMNPRWDjPdKjw4QdOVZOsstGxrXN58ytCHZ4jEwh2/qr2KskipzEHDw/XomI6Two8qtrppJ5PlaQapXduiE8q+/XSIuEEe7j2TlrgbHEDjnuU/S8EVgcaiqcNR3T76V9LluRspIUuSmjmixI3ZVNXZRkup3Fp9EltzqG1ohe06T1V8x+Wq+09MuX3G3ODv9WMcwOalwV8l2kEcYII2Kt6jDvw8AlybsVG2mrpPKBklY6uN8rO2ULKdmSPMtZwRRz1nEdI6CMuZE7L3Y2CrbVbpblVCGLYfmd2C7lwJaaW3UrI442iQcz1J7rGtNbTs0wsB5gBPtCIN3S2hIhQCW0JICWAqAEaASgECQERCWEMIGi1NuapGEktQQKqlbOwgjdc/wCLeFmVEcjmMGr25rpZao1TA2ZpBCDyrxFYpKSV2WHAPZU1E3QXtdzXorivhllVE8tYNWOy4rxFYJqGdxY0jH8ksRir3TmWmljjb5iqKK4ss1EyOTzO64WvlAc0tlBB7qvp+G46yr1QUktRK49sqStItJdYKuIOjDtXYBSoJHPlDSwjPLqV0Phj4WXGuLXTxtpIuzRly69wz8ObTao2F8DZJh+dwyf1QcL4e4IvF5e3waZ0URP+pKMfoOa7Dwd8LKK1lk9cTPUDq7kPYLpNNSxU7dMMbWAdgpACmiPSUkNMzTDG1oHYI6+tjoaZz3kZxsl1VQylhdI8jZcJ+LPHj9Ulut8v47xh7mn/AE2/5V552im+KvG0t1q5bbQSnwgcTPaef8I/usBTQgDOE1Ts3yd+5KsKeMSNIG67evEc7dR5Hajpby/qpDA2GMucRnG6LwxDIdQ83RVl5ll8Mtj5IIN5uBlf4cfsjtdA0M1zDPXdN2yge95kmB+6kXi4Mo6ctaRnCy0h366ijjMcH1nbCo6SvllOJQdR5p620z62sE9QMjplW1zjp6eLbGvHZQTbLTh4yGE43VwWkbY3WPt3EjKXIw7A2yOqs4uKI52EN+s7AHmrEsTbpWeHGY4zlxTNmo3Nd4smclN0NO6omM0wIbnIBVwwhgV9npNjdpbgJEsm3NRxIm5ptLC4lVC2B9RII2cydz2XTfhfbWQXqPbzaP7rA8OVULWl8jMjnnuV0v4WVMdXf5nhwAa1o391z6utyO+xDEbB2ASwktxgY5IwsRSglBJalqgBGiRogIBBBzg0ZcQAgNAkDmqm536joY3Oklbt3KwN84+fKXR0Dc/xHYLpx8XXfqJepz7WHxigiuPDk1O2XDyBgjuDlcmstIaOnDXkk46q1rbhVVzy6qmc/wBOn6KMCvofD8X+OY8/ff2Jd9RSo3vjeHxuLXDkQiIQC7Ocrb8L8aS0rmxVhy3lqXTbbc4K+IOieDkd157I2VrZb5VWuUFjyY+xK8vy/wDGnXnl24+XPbvmEMLLcN8V09wja17wH+q1DHte3LSCCvB1zebld5dBElILKkYQwlYQwgRhHhKwiARRAII0EBII8I0CUMI8IIE4SSEvCLCBshILU6QiwimHMSNHdScJLm+U+yg5Xx9RUtwrsNhb48YJDsb+yyVwtst0jhpX0oa0HJcRy2xgLe8RwmK5mQDmQjY1nPAyuvM2M2+XFOLPhWZW+JQ7ZG7cLKWfhSs4efIKmI4cc6gF6YLwTuMqNXWymroi2SNu/orZrMrzVcJNVS70TDJyw4duF0fjHgCSOR9RQjnvpXNq2lmpJDHURuY4bbhYzGtOPZHMC4YBVVUTMgk0PB9094hby5J6F9PO4MqQMHbPZZVXVEjWwOk/KN1CpauGp2a7BXR+HeCqO8BzJqtggI+nO5Wd4y+HktkldLQHXDzBHRTx6VTNjW64QtTLhZZRG4eKHcj6HkuaU1dLTv8ADqW8tt1prDepKGQSUsnlO5CYRtarhIupnEsy5Ym62KaicXaSAOa6zwzxVS3FjIZy1sp236qy4ptFNJbppHacacgrn9vrfLf1304PHLK0jSc46KXDWNf5ZPKU3DCRWOx9IP8AdP1NIyQEjZy7SuSzLeeEprT1UrwhhG2PGVwbRdGOSPSFL8MD1SfD2QRC05QxgKV4eUl0WyCG477I2g91I8FJMeEQ0Dsj1lL8Mo2QklA23LjgKVFH16d0uKENGTyUaurWxtIBC6TlNOyVbKc7ny9VNY5skYcw5aRkFYK53Iuc5rTlTeFL0YZvlap2YnnyE/lKmo3VprpbZWsqISRg7juF3Xhe9Q3i3sc1w8QBcDezI9Fc8JXuWzV7cuPguO47LUo73/VEo9trY7hSMlicCSMqSVtBIggggMIwiRhAYSgkhGECgjCIIwgUOSMJISggMIwiRhAYQQQQGEEQRhAYSgmJqiKAZlcAq99/oo3YLx+qC4AVVfb1T2ume972ggbknkqq+8X0dHRPeJWjAzzXAeNeKq2/TuZG5zKYHYZ+pak32J3H/Hc92nkp6ORzYM4LgfqXPu5dlLMMjcktJT9JTOlfl3/wtITS0zpngkbdAreJjYWYaN+6NjWxNw39VFq6tsMZJO6iDq6lsLCXFZC7XR0zyxh2Sbrc3VDyxhJ6JdmtTp3h8oWd1qeCLRaJKuQPlBwVb1PD0lM4T0LtMg545H3Who6dkEYDQEqpqmwRkuP2WpGdU1BeZYj4NazDvXkfYoTOkrZeoj5oNArJi97Rpyol3ucVHEWR4zyS0kPy3iO0vYIcF+VfxXeWvga9409VzW2MluVw8V2S0FbuLEEIB2ACspS7xdvlqZ2TvhZa0XuWCudUYzuo/EFY6ebQDt1SaKECHosXpqRpa3jqrfC4AYHJM2e7SXAkynJWYrIsRv5J/hSYsnLT3WuetZsaG5Q6JWvxyKtaaQGma7tsmLhH4tMcc8KPQSE07m9cLSe1pZYjVVb3ncA4CfpGF95kA2aHFHwvK2GCQuPmyVLt9NJNXF0TSXOO2Fw6vl0jU2yX5UtbS58U9l1vgeKqbB41YfM5ZjgjhUxhtTWDLzuAei6RAwRtDWjACQWDXp0OCjRnIToVQ8CEsJpqW1UOBGEgFKCBeEEWUYQEiIS0AEDRCbLVIIRaUEKaESMIcFkr/wALR14I0DfqtyWJOnPRQcppfhlSul1ztDh2K11o4Xt9taBFAzI9Fp9Hoi0BFRY42sbhrQB6BOAJ7QEYjUwIA2RTSNgiL3kABOP0xMLnnAC5l8TeNobRQyEOy8+WNgO7irJviCl+K3HYt8LqemcHVUgwxvb1K4MHSTzPlmcXyPOpzjzJQrqyouddLV1by+aQ5PYDsEpvkGBzK6yZMYt06Djyt5qbQksBJzhRaePJyeSRca0QRlrTv/RVDd5uAiOGHJCqKSslqZ92u053JTLWyVk/plWjzFSQHYAgbrOtSLJ08MdLzGrCx1ZTy1tw1O3jB2CiV10qJakiIOMY54U6grgG5e0gjuoRcRtZRU2+M4WVutY6pmLGHI64T92ujphpjO5R2K2meQPeNvVBYcPcNtrYdUucn+Sl/wC6z6OoMsZyGq8pAaWMCI4TktbIInAgO2WpE1CpJ9WIiMFo5nqpGcqjpasmuIdtvgK5B/RXEOF2AqW7VnhuDTsCVbA7qLV2h1xIbHkuJwMLPXpeV5w9W0RpGtfgOIwtZwrcWW+904onN/FeGnKw8Hw84ghhD4G6h0byK2/wz4KuMl8imuMUjBAQQDyLlzjb0xZJHS2+N7zkkKeFHt8Hy1JHF1AUkJAbUYRBGEQY5LG8Rca0touEVNK8NdIfKPZbE/SfZecvjLIIeIqaQHcMd/Vb+OTrrKl8R2V/GFEyk8UyNG3PKxl743qKkuZRghv77v7Bc4slxjqow0vyR0JV4I9vRe34/g4nn24dfJfRFVUT1by+pldIfU7BM6cKT4WyToXqkz05aYwjA3TuhANRDZCLCd0otKBvCLSnNKACKKnllp5A+F5a4dlvOFuM3RlsNYcdMlYN2B1CNjRz/muffx89zK1z1eXeoLzSzNBa8ZKsGPa9uWnIXntldURPDmSv8vqtvwvxkWlsVUcHlkrxfJ/xrzNjvz8srp+ESi0NdFVxh0bhkqXheV1EggjQEgjQQEgggiwEEMI0BIkaTI9rG5ccBAMIsJtlTE7k4KPV3KGBpOoEhBLOAMk4UCtuUFM0+YZWeuF+fMXNg5d+ioppJJX5lcXFbnH6l6SLpUitqi8DyD+aaDttkhozslZ07LcmMaMDJyU7G/GcJqPByjIwdlQt5EuQ9oIWY4k4So7rG78NoeeoC1TMaN0gbuOOSivPHE/BVbanufE0viWKqmujDgQQ4d162q6KKrjLZWg5XMuNPh9HVNfLSN0v9As2NSuKUN0q6M5hke3HYrS0vGdRJF4NYdbSMbqnu9iq7XK5tRE7SPzYVU9m/JYv+1XlyioridbQ1riqptqlgfqhd5U3CXM3BKsaWtxs9A7StmiLXtJa4b5Whnv9fPRmCaY6MY5qrq5I4KETagXZGR7rNVFzlqZTHCVPBLVvVXCCmBDSC5Vwrampk/DadKFPbXEa5sknurOnjEQwAqjUA7FAbe6QCizjK4Y2eyMI8bJkPR+IB1QLAGcdUvTkJsPb3RumAB3QGWDqmXAZ6Jp1QScBPwMLtyrIhUcWobpwtZEMu/RKkmZBGd91nbtdQ0O3W5MZ1KuVxEbSAQsjcLi6Vzg0/dR6ysfO525woql60kHuSd90Y7g7oglDckDJUVuOFLx83CKWod+MwYaT+YK+c1c0oWyRTMljJa5pyF0S11grqZrjtIBhwRG7+H/Er6CpbS1D/wAM/SSf5LsEUjZ4hLGchw3XmsgscHN2I3BXUfh3xR4rG0tU7zjbfqunNR0TCTpS9iMt+k9UWFoEjRIIDSgiCMIFBGEkJQ5IDCUiCPKBQQRBGgCAQRBAoKHcbhFQwuc9w1AKPerrFb6dznOAIC4TxzxtNXTSU9E86eRcFZNFjx5x9Mal9PQSZcObgeS57LeLjUSFz6yXJ7OwoOl73FzsklPRQu6rc8ekOvnqZm4lmkkHZzspyJncZSmR4G6dY1EGImOGCEbYWtB0gJQQyRlEMzxu0HTzWSvMNZI4huSFtA/b0QLYn/U0ZTFlcwt8LqavHzTDpPInkts2qpKeAOjIBxuFY1NrpqlhDmj9FAdw83YZy0KYaji8F5xG3+SaeJqp2XnZWkNqbCPK1KfAWj6eSoztyrX0UJawH7LGVlU+olJeSV0mqpop2lr4+ayF9tDaYOkiG3ULPUWIdkunyMgy3b0Wmqr42ppcNySRyIWJpqeWZ58Nhdjn6K9pIiIsOG6zq4jiMySOceZTLxPTknVsriGDmTyUi22KpvdZ4VPG8sHMtCiss588xJzsp9oa6nqWud1XQ3fDiWnpXSPbKMDOSsZW0UlPM6MjeM4yk8VGrjd4lJlu5AyqS21hFwkhdtvtlWVkl1wBrueFR3NhpLwyUbNJwV2YjYWKB89yFNHu57tgu4cFcHspdM87QXcwuI8N1oo7zb6s40B4a72Oy9S2CZs9vY5vZcup51vn0mwxNjaGtGAE+wIgE7G39FlTkYTrUloS2hVDjUsJDQlhAoJSSEYVCwhhEClIAAjCARhASGEaMIE4QwlIKBBai0pxEgSAicQ0Ek4ASthzWU4v4ght9LIXSBrWjJJKCs4/4sgtVBNI+QNYwfqvMHEN4qb9cn1dS46c4jZ0YP8AKsONOJJuI7i5wc4UjD+G3v8AxFUbGaRnC6yfVm0qCMagFN+VOnUAo9M069QU6oqWxQZJIOOSrJt/khOhZ2qimnqNOCcpVXdXatIzgnbCsra4FuqTbKjUN08TKSDf6sLOXitfUzeDCT6q5vsxc1zITuVWWmg82uTc9Ssqk2i3xsp/xNsczhV14fEx50ewVlc61kERY08tlnYIpK6qzg6cqhy00DqmUEjIW2oqZtPEAAAcJm00LYIwcK00qyJTXLmo852KlEJmVmcrTLMSgx1+rplaOB+uJp9FV10Hm1dlMtzst0+iipgGytuHJhBcmOPQ7ZVW0J2BxjnY5vPIUsI9JcL1FPcY4G6GnYZW9pKCngIexgDvZc8+G9G2GhikLgXFoK6TC7LRlcJMdD4SgkNSgVoKQRZQBRBSHEbz2BXmj4xP8a/u32ZF/UlekKqUNhk/6SvNfxKb8zxBVgHk1o/quvxTynXpy+3Xl1DcMB+wPddUsN3iroG4cMrhF1iMFXI0uzg7K14W4hfRVDWOccZ7r0cd/W45dc7HfGj9EHMOFT2G8R1sLSHAnCvGHIXsnWuFmGNBQ0lSNKTjZXTEfHoiTxai04QN6DjJ2Ch1sojYcZVi53lwAoNZTmUEjmoKKvhuJb4lKC8YzhKtV3fr+XrI3Ryjo4YWr4TIirhHVAGM8iVtr5wVQ3ilbNExoma3LXt5rzd/Lfj6zr07c8TqeHOwMjPRNSSsj5HJ9EK6lqrdVOo6lrhj6HfvBJZRk7yL0c9bNcrMajgjiOaCu8GZ58M8s9F2OirIqqJrmOBJC8+RxiP6NiOoVxaeLZbY8MlkJYOq83zf8f7f9uXb4/kzxXdEFkOF+K4LoBh/6rWMlY/6HArwXm83K7+y0EEFAEESMIAgggigstxtV1ENGRS/XyC1Kzl/LXyaSMqbixibVealsZjnc7X6pNRUz+ITK8vYenQJHE5ipIDI3DX4yoFnucdbEGvxn1XXjudMdc2LimdqbkFLP1KMGOhflm7Cp0OlwyFtkBjHqkacklOEAH0R52QNBmE6xmRujbhPNORsECBGXbBJLCw4T7fKSVHlmGo55qKUw7nKbmezcEZTEtQNLtO59FEgqA5+JNlnVxXXnh6muzCJIxg+ixnEvw2hNKTSsw8DousRlujypTsOaQ4ZQeU7rY6q2PLZ43aQcZwql7cDbZepL1w3T3OJzTGCT6LjvHPA8lrzNTNLmjcgLNjUc4rZXupw1x8o6KioZnMrwRuMrUPopaoaImEnvhOU3CE0X40vNYVZUdbA+NokAzhSCIJMlpAVPNRvhJzlQq2SZkBEJOs8ldG2b77IPKjfMBoOCmJaob+YLmiU5+BzUOapIPPdRpKnOd1EkeXZVkNWLav1TscrpdhyKr6WmfK7lgLQ0VEI2ZdsFZNTSKSmOckbd0/U1DIIyAmq2uZAwhpWRut1c9xaw7q+IJV0u+7g12T2WcnmfM4lxPskvcXOJJySk4XPdUQRhBrSSn4oSTkoG42F3RTqalzjISoYwOymRuDRzVDsEAaN1Ooqg0kwezl1CgtlwjMmyo2sUjKiISRnIKVTTyUdSyaIkOacrL2W5Gmn8OQ/hO/kVqHAOaHNOQRsU1HauB+IornRtjkcNYGCD0K1L24Pp0Xnex3OW1VzZY3EMz5h6LuvDl3iutCwhwLsLpLqLFAJTmlpwUlUAJQRIBAoI0QRhAoIwiCMIDCNEggNVt4ukVBA4ucA7CmVUogp3yHoF57+LHGErah9HTPIcfqI6BID4+4xNbPJTU8h0fmcCsCaiIczuqF1RJNqcHFR4XSSzFhccc1ft+GNQythHUKTFWwk8wsY9r2ztbqOClTukh3a4hPsY3kc0bgMEKS1rXDLSsPFWSRxhxcc4UuivrhgOKs6TGtLCAmiColJeI5GjURup8c8MvIhalTDJaUnBCmmMEZBCadGRnZVDLXEdU42UhDR6JDmoiSyQdcJREb+aiDKPUUDktHFIDgBVF3s5qIi0dsZVq2RyWJiBumau4ZoeF6S18Nvme0GZzS7JWKhgeC/WwjJyugOnM0PhSOJjHQqFJQxO5ALF5anSltFnqLpVx0tIwue92Cew7r0fwHwPTWW2Rs0B0hGXOI3JWN+E37OoZHumMYmJ31c12yjr6WZoDHNHss5jShvlpjdQSM0DkvM3E9uEF6njLeeQvX1ZCyemcGkHIXBPiPY/DuDpwzBJzyUvocjos09UWHYFNcS0+uISN5jdWV5pTBO14HVJqmiooztnZdObsYvtFtcvjUI38wGy9LfCi7/AD9kpy52XFga73GxXl+zHwpXxnkCux/Ba5+BVz0TjsHCRo9DzUvmLPbvzG7p9gTcJD2Bw5EJ5oWIpTQnGhJalNVCwjCIIwgUEoJIRgKBQSgEQRhUGEYRBGEBoIIIAgiRIDQTE9TFACZHAKluXEUEMLtDhnvlAriO8R0VO8BwGBucrzL8SOLpb3WyUdM8/Ksd53A/We3sr34o8ZvqpX0FBKcn/Ue08h2HquYxRLpzMZtCNuBnono4y48tk4yNSYmBoyqyQA2GMudhUVxqzK4gclNukz3Za36QodBSGV+uQYaO6lag7dRjT4k7c9k1ebg2ljOj6sbAKZcaptPCcEABZuBjq6r8STOnO2VFMU9wlkk1TNI+ytHXBsUOBtlPVNLFDCd2kkcuyoZojI8Nbk7qelNzSSVtTpbkjK1Vkt4iYC4KNY7YxhDpPutK0wMbhgIViUtg22S+6JpGNkWea2wGElzfKlIz9JQUtfykVZRXWOnrND3AEd1aVw8jz3XPL24ivdg8li3GpHU4a2nnbzHuE/oEn+m7dcjpLjUU58kjvbK09kv80kml+/RSdL9XpX4Z3Od8EEZkzg6SAu30n+g3PZefvgpE6ohbMWkAvK9Bw7MaOwWL7ah9pSk20pYUgUhyBRIHlsqKK9XDwY5Q5vTmvPvGAfNcq+pAyMjb0AXe+JYnyU0mkb4XB7/4vzlRFK3BdsfZdvg91jv04Zf5HGukJGASqd4c3DmnddEvlobI5zNO464WPrbf8uSHLffNjEq44O4kkpJWslcea7TYrvHWQNIcF5uewxnLTgha3g/iSSlmZHI87Lp8XyXnxU65139pyNuSB2Cp7Hdo6uFpDgThXY8w2Xrl1x9GQ4I8ZSnM5pl8rWdclUB2yjyVDW8tykSSPkOB+gRR0pJ1OQI8Z7neXI9l0Pg3iLwImwVTt+W6xMcQYPKEZPh+bVg91jv453Mq89fW+HU71ZqK+U5cA3WdwRzXMr3QzWOo8Op3hccNerewcSyUrwx79TVUfEi5Ou9J4dMCX5B1dl5/j47+Pr6/x16vPU1FBY5moEYWZvkrdR8PcqvpbvUUp8CoyOmStHbaCKsYJn7k74XptcpFdwzdqq3TF4LsO5rqXCnGvjThk509srB1sFNE3DcFw7KvhjeJQ5hII5YXPr4p1PLfPdj07Q1LKqEPYeYUhYDge/MFIyOZ414xgrdwTsmblhBXze+Lxcr0S6cQRoLKiQQQQJLgAd1mLs8eO4noFc1VUyJxaTusjfKuPDyJAD7qVqOb8e1cr6sR6sRdcdVnaKvfFM3wzgjsp/E5lrK4AfTnnhIt9DDBh0hy5cr19a3JrZWa5+PEGy7O9Vb6SzD4jkLCOrWRuxCcEdlobJdxIAyU7+q9Hx/JOnLrjGijcJG+qUG80xz88ZTscgLfNz7LowUW9k617Y2knmmRIXbDYJJhLvQIoOlc/IbsEUdMXAl2yfia1jcAbpYO6Bu10ANQdf0lXVbwpFLSukjOJA3LQFEon6Xg9VqmV0QpxqO+MLHTUc5fDUUswje0lp6qxEHlaTvlaaqpYqqMuAGVn6hslKS1w8g5LMq2FNYGN3VNfKCKugcyRoI7Ka+o1nDDsm3Nc9pxzVxGAHBsTJSYIx35Kj4itFTTxPc2PDGDJC6lD4lPIdbdjyUqqtkVXSuEjQS8YWerjUmvLlzk1Z2VBM9zX5xsCvQnEXw8p4oMsbu7kB0WEufw7qWx6o2Eg+ilJGJfUHHNMulcTzTZRMa57sNGSoyWCSdsqyt9E6RwLx9k7bbeSQXblXbfDpYydsqyBVNTMp49TsZHRQbpdGxMcGkBQLteAxpAd9lk6urkqXkuO3ZL1nokSbjcnzuLWnbuq3nzRnke6DQScBYUXNOMic4ck/BTkncbqxipwAoK+KDHRSWR4HqpghA5BDwlRE5ckeSpPhYyiMWO6BgO9UernlKMe2UkN2OEBErS8N3XW0UtQ7zD6SVnAzIKIB8bw5hw4bgqjoUrO6vuDL8+1VrY5HHwXHb0WRsdxFbAGPOJW8weqmyNwduaTwj0hb6uOupWyNcNx0TpXJvh9xM6F4pKl/LZpJXWIpGzRh7DnIXSXUGgjRBUGEoIgjCBQSgkhGCgNEShlJyggX5xFtkwvJvFmajiG4uedxJgZXri4xeNRSs64Xlf4iUL6DierBbhsv4jT/Ip/FjCQv0zSsHNLoT/AMWclR2ZFc/1TlMdNaPVQOVRxVMyircnbshW7VDD6pVYP7IBMXCnA9EimYDBnlupMwBp257JmH/6bvugTT68vwTgdk/T108UukOJTVLt4mEiHJqgSgvqW+vjcBJsrulvEUoGSFiKgDWANt0/IHMALeS19kxvopopORCd8MO5LCwVs0TW781a0V6IA1khanSXlojFjokeGmqa5xyjchS2vjkGxCus4YDURCleGOm6SY+aqIw2yhqI5J0sSTGgS2Qg5BwR1V3auJ7lbyPCqXOaPyv3VJoScYRXVrL8SsNDK5jmH94bhHxVe6O6UeqN7H9QuVNcQnY5CORKzeZVlC/07ZKYubzCz1GfI5h5haN7tcZY47KvNGA4kdU5mFuqV9N4dQHjkVpeDK/5DiGinzhrz4bvv/3VTWQOEZI30lM0zyDtkOBBafVUew7DUCooWnOcBWbVgfhjemV1qgeXDLmgH0PVb8d1yzPDRYRhEEpqoUEoBEOSMIDASgiCMBQGEpEEYQGNkaJBAYQQCJUGq663GOjhcS4alLqZRFC5x6BcT+KvFrrdTP8ADOZXHSwZ6pJoY49+IbaB7ooHeJOeTQeXqVy2t4vu1wLhLV6GO/Kzb+ay1ZUS1M0k9TIXyPOSSqmrrxFnfAW5c9GNXra4knBPMlKb4Z5hYL9t6XbPI+6mU19cfz+X1T7J9W1boxkHCUMdHLOQXFzxkYPopDbgQcuBV+yfVbPpQ855hCWPw4iAMBQYbm0nd2/qpsVaxw5gpsMrNXCllqp8ZOgdFMpqX5eLURur9vgPO7W+6W6likaQ12Ew1ja2RznkYKcoaYNGp/NaJ9my7UAHKPU0LomEaTlZxrVPW1Zj8sRwfRPWuOeR2p73Oz0KTHbnum1Pyd1eUkIhjHdXmJafYNLQCjR5RLbIeiDvpKIIpXYjciKitcHZaslc7Y6Wd0gBwfRaWpJMytbRTxTuAdjPquXVbjmT7fKwnbKseH4CKjzNIOey7Pa+Bae6ygacA9Qptb8G54HCS31B/wCl4yFidStY3nwPp9NopjjmSf5rtLQue/C/h+ez2+CGoIc5gwSBsujNVvtRNSwiCUFEAFAlDCLCoj1cQlY4EZyuX8d8KmoDpoBiQbgj+i6q5RKunbNG5rgDlWWy7B5auFG7W+OZmmVuxCx18txkDttwvRPG3CQnDpoBpkHIgLktzoHB745maZG9CvZx1Pkjh1z9XIaqmfG4teCFE0ljw5pwR1W4vNtDidsELKVNM6NxBCz1zhLrScJcRvppWse4jddjsd2jqoQQ4HZebQCx2ppwQtlwlxG+nkax7tuW638fyZ4TrnXb6h7ncskHskMpnO3fsFFsVwjrIWkEHKuHaWbk7L1c9a5WYZZC1gw0I3aWjLjhRa25w07T5hlZ2qutRVOLYGnB6q2mLutukNO0+YKuhrvnnlrSVFprPLUHVUOJz3Ut1sdS7xEfZSAPjnp36s5HoptNXNkAZK3dNUtYP9OfBUplJDI/VG4KitulDSykPDMlCmkkjj8OP9ArSSh1EebYJ2GmZFyAyphqsFM4+aY4Cm08cbWeQJ2piMgwOSOGLQ0g81cUIpXwvDoyWkLX8N8Vvie2Ood9yse5vNN4wdisd/HO5lXnq8u8226wVbAWvGSrIEEbLhFovNRQSjzksXSeH+JoqpjQ54yvn/L8F48z09HPc6a5EkQzMlblpBSyuDbL8Uh0bHPYDnCzUFk+bYZ/E35ku5D7LolXSMqY3NeM5WKvUFXaQ91O0vZvgHkFrnC7/GJ42oI6aEPp95B+Y8ysPE+R5OsnPZbKufJWPe+Uue8889FnK2mdES5gKny/H/YcdfyhBCAMvO6faXNdlm2FApnvc7DshX1JTa2DUvLv1d55W9kuji0MlytG0NmAcwjKyb444YcjZyftF1LJdEh6r0/F8v28Vy74z01sTGtH8SMtJOUUD2zx5B3UiIa9jsu2uZkNzyTzYD+ZSYoQ056ISuaOWNuqmqTpDG9gk+NhvPATM0uRgblNNjcd3nAWRZUtx8M6c7KeTDWR74JUSz0EVU85yQOasq23x07dUXl2UslajHXWL5Sr/D+go4KpjG6iVMuFO+cnG5Wcu9NVwxhscT8H+a1J4Rbx1LKqcNA681ayU0sj4/B2aNys1YoZImh1R5SOi00FzaxjmgZWPrlXVLfKzFYyB3JnMq8tdNBWwAFoIwqOWidV1j55Rz5BW1DO2hwxpUs1ZXjosUqga1rsnqUhgDhsMopHmNuR/NZlReGrjgj2IVBdbuXFzWO3KrayrkJIBVa85dkklS9GFyyOlcS52UkD7omnJIByplPECN+agYbCXHlsplPT+ilRwtxun2tAGyYBDE1vNOkgJIKTq/VA4P5ox6pAPNEXdygcCScEf4SC/ZG1wPX9UALeabLeae6JsoCa3IQdGlNHTKV02QJpZX0tQ2VhII5+q2dHUMrKcSNIz1CxT+am2iudR1Ayfw3bFUatrnQvEkZw9pyCur8A8Stq4WwzP/EbtgrlQLZYw9hyCl26rlt9WyaEkYO47qyo9HscHDI5I8LNcIXyO5UbDqGrG60w3XRACMIkaBQRpKCAEpKCCA+hzy6rjfxmsDKin+ZhaPGiJII6jqF1uunEEJJ7LAX6Q1viRy7tKDzIIA6rLwN1H+iuafVbvivh2Shq5J6dhMbjkgf1WMfEXVWroCopu4DVM30KVUDyt9kqtGJQlVY/DYfRQHMM0rcJiEH5d3XBUnc0WUzS7wSBUFSN+seiTAP+ICdpW+d49EiIYnCATN/F+6enGMeyKUfiH3TlWMMb7IG3uxG3rsg3HgZHNE7eFqID8D7oFUz3jUQ4jCnU1zlY7BJIUCl+l+EIf9VNGnpLzuA8/qraKujkG53WEO78Ap9tRJE7yuOy1OkxugQ4ZBQIKy9PdXxgasq2pboyQbkLUus4nFIcEtkjJBsUZZsey0hjCMJZCSBugPfCAJQzhFnKilENeMOCjGjAdkck/wBUoOHVQWfCt+qeHanMeX0zjlzOx7hd34P4vprtTsMcoeOXqF51LgRzV78OZpIOJdLHEMe3zDpkKWaseoGkOAI5FLaoVqfro2HOdlMasqWEoJISgUCglBJCMIFBKSRyRhQGEEESoNEhlJJQQL24toX47Lyz8XJ3yXiKNxOkAleqbnH4tG8DsvM3xltz4auGpDfKCWkq8jlFe4siOFk657nvJcStlVReJG7mcrN1tIWuO2ymCicEgFzHZaVLlgc0nAUZze6irK33EscA84WippxO3nusRjCtLbXmIhrjyRGoLSETS4btJBUaK4MeOikRzRyDylVT7KuaPcPz7qZBdXNGHA+4VaR2SFdGoprvG7ALsD1U+OtjlG+khYhORzSR/S4hXUxtwyB4zgAnsiNNn6d1loLpKz6/MrWju7HYGrHurKn1TpIizOQUySp8NXHNscEDmlup4ZAS3Y+iusq3Oyj1TiIz6qzfRPH07hQKumedsFUUoAMhJUukc+KQPjCQ6mc0OOEqlkAONQBHRZrUdP8Ah7evDrGNc7n0K9A2h8VTTNJa07LydZasU9ZG/ONxuF6M4Dujailj8wIIXK841K3LGNZsxoA9E61JbgjIS2hFKCUEkJQRAQwjRKhBCbITxCbIQQqunbNG5rhlc0414VEzXSwtw8ciAuqkKJWUzZoyHDKvNvN2Ga8sXa3ua98crNL2/wA1j7rbs6tsFei+NeFRKHSxNw8ciFyO625zHvjkZpkavZx1Pkjh1z9XJ6uAscQRhQmvdDJracELZXi3bOOnBWWqYS1xBCzecJXQ+Ary9pYC46SugVdydLDoiJJXIODHBpaCd8rrdio2yYcXZzuuvxM9GaWzzVb/ABJySPVSJ3U9vbgYyFpqgsp6Q4I2C5tdJXT1j8nyg7LtesYkWj70ScMzhPw3F748uyqKJuGqbC8tiwuf2reIFfXu8d5YSN0qgv8AJC8CQ7KBUjL3H1VfM3Kz96uOn2u7R1LB5hlWgw4ZBXJLfWSUzxgnC2dmvge0B7l15+SX2xecaYhFjdJhnZM0FpCcwujJpzU2QlzSiMHIRQnxBnCBGE5SzyU8gdE4ghAsRacKVY23DvFTmlsc7se66Bb7lFVRgtcN1woNI3GyuLNfJqF4DnEtXl+T/jy+eXbn5P5XbRuMhRq6mZUxFr2g5VDY+IYqpjQXjK0UcrZG5aV4eubPFdo5vxFw+6me6Wnbt2WRq42FrtTcO7LuVVTsmYWuGcrAcUcNnLpYAQfRa47zxS865dLT6JC9g2TzLn4bdPIq7kowA5jm4IWfulvcXExrPyfDL5hz3ninvnDMOaNmc5B3VG2Z8B0uG4U2jqy94BK82WO0utbablJC4MkJWtpKpsrRp3csPStbI0d1d2Wcw10bJT5SQF2+P5N8VjrjPMad0r48B/XkUPDc/wAzzgKxuppxbXOBGpuCD6rJ1FzlkZop2lzu45BddYxZVNVDTA7jKhsqJa14ZTg4O2eihU9vknlElY84/d6LT2wU1OWhoBIWbVkWNja63wgyHOeeeqduFX8xsx3JSonQzs3A2WW4grW2+pYW/TndIL610+ZAXjZSbtTQmLk3IVLQ36FzANQ1KRPXNnb5TlVFNU034hDBtlNS6aaMufuQpk8xGRjCr5vxAdW6uA4ax0oOBgIickklNRjQMBR66rZTREuOFnrqcTa6/D8PXzdzjiea4haOH4pogS7JKO8cNNhp3PA6dlDt9/8AlAPEaQB2Uus4rp56dw1b45KSc45ucXOHwJ3NKqqiXSNlcXWrjq6tx2A9FFfbg9upm45rmKqmqMSYKu4HjTkLO18TqaQlSbbXatiVRpY5Nk6x6r4pRjOdk42UBQT8pJI6JkS4CSJd90EhpJ5onkY2TTZN0rWMICzslsITQdknklA4KB/Oxwgmg7KUHAIFZ6owfdNl4HNIMoCB5w2TLnYSXS9MqPJJlBpOHbr4bvlpjkHllaZ7cjI3BXMBIWuDgcEHIK23DV2FXCIZTiRuyqNVw1d5LTXNOT4RO4Xb7Jco66lY9jgchefZWbrU8DcQvoKltPM7yHllalHbRugFFoaptTC17CDkKX0W0EiJQKJAEEEEEGvZ4rC0rM3C2HBLRuti9oOcqLNTgg7IrmF2oNcbmTM9jhcx4g4fEUzpYRpOc7DYr0TW21szCNP6rN13DEckbwWbdkqPNlbTuE2HtwQirGfgt9F1a8cByTSP8Ly9tliLtwzcKOUxuiLwO3VZVRxNzQlRqNp0yhWU0MtPG6OaJ7Cf3go1M1rdfqFQxRj8Vw9ElrMVH3T9LHicnugWYqPTKBuobiUpdV/pNR1TcPR1Dcws9kDDR+E1ONb/AMMcd0Gt/AHunGj/AIZyBikH1+yOFv4qVSDJehCMTBAkDEqOXPiFGR+L90VV5ZNkDsuNI3wlt8kYc1MyHZvsnM/gDsgl0dbI04JyAriluGRuVmqR/mcrBg7FWXExomVDH9U60A8isu6Z0T8BymU9wLQNS19kxeFuyJrVFp61sgG6lteHAkFXUwTgMKNI7GU69x3USeTAKikPn0lSrJeDbLpDVc2tOHeypZZfNjKQCTsmq9dcG3VlZRx6HAtcAQtUFw74L3J77dFE9xJjJZuei7dG7LAe4Wf6HAlBJCUECkYRBGgUEYSQUpqgNEjRKgklGUSBLyNJDuRXLfiZYW3GimjDc6hsexXRa6obEDqKp7hUQVNO5rsZxzT15Hj+rppaKrkpqlpbIw4IP9VFno2ygkdV1f4kcPNq5nT07cSt6jquaaZKWUxztLStQZyqtzm5OnIVJVUmCdl0ORkcjDyyqOvoQ5xwP5K2IxD4nNzsmi1aWW2FxIaCkiyHG/NYxWc8R7B5XFW1nqnvcGuRVVpe0nTunLTRPjflwKYrRtGpoKS4YTjBhgCIhA0Ajxsl6UWECMIuWE5hDCBcFVNAfI847FWVLfHg4kGB3CqXDZNkJtG6t91je36gSVZF0M7RqAXNY5HxnLHEH0VjSXeaLZ5Lgr9kxr5qBrmnwsFUtXbfMfKWlSqG8MlAGrHdXMU8Uw82kgrSMrE2anOD5m910j4ccViilbTTuw0nykqhltzJBmMgZ6KoqaN8EmW5aRuCENetLDdG1UTdwchXrVwj4YcSF9NHFPJ+KzY5PNdnttxjnjAyMrnZjazCUFEqayKnYXOcCs7X8VRRZGto+6iNagubVHHVPE7zVDP/AFK94f4nir8aJA4HsVcsGsISSEbCHNDh1QKBpwTZCfITbggg1tK2eMhwyuZ8acKCYOkibh45FdYwotbTRyxkSYxjqrz1ebsM15Vu9sc1z2SNw9ux2WGvNuIJIG69H8f2SlbE+Zm0jd8jquLXgRyAgAZXs57nc1wvN5rA0dTLRzDwx1W+sHFxgY1sig0XDsdQ3Vjc9VHn4Zma/DAceic7PR/6254mNdFpj6qJoALnykD3UWzWV1DTh72kvxtlOiz3a6kinicGE/UeSvff19nPO+gdcKaPbUli4wPb5XBKHwzucwLpJXZUefgK60ILmlzwFyny639DUml+S3kockZypLYn0rSKgFrhtgqOypileWg7rephsRpIqhTvHmwVNbGCqLiKhn8MviJyN9lNGytF7LcBztlr6CvZO0bhcEtt4fC8Mmy0jbdbqwXnzN823uuvHyfysXl0yaHxOSEUYjGFCt9xbLG3UVYNcHDI5L0RzFslNaCURKIPwlglCBpZyySoUjdLiE+2YgYyo1TNG0+Zw2WYqRSVMtK8OjcQttw/xN9LJnbrnTamN2zXJ9jnNOphI9lnv4+e55a56vLu1FXR1DAQ4J+eFszCHAELkNl4gmpHhsjjpXQ7NfY6ljcuGV4Pk+G8PRz3OlJxNw9kOkhGD6LDywmIuZKMOXbnCOojPIgrH8S8OtlzJG3zBY47zxVvOuRXa3B2XsGCqJhdBJgjkuh11IWZiePMFnbpZ3Fpe1qd8S+YnPWeKRa6/cZK0Bna6DW04c3cFYRpfTy6XA5V3aqrW4tcei831x2l1pKW419zqBTta4s69lqqWmjpaTU9oDgonCIp8xNJa3PMrS8QRQMtxdEADnmu3tj0xVbcnukc2IK2sNPJINcjt1R0VKaiqOkbZW5t1O2GFrdli1qRKpoi0fUqTiGgbUE6t1o4gMcwodXHrJ6oRjG2x0LC5hKYo7nJDM6N+cBa2SmywjCp5rQwvLtO5Sd2F505FVsqBulPi6hRHUbod25RxVTmu0vXWdSs3mwtzMLO8TQSTReTkN1rMMkbkEZUCthBjdtlcvn+P/JxeXt//O/5U/4vzz5K8/1VuaWbFpWXu1peSdAIPotfNKAkNY2VvmwUeFyi40lTSO8Qgub1Uy13Vjmhh5jut9crXFNC7SAuZ362voKgyR5Dc/onoSr2xs7S5vZZvzQSDpurOGs1sAcfuoVcAQSOaC4o5jJGMlSA8j2VXaNwArbTndQOMkOOeyNsh5psD2QwTlA6JSl+Nso2EWVBKbLg5yliXyqBq255SXSEdVRZCf1SXVG3NVviknmi1lBOdUYB3SPmMlRA4nqhnHJBN1otXPdRmv23Rh+6B/KepKh9LO2WMnI6dwoPibpbX5CqOm2iujuFI1zT5sbp9wLHamnBG4K57Y7m631QOfwyd10OGVlVCJIzsUHRuAOJc6aaof5htv1XToZBIwOBXm6CV9LO2WI4c052XX+CeImV1M1j3ecbFblRtEEGOBGRyR4WiCQCCCKCQ4JaCBgsymnwg9FJISVBXvomH8oVfU2SCVxLox+i0GEWkIMJd+DqSt+qJp9ws1dvhvSyw/hRBr/3mrr5jCQ6nB6IPPtZ8NJoYnPhkcHjlnks5PwbdotTvCDsL0++ja4EEbKJLaYnNILAcoryfVUNQyUtkgkBbz2TMoBjDTsR3Xp6bhSle5zjG3J9Fmrn8PKOonLzCM+gQcELPwMDuiiYfAeCuo3n4alr/wDhC5g7LNXPgy5UDCWDxWnsN0Rj6RuHu9kUbT44Vq+3VVJl09PI0d8KGxg8TKCK7ab7oq36k++M+Lkd0isZlwCBs/6Y9ksjEARubiNueyMj8BAzR48R3urRvLKq6Qfiu91btGyCBUvPiEIPfhg3Sapv4pKKVvkHsglUspDc5VnR1ZJwSqWLLY/RP0xIJcg0fiBzearat3NHBKTsTslSR6srWpisJJcplHAXHdOQ0pzyVxbKJ0srY2DcqDovwfgMbXEDYvXdoD+E0ei518O7MKSljAG/MrozBgADoop1qWE21OBEKCMJISgqFBGEkI0BokESAkl5w0pSRJ9JQZi+zEkjJAWRr6swtOnOFubjReOThZm4WTVnAIKDIvmbU5EoWdvXDkNY1zmNBK11baJYskNPuFVPZLESNyqy5hc+G56YnwiQ0KhqIpoTiVpAXYKqRj2kSs++FnLjQQTEkY+6qyucl7c7/ojMm22yv66zNBOkbqmmoXsz2WVQ3ta7mB7pDYmt5J10Tm8wUWEUghFhKxzRYQEN0eEbQlBAjShhLwhhAyQkY5p9zUjCBvSj0bFLCTM7RGT1QIyGnY7+in0d0mpyPNqaPVZKrr3Mm0junqav1DcqDpVuvscuA5+HdlbfMxT7bELmcEmpoIKsKW5TwYGrU1alTG2jElNN41FIY3g9DsVueGOP3UsXh3Iljx+boVy6guzJcZdg9laukifH5gHZV3fB6bPjH4qBsBhtmZpztqOzW/5WKt98q6yUzV87nk/vHYewVHXRxifI5BRpKpsbCCSewCbnpWqulwhnjMcbw53otZ8IampbVvgc5zmtIIysJwlaay71QZBAQ3O7jyavQ/AHB7LdE0hvnO7nEblZ0kdGthLqRhdzUkhFCwRxho6JRUCCEgjmnCklBAuM5p4C4dlybir4ix2yskp3NlfIOQaNj911W9SMjpXa8Zx1XmP4tXak/accMbmGcOJdjoPVXnFFxHxxcLsx0bWNhiO25yVjHOe4+ZxJTsc7JWZ2TbzhXWVnbLiYDgnZa62V1PK3LsZXOte6nWyq0VMQc4adQz+q6c/LeUvEruvDPDguWmaVmWHkMLoFBw/TU0Ya2Nox6Kn4JudP8hHpc3doWyikbI3LSuXfd6vlvmZEQW2HH0D9EzUWiCRpBYP0Vs1E4LKsBe+CKSrY/MLST1wuPcW/D2ot8r56AEgHJavTxYCq+4WyGojIe0Kzqwx5ChqZKeQxVLS1w7qza6OojwcFdT444GpKpr5IQGSDcEBcdraKstdS6JzS4A7FduO9c7yqr9YGStc+IYf6Ku4fjqIqxkL888LaUsU9S3BiO/dWlo4bxUCWRu+ey78821ztyJ1vpJGU4cMnqp9NVPiOH5wrZkcdPAGvwFRXWojAPg4J7BeueI4rmOZkjc6keM8isPLd5qYkuaQ1W1ov8c+A5wymmNEc6SQsnfX1RnDYQcZWugmZK3II3TM1Ix7s4Cl8rPDOUdurhG2XWc88LR25znQYkHmCmRFjIg3G4GEzgNBDVnnf6tsKcWqVb7hLSPBY44yqOpe9pOEqlqCThwWrN9pLjqlh4la/S2R2CtWytgni8xG64DVXB9IdUZIIRQcd1bXiJgJd7ryfJ/xpb/1d+fk/XXL7boZw57MZ9Fm/l2ODo34yOSr6DiqSSnAn5lRai7Zm1MPNY5+HueFvfNV18s7S9zmhUEUUkEpwDstXUXASsIKqZWtcSe6X/j/ZJ8mE2641NNVxysJ8pzjK1M99qKyACZwawcmNWVa1rTnqpDZtsLfP/HyeUvyL6ku8dDE6R2B1VVU/Ebwpy0NdjKivYJRg7qvqLVC85IAKx1/x+f41z8tbaz8bCqwATkrcW+pbUQhzjuVx+1W1sEjCwreUtTLBSh2kkNC8XXOXHol2NgI2kbFR5YQCVz2Hj5kd0dTTZbg4yVtaC7QVsYLXg59VnGlRxBcWUWA7qcKvEzZmam8yp/ENsFadZ3xuFmZHvo3lp5ArO4smrhkz4upwpkNQ2VuHdVS0tY2cgFWLgI4tY91047Y64efZ3+f1T9MS3G6rC8um35Kax4AzlGEqSTDeqoOIKFlTTuOOit3SAjGU24aong8sION1UbqaqfGehROJk2VpxdF4dYXDqqmjkAICqLq1RBrMnmrHABUSlma2MBOumHTksh7ugXgKGZ+e6QZtsdUEsvHQptzuajh+TzSwcpgVnmER39kWUCUBYwUoJPMINKIXyRFEXd0WchFKaUCeSbyhq9UDmMo2pAclNO26IcB23/otJwreTTyinmd5TsCsxndAOIOQSCORVHXzh7A5pyCpFnuElsrWyMcQ3PmCyfCN6FRH4E7hrGy0krMqjuvDN4juFIxwcCcLQDdcE4Rvb7ZVtje4+ET+i7Xaa6Orp2uY7OQtyon4QSuiLCqiRJWESgSQi0paLCBGEMJaGECEYR4QwgAQ0hABGEBaAUgwg9AneSCCK+kY7mAoVTaYphuxv6K4CHNBjLnwrT1MRYYwQemFk7j8OqR0L9MAB6EdF1/SCEh0LSNwg841fw5qIy8xykY3GQsxXcNXKCYtdTueB1A5r1bJQxuBBaN1WVFigkzlg/RB5QqYXRkRyscxw6OCSYx4GBuvRN14GpqqQudA1x9Qsde/hvreflWmL0CDjscTmyk9FYRSbAO3WtruArnSNLomtlHbkVmqu21VG8iop5I8dxsgrKr/AFEJBlo9k9LHrdzQkjOkYQMYxEE9S/Q4EIjEfBUqgpy6N2VAinf58K3gbnGVXMgLZtwrKn258k0TWRNA5LRcKRa6prWt3PVVFroZ7hK1kTTpzzXXODuGW0zGuc3zdSVFbXhmLw6ZmRg4WgaoFHGImBrVNYSrEOtSwmwlgqoWEYSQjagWAggEMoAiQQVBIY7o8IIGnRtKYlpmuG4BUzCIhBSVNsY/PlwqWu4fY8HyArZEJtzAeiaOWXHhfOdIIWYuHDMzdWG59tl3OSma7OQoM9sjfnyhNHnavslTFnZ33CoamgmGdcRI9F6Sq7BHID5R+ioa7hOJ+fwhn2WauPP0lC0jcYPqq+pog3OF2248G51aW/yWTufBk7SSxp+ynkxzF1M7PLdIMDhyH3WuquH6uBxyw7dwoj6GRgOuIj7K6Mz4ZHREQrqaBvLCjml1HYbK6K3GyHdTn0hDckKM+PTzVDRCQW4yndKDmk9EDHVJlZqYQniwjKLSR0UGar7e5zy5oVf4EsZwAVsnMDuYTD6Vh3wgrbcH4GpWRH3RxxBmQAl6T1QIaSDnqp8FwlY3STkKFp2RtCCW+V0z8bklargzg+a81TCWuEIPmeR/IKNwHYHXe4AyAiBp3I6+i9L8KWiloaSMMiaxjQAAEtB8FcI01vpY2RxBjW+i30ELIWBrAAAoVJI07M2Csm8lICQRoKhspJOEshMVDgyMk9EGO49qJRRS+DnIacLxfxOainuM7qnV45cXOJOdyV62484io6SCT5iVrMd+q8n8Y18d1vVTPEMRk4b6juk9KK03AOaGuO6uWyB7c5ysZSU80lQGQZV2XzULGmY7HZNRc6OqA26pikqmysGCpBwQcINNwvxZV2iVrXvc+H35LuXCPGMFdEwtkB7jK8yclNtN1qbbO2SmkIAOSM7K+/ayvZ1DWR1DAQ4bqYQuF8DcexVAZHK/TJ1BXXbTeIqqMeYLOWC2AVbeZ3QQOLRyCtG4cMgpirphOwgpBySt4ikknkinjLRkgZVJW0UNa4vLB74W/wCIOGGSansYNXdYe567VqbOMNHUr3/FeL6cO50YgtsFOMu0hIqa+GAFsIGe6zlXf2yy+Gx2emysbfRGqAfIdj0XomOVlMTTzVbyG5PspFLaC7zSlXcNBHC0aWjKdczSNlpGautmilhLQBlY6ttc1C8vhzgdl097MqDW0TZmkEc0w1jbNfXRuDJiQR3WxorhHOwYI3WSu1heC58Td1WUtZU2+TTIDgFRXTM5GQiJVLZ7vHUMALt1dNLXNyCroakYHjcJpkOl2wUkhPU8PiuDR1TRXzUomDgVAbao2TBwA26rWz210UeSMKrkj0khZmVUQNDRgDYIsJ4tSC1aQ3ugEohFhAEAMlG1uVY2W3mvqAOULfqPdY66nM2rzNRnk09K6Zww0Dn3WKuvFLGzFrX7+i1PxaukVqtDo4yA5w0MaOZXBI/Flk1vJJ5ryf5Pt6dvrI7LwzxKJauKOQ5DiACu/WKhiqrdu0btXlXgCnfU3mkjI28QH9F674cj8G3Rj0Xn+XHXi+HP+LuAYanXLAzTJzyFhI5rnw3UaJtboQea9GyMbI0ghZriDh2nrYnh7AfsuLcrIWHieCviDXuGoqbX2+KrjLmY3WA4h4fqLPVOlodQaDnAU7h3ieYERVLXAjbdS8/jUqRV0UtFLqaDgK0ZOZaHfsrYCKvg1EA5USWkw3Q0bLPPPlb14ecY3tc7U12Qn2uyAsPTXgsIaSQrilu7XDcrTkvnPIKKaoEUB1EZIVNNdmgHzBU1zu5LCA7oqim4snEtTgHqqKIlp2T9W91RKXO3ykNYR0VnpEiKocOqlx1BIxlQY2KQxuExUkSE75S2nKZY04S2kg7qIeAPPKcj3SGkY32KcZuilY5oBLaRhDA32UCdIygBhLA/VHpG6qGXtPqkkHdSNOr7I/D2UEbScoadk+Gc8pwRhURWtKWApLYwdsIeHz2UEbB7Ib/dSBH7ozEim6Wd9NO2WMkOaf1XSrBdGV9I0E+cBc5EW3JTLRVvoKkPGdB5qxHSpGdRsQttwJxE6CQU07/QZWHoallZTNe0gnG6UC6KQPYcOachWUekKOobPEHNOVIXNuBeIxPE2KV2HjbddFhkEjdQK1A4hhH0QVBYRYSkMIE4RYTmEMIG8IJzSi0oEIwlaSi0oCwhhKwgAgINQwlAIwECQEAEsBHhAkBDSErCGECDGCOSbNLG7m0KQAjCCBPboJGkFgWeu3C9PUscAxpz3C2GMoaAeiDid1+G1M9znsic0n91Yi6cD3CnmPy41x9NS9QOga4clBqLTDKDqYCg8m1tDU0R8Oqhc0j02TNLOGZby916YuPCNNU6sxNPuFkrr8OaWZ5d4IB/h2UHHg9riDkZHZX3DllmudQ3ykRrbU/w6hikBDHEeq3XDnDkdExoDAMKKj8L8MxUsTfIB9ltKaBsTQGhKiiDG4aE+xqoVGFIYEhjU60JELaEpqIJTVUKCMIgjQGEESNUEjCCHugNEidIxo8zgo8ldAzm4KCSiTEVXFIcByfQEk4SkRCBOEktS8IsIposBSHQtPRSMIYQQJaON4OQFAqLPFIDlgV7pSdKgxtXw1C/PkH6Kir+DoXg/hD7BdMMY7JLoWnmEVw648CtcXaWfqFn6rguWMksafsvRMlFG7m0KFPaIng5aER5mr+HqqHI0kj1Coqm2VDM64j9t16grOHYpAfIFQV3CEL9RMQ+wSjze+mc07tIPqETYCPddur+CIyDpb+oWcreCnMyWx59lPK45wymJ9SnmUJPTdaubhmaEnAcPcJkWqoiP059lm2jOi05/LuidZwN8HK0vhSxjzRuUaaYg4LcfZJ1ajOvtbWDrlQaiERnZuT2Wrc4PBAwmTbmybla+2DKRxSPdszdXVlsE1bMNbDp7LQW+0xB42XTuFbdTMibhjcqfZZEThCyR26FoYwjvst/R1D9IaM4Ck0NsZpGAMKwjoGN5BWeRKs5cT5loW8lUUMXh8grMOVQ6iSA5HqVBFVt8l8OjfvjZWRKq73AZ6ZzQM7KDyj8X6ySqvDomFxij652JK5RVNOsnlhehviFwfNI+WeFpLuoXF7rbHRyPZIwteO4Vqq/h2rip6mTxuoTnFNdFUUrI4Dk6sqnq6d0TzkEKPFqdIGnfKmf01a2eV7MArSU0msbqhp4yyPUQplLU6eq3zNZtXDow5AREBR4qodSFJZUB2yt5JS4XPhkD43FrhyIXRODOO5aV7IK12Ogdlc92cMpBGCpFesbBxPFUxMIkBB65Wop6tsrctIXkXh7iWqtMrcvc6MdCut8Ncf09QxrfE0u7EqXn8WOxS6ZGkHC518QeH/2jRSsacE8iFd0V/jqGgh4KOvrWSRnVupLZdg8x3C21VnrnCQFzQdjhXtovxY0Bxxha/jOmhqNewz2C55PRCFxxsvX8fyuXXOttS31rwMkfqrCO5wyc3Bc1a9zDhr1Dqq6rhP4bid12nyuf0dfZJHINiErQ08lzazX2oaAJScrRU19B5ldJ3GfrWldTseDqAVBerLFKxxDRlS4bsx/5gpIqWSt3IWkc5dTz2+p8mdOVrLNcdcYa87o70yAROcAMrK0dZoq9IPVZtxZNb8yeqnWiYCqbnus5DVaowcqfaKkfNtLjsFL0sjd3GRphJ9FkJ5QXuwp9yuQ8B3m5hZh1VlxwVnjxF6WBfuhnIUBlQD1T7JchdZWcSMZSdONzsEpjgBlyrrhc4oiW6hnss9dyLOdSnv1vEbOZOFpo66Cy2h0krg0Nbk+qwVNcPDlMrzjHJUnE97muoFPE4+C36vVeT5N+S5/HbnOYoeL7tPxHd31EmfCadMbOwUWhtpPNqtKG2bguC0VvtviPaxjdycBdJxJGPtbVx8KbG6S8eNo8sYxnHVekKOPw6djewWO+HtgjoKFh0+bGSe5W5HovF8nX2r0czIAUW4yeHEfZSwo9ZCJWEFc4rE1kUdYHCRo3KoJeHovGL2NHNbGuodAJaqoVDIi4PIytTEqNSQfLR6cozICdtyoklYJ5y1hyMq8t1Czw9b9yk8+j08Hyx+Y7bJI1s+kkKXJGQUyRzWGTTnSEHLj+qZdGXfUSfdSdKSW9ggimEDogIVIPLYI2hAw2LG2EsN3T+kZSS0fdUJbjfPZBEc4KSgeY5Osd25KGXbo2yYQTspbTsokcucp1sigf1eo3RsdzTGpKa5A+0+yMHHVM6xjYo9fqgeB7pbCFHB37pbXIJGoBE1w3TLn5GEGu3QSAQUY5bJgP7I2vx1QSMBANGE0H5Rh/qoLzh25mknEb3eQnb/C3Ie2aPW3kVyouOcjbHXstZwxeNTfBmd5ht7qjVUFXJQ1TZYyRg7rsnCF9ZW0zMu3wuLvaCMjcFWPDt1ktlY06j4ZO6sHodjgRsjVFw/dWVlO0hwOQr1pyFuAI0SAQGEaJGEBo0QSggACMNQCMIC0BDQlhGECNCLQnUeEDOlDBT+ENKBjBRgJ/Qi0IGgEMJ3Qi0oEYQAS8IwECMI8JYCAagRpBReA09E6GpQCgjGlb+6EpsAHIKSAjAQR2xJ1rE6AlgJgba1OAJQCMBUEEoIAIwiAEYQQCA8okEEDc7/DYSsnfeIxQ5Mj9IWrqi0Qu1dlynjiWF2sS6SEhDFw4/jGRG5zj6BZyu44rJCfBYR6uKh09JFMwvaA4dlHqLaXZcyPGOmV0mJ5aPhfjiZ1S2Kt8jydjnYrrtlu8dTE3Lgcrz9HbmyR7x+YcjywVfcPX2qtEjY6trzFnDX8/wBVLN9LHfRgjI5IsKisF1FXA1wIwR3V8CCMhYUnCLCWiQJwiwlosIEoJWEWFAlDCPCACBJai07JaCBksB6Jt0DTnZSsIsIqtloWOBy0KDPZ43/lWg0oi1Bj6iwMdnDQfsqqp4ZjJOYh9guhmMHom3U7T0UwlcpquFmEHAI+ypqnhLJJDWu+y7PJRNdnLQoktsjd+VMVxSThXSd4v0TEvDwY3ZrmrtD7Ow8gos1kB/KCpYOPQWp8btiVsOGKR7JGjVkdlo5bA05zGP0Uq02tlNNnYJINHbabEIypzYgEVK6NkYGoJzxGfvBWIWwBvJGCkCSP94I/Fj/eCodB2QTfix/vBGJoz+ZAsInDIIQD290DIzugp7raY6qN2WjK5Hx1wDHVNfJEzTL0IC7g6VndQ6yCGoYQ4BJcHibiLh+e3yvjqIyBnY4WcpKAirJxsvXXGfCVJW08gkjB25gLgN3sbbVcnxjJbnbISZfQopqPTTbDmqGRj2PIwVuaiJjogB2VJV0jfMWtW+bjOKJszmqZSTOz1SHUbnP2Gyn0dCR0XSMpdO9zgpWgkJcFMGNCfaBkhSxZVfICAUmnqpqaTVG4jCsJ42lh7qtkZzWGm94V40cx7I5nHOcLqdDcRXU4LXDBC8zaXMfqYcELZ8J8XzUb2xVJ8vLKnsdJvtukIc6PLlgrvDOwuyw/oup8P18N2YNJDsq3reFYKqHUYwT7KTrF+rzfUTPjeSQQm/nmEYdzXY7vwDG/VoZj7LF3XgGZmoxtz9lqd1Pqy0NbGOSlR1LDyKi1nDVbTE4a7b0Va6GrgPmaVufLYz9WniqXDGl6nUtfKCckrHQ1b2/UCFOguJaNiSV05+ZPovLtVyPixnHoqKhY41RIykVFc97uRS6esEe+wVvyyp9Gqhe5sIBKXDUuY/UDusvJeDyGUhl5OeeFP8q/Rr6mue5nmcVB+ZI6qjF2a7mU7HXMf1C1PlT6ryKr35qwpqjPVZqOQE7FWNK9wjJHNdJ8jN5PcQXwUVM4NO6xdrram5VrnnVozzKn3ShmuFUGb6M7q9tFqio4h5Rss3z5qzx4R6uJ5j0+iVQUI0gkK28Jr3ZIU2ho3zvDYIy8+g2WubJ7Sy1DgpRjlgLY8HWV9RVxyGMiNvJWFg4QfK5slUM/w42XSbTa4qOIBrQCPRcPm+eWZy6cfHnmp1viEFO1gGMBTAU03YJYXkdSZZdPMqju14bT8j1Uq7ymOMkLFXCds2dfNNXE648QxileS7fC5vW3uoqKl4hyATzVpcmiTLQVEhoooRrOMqyxDtpmfC5rn5ye631oqXTRADPuubPrGCcNBGxW3slwiZTgahyU3FzXjeZu2cKLoGSFZSRkBQpGkE4BUczXhhILAQU5n0RDJHugZMe2wRsYnwzIRaMHZUNubgEJvH3T5CLQoI7m802ApJaeiR4Z7IIz0hvLKfexI07IEt9+adYfumwN04wbFAsORg9E2Qc+qG45oHNXVGHpA3RZ6IHhIjEhwo+digCgkeKR02Smy4yoyPdBMEiMOCiNccJbXIJWsI2v9VF1+qDXblBML9kqCZ0MokYcFpUYOyjDvVB0rh26srKYNefN/RWsjN1y21V7qKpDwToPMLpdrrGVtM1wIJwg1nBl+fRVDYZXeXOBldktlYyphaQ4HZedHAtdkHBC6BwNxEctgmd5htutQdbG6JMUk7ZowQc7KRzWgAjCIIwgMJQSQlBAYRhEEYQKCMJIRhAsIwkhGECgjCIIwgUEAgEAgMBDCASvZAnShoSxyRhA3pQ0pwIwgbwgAnMI8IGwlAJWEAEACUEAjQAI0QRog0aSjQGjRZQQGiygggrr3IWUrtPZeY/i3e6qkucMZc/w3O3HRel73URsp3hxGcdV51+KYpavW2Qt8TO3dXlTXCFzL2sw7LDzB3W1koxVtDm6dP8ACVy3hmOSliHiEgdFvbLedB8OQsIO3mUlymJngua/QB5QOaZmgacufyHYq9ljbNDrhxuOYOVVzRGMhhZ5u5C3uon8L3f5OUMllIizgZ2XU7Rco6mMFp2IXFXwuzsCB25q84fvU1JO2F7h4fIFSzSOzDDm5CLCp7RdI54wGv1K6aQ4ZCypGEEvCLCBKJKwiAUUWEMJWESBOEWEtFhAlBKRIEo0eEWEARYR4QwgLCLSloBAjwweiIwAp5qUEFXXhsETjsufX7i6ltkwbNOxhJwATjK1PF9d4NPJp54XJqHhiO+3Katr8PAOlurskz3VaOP4h0JGBVx/+pOf7/0P/wDMi/8AUsdxnwpQ0NE6RkbGkDOwXMYHRvGwBW+eebNZtx38fECh/wD5kX/qR/8A6gUIH/1kf/qXB2MaDyCfa1p6LX0ifZ2x3xDoR/8Adx/+pWFs41p6pwEU7XexXAnMb2Cl2m4Pt9S1zT5M7rPXEzws6enqC7Cdg3yp3zBPJc24UvkdRCwhwyugUM7ZWDcLw9d9S46yQ94zj0KNkrvVOhqAas/emRAuJ8SFwc0nbsuOfEGxPqHGaFhDm78l3F7WluHKku1sZOxwABV5+W83TNeX5A+N5je0gjumXx69sLpXG3CpaXzwNwRvsudua6N5Y8YcOa9/x9TubHGyxHZStB5KTFEBySRlPRhdIhwRgjCZfC5pJCmMxhAgFBVSat0w5uefNW0tPkbKDLAQSpYRCezmmg0ZU/wz1TMkeNwsWNa6Z8GBPLVTZJ8JuAMr0PRQg0oyF57+FNwgpRoe9rST3XdrVdI5Y2gOGMLFaTJqFj85AVZU2WOQHyhX7HteMgoy0LIwldwvFIDmMfoszcuB4JA78IfouvGMEck0+mY7oFVee7lwA0Z0M/kmrP8AD7VN+K3b2XfZ7ZG/PlCKntkcZyGhByKs+HlN8vhkeD7KjZ8PAXkHOPZd/kpGubjAUcW5gJ8qbRw//wDTqLH0n9FCqvh00A6Qc+y7+aBn7oTUluYQfKP0TaeHmO58CVMIcYwdllqy1VtC46muwF60q7Mx4PkCy174TinY7MY/RNTHnGmrXxu0yZGFqrVUskYAT+qs+JOB3xvc6Bn6KttPC9wMgY1jgF057xLytB4EQLtslO08VTXPDaaE474Wt4e4Fc8NdVZcexXRbPw1BSsbhjRj0Wr838iTiOd2LgqaYtfVkn06Loll4agpGDEYGPRaGCmjiGGtCfAXK92tySGoII4W4Y0J4BABKwsgh1Sggggg3KDxoyFh71a5WBxZldFIyCoVVSNlaQQoscLrDUw1Dg4HmptLQ1dc3Zrg1dGquHYpptRYP0VpR2mKCLSGhRXELvaailflrTlVQulbSnBDgAu73Gxxz5ywLL3HhGN4OIx+iaR5TkjyossAIz1Urx2kb4Ra2u6jCa5qx0H6JPh4VhKG7qOMZ6JojBqLRzPVShGDnCLRz/oqiNp2QIwFIEaS5mUEUjHRDAT5i23RBnNBFezPZM6VPfHtyUfRjOyBkMwjDeaXpOT3R4wECNOUjR/8p8ZIRY3SBoMKQ5u/spIH2SXgdEEXB3yhjfKkBvQoGNII7Ued074aBjPRAgHshnBSizCLQUBg88IxjHJJDNtkoNIQONKPukBDOQFAsFXvDV2dR1DY3u8hO3os/wBMI2k91R2WCRlTEHsOUcEj6WdssexasXwleiCIZneYbe62xDZI9TeRQdW4L4gbUwMa53mG2FvIZA9uQV5ztNfJb6tr2k6c7rs3C95ZV07TqzkLUo1aCTG4FuQchLWgOiUEkI0CgjCSEoIDCUEkJQQGEoJIRhAoIwiCNAaMIkYQGEoJIRhAYRhEEYQGEaII0Bo0lGEB9EYSQjCA0YRIBAaMJIRogwjRBGEAQRIIo0l7tLSUYTVXnwnAIjn/AB7cXwU8pa7GxXmy4+LXXeSaWV73B22TyXf+O6d8rXg5LeoXILxatDjLBsRurLin6RzJKUNds4BQRUSw1mNw0d0mhnGdL9nDonrhNE6LkA4dU+prW2HiBkRDH4OdueFqYpo54/EaHDPp/def6q5SRyFsbsFX3DXFctI5raiSQt/hOf5LU5S110wjS4k5J7FNSUuGkAbnuFn47/TVbA5lQc/xDBCsKS7tdtI+QM5A41K4mtJY7nJbntj+oHrnkuj2i6NljbqcMlcNrqprXeJFKT6A7lTuHeKDTTNZUSPwTsXD+6l51ZXoBjmvbkFGspYr22oY0h4IK1EMrZWZaVhS8IsI0aBGEWE4hhQN4RYTmENKBrCGE5pRaUUjCLCXhDCBGEErCJAMIsJQQCABB+zCjCRMcROUHN/iBVeDTSvJ2aMrnnDPHdrgoyZZo9iebgtl8TXf/ttXg/lK8dXOLRO/PdbnMvPk11b4n/E6G56qK2uDw7Z8gOwHYLI2ivD2jdYN6tLXUuiAydlebnhL5dIhlDm81IYfVZeiuIIAJ3V9TVDXtG4W5WcTeYSSzPLdBrgeqkxNyqLDhy6S2+paC46MrtPDN4ZPEwh2Vw1sGVoOHLw+gnax7jo91w+X4vtNjXPWPQ9JM2Rg3UgjAysZw/eGzRtIdnPqtZBUNkj5rwWZ4rsiVcrmknPJNU075sjIwk3LfJzsmaAEu3LQFMWGrrbvHjcCMgrkXGfCjo3vngbgjsu+sax8fMEqivVqbNG7Lcgrfx93i+EsleYHtMbi1wIIS2OW84y4VdG900DMewWBma6Jxa7YjuvpcdzqbHCzElr8bJ1hHUqodPjqlMq8cytai6GCm5IgQdlEgqQ7qpbJA4blBFkiwor2K1eARsokkZygiQSy00okgcWuC6Jwbxy6NzIapxBHUlYEw55pJptPmbkOHIqWLK9R2K/x1EbSHgg+q1EFSyRowQvKfDfFdRapRHM8mPuupWbjulljbmcA9iVyvGem5XYNTf3gi8VmcArmdTxxSRRFzqpgA7uTVp43pq6bTDO1/qCplV1LY8kMKotl0ZM0eYbq2Y4PGQogYRYSkSBOlDSlIHkimiwFMS0zXg5AUvCGEGcrbLHMTloRUVghiOdAH2Wj0jqj07KYqLBTMibhrQngE5pQ0ohIRhHhHhAEYQwjQEgjQQBEQjQQN6R2QASkEURaCN0y+BrhyT6JQfPTVkbFEHuGRlFjc7oicZWGCnSOKjvkLSpDSCO6YmGQRnKsChU4SxUA53ULbsjGMboJ7Z290oStOM//AAoA2OyVk42KCdraUBp/RQWuclCQjKuiacEFR3sG+6bMxwkeLudzhAvR1wQENCR4+3NATBNCwxJ04Q8UIeK0poLHpsiITgeMbIAtTQyGbpWPRPANRhoI2V1DGnbkhpT+jojDAeiaIwCBaN0+Y8ckWg9EDTWgZ2R6E8GFFp9FAwWDp/NEGd1IISDzKoa0YRBqfxsi080CYnOikEkZw5u66FwveG1MIY878iFgQ1P0FS+jqBIw7dQg6tIzPLcK54WvD7fVNY9x8MlZezXBlZTtGQTjZTntI5bEKwegLHcWVMDSHA5CumnK4vwVf3QyCCZ3tldat1W2eIEHOy1KJ6ARg5CCoASgiCAQKCUEkIwgUEYRBGECgjCIIwgPojCIIwgMI0SMIDCNEEECggiCNAaNEEl7wwboFowq+S5RxnfCJt1hI5hBZIlBbcou4SxXwnqgmIKKK2HulCsi7oJKNRxVxH8yUKiL95A8gmhPH+8lCWM8nBAsIy0OaQUgSM/eCWHt/eCDO3y0CZji1uVy3iKwPic98bfL1C7qdL24JGFRXe0xzNcQAcqLHme7Wt2oyQgh4PJUFU55YWvBDgu18T8P+A50sQGOoXOr5QRuy9uGuHNWVHMq1rmyklNMkI91e3OmZkqjkjw4hdJWbF7ZLmGPDJDv0Pdb60VkcjQCcrk8MZJyFpLJcHxODZCc9+60jp4gje3I3CYmpGYJwolpuAe0AlXJDZWbdVArh++SW2Zsczz4WcA9l1iwXtk8bS14OVwu5wPaDjknOG+JZrbUNilLjDnAJ6LNmtSvTUEzZW5BTqxHDd+ZURMIeCD6rY087ZWDB3WFPhBEggNGiCCAI0SNQFhDCNBAnSi0paJAjShpS0EDeFGrHEROUzoqu4zBjHIrlnxHLn2+qAz9JXk68MzUS9wV6141cZqSdrRkkFeZ71bJGV8odGd3HC3z/wDOJWKFO57uWAE85uhvYBaN1qk0ZIa0LP3WN0JLenUpYiNDXPjl5nC09qugIG6xTuaepal0L9jspLg6rSVbXgbq0ppgMLn1puOvG+61tBKXgd10lRpmTDGyZmk7FRYnO7pwjIyqNNwtxA+lmEcjjpXXLHdhURNLXZyvPgBaQQcFbjga8uZKInu6rz/N8WzY6cdfx2d0RnYohhkjccZwpVlqBJGMqymga/crxx0Q6KV3InYKe/S9mCclQJdMQOMBIgqNbuaYIN5trJo3AtyCuK8d2D5eR0sY2yvQMxDojlc645hY+mkyOi6/F19ax1NcGdTk8spr5ZwPVW50CZ7exTumPSTsva5qymheTgKwbFpZkndCOSON25CRU1sYa7BVlQGSFztIUtlK57cqttbhLUDOea3FvpY3Rb9k0ZCWN0R3UeSfy4IK2NVbGyF2ndVFZaNIJwqMzKdZTRaR9JI9ip9RSmNxTBbuQpYsqG/J+ok+6k26vmopQ+FxGOiS9nPCYLCAuauu8G8ctfojnfhw23XXLJfGTMb5wcryNG90Tw5hLXDqFuOEuMpqORsVQ46e+UslWV6ngqGyt2IT2FzfhziaOpjaWyA59Vt6GvZM0brHppZAIEImuyNkEQMIYQRhAWEMI0EUlGjQUBII0EBAI0EEAQQQQBEgggCLCGUSAIIIkWPnk1436Jp5BSRnKMgk7/oubI43benJG3BBBRY58u6GcFAxIzDueyRy+ykPbndM4wqgAnklZ29UjOM7oAg9UCmORk8+qQcDOOSIu7oFE56otii2xz9kprVQ24EBFpwnsBIPlUCWj3ROJBOERIBQLs8v5IBrIQEhSSdknlnG4QSGynG5KUJuhUfARj+SCWyfKcEqgt7pwHPVBObJn1Rh4UEFHqONiUE8PblDY8lBa445pTZSNiUEwtB5JOjOUw2XCUJVQ6GI/DOM4TQm3TrZ2kbn9VDBYSdKV4jc7JTXA7KosLHXuo6gMJwwnZdCoqhtVCCDuuWkjotHw1dTG8RSO36eqo2Yc6GQPYSHArpPBPEPjRtjkd5xsucMc2aPU1Koap9DUiSM8jurKPR9LOJWAgqQN1huEb6yqgZ5t8LawyB7Q4FalDqAQRhVRhGESMIhQRhJCUEBhGiCNAoIwkhGgUEaSEYQKQRIIDRhEjCBQVPe6rwYnYPJWxOGkrH8U1GlpBKEc/4o4vkopnNZHI/fk1ZxvxIdE7E0M7T6haZ1DTVU+uVusZVZxZw3RzUDnxsDSBsey1s9CLF8ToPzNmH2UqP4nUf5nSD/AMpXJpITHI9h5tOMpBbzW/rE12VnxMoDzmcPsU634l2/P/1B/QriRHNGFMhrucfxJt5/+6H3UiP4i24//eM/VcE6Ij1TIa9Bs+INv/8A5kf/AKlIj48oncquP/1Bec8DsEYA7BPrDXpNnHNGeVVH/wCoJ+PjalPKpZ/6gvM2yIHB2JH3T6w16jZxnTY/+ob/AOpSG8X0r2kOnb+q8rCR/wC+79SlNmePpkkHs4p9Ya9BcUX6mMDnMlaQexXH7zdhJM/Q7bKzxlkc0h0shHYuKZLQU+sNLq5w/ON1CEReckKUGgdEsAZVkZ03DCGp7SAOxRtQO4K0LK1XJ0Lw159vVbW1XMOaMu2XNHeisbVcnRPDXnHYoOqFrJ4z1VBdLZglzQl2i5BwblyvXaZ4uhWSKXha81FuqRG9xMOds9F2zhq7/MRtIdlcgitzTLhrckrovB1vkgjbk/Zc+m46XDJ4jMpxRaFpbHupSyDygiCNAYQ6IkaAIIIIAggiygNEiQVBOPlKzN+k0tdvgLSvPlKyfErHGJ+EGPr9MzXDYrm3FdmbI5zmt39FtJZHxzODicKJXQsnjJ5pPCOL3Jny4LZSBhYu8gSuOjl3XWuJ7K2QPIaub3GgfA9wcNl09ox0sZBKZI3V5WUwIyAqmWMtJWLMU5bpzFO3fAyt/aKnyNOVzdmzwtbaKg6GhJVbhlWA3mnm1YLVn43OLRzUmN5HMrUqYtjU+ql2m4Gnro3A7ZCow7KdhJEjSOhCasj0VwrdfFhYc9FsW1mYxgrkPBMrxAzJK6HDMfCC+b8niu/PmJ9TJrKKnIYoRlQEpAWPs1ixlqPKQCsLxlJmnkz2WlkmODusRxjUEQSey1x15Zsclml010o9U9LKDGcKlqKzFbMS38yWa0PbjOF9OVwwVS92vZxUUyuz5infEY71UKvm0sOlVFraqxsUuSVraW9sZH9QC48bpJFKRkqbDd3PZgkhNHXIb7GXfUFIlucUrNyFx83KZm4JIT8F/eNnOKso31Y5kjiQoDocklU9FdhJjLld09QyRvNVEZ0RwcBJMGQrFzARtyTZLWDdTDVXJARnZRy0gq0mlZghQZS0nZc7GlrYOIKm2Stw8li7FwnxhHVNYDIA7tlcEAUqhrJqKUPhcRjonv2sr11a7syVoy4FXUUoeMgrzxwhxsDpjndhw23XWbLfWTMaQ8EFYsxpskAotNVNlbsVJByNigVlDKJBArKJEjQGgiQUBoIkEBokESA0SCJAaJBEgCCCLoix87QOyU3fOeSUG4BykEYO/RRzG7YIuYOETyNKba7KYFaiNgEh259UHEoFux9ExSMonADOnZBwRB3TCmAiSeaIcuqcDR+qBbvthMBA7AImuwThGBvzylOYDlXAA4b9Ul7sj0SCDyCMDmmBl5QB7pb29kzuCoFk/ojakjfPRKzsUBnZJ1d0RIQABQONcCOiU1wzsm9OyNp6KB7KLUmi5BrshUPsdzygSN0huOiIDfKBwO90M90jCNo6oHG4yhjfKJuyMHsoFNJAKMPPdI5BGMoHA/KEcro3h7CQRyKQMZKV0Qbvhe8iZgY87jYgrTPaHt1N5Fcloqh1LO2RnLqAujWC5MqYWguzlVGj4fuj7dVty78Mldm4duzKmFpDgchcIlYtHwffHUc7YZXHTnZalHeGOyNksKms9e2eJvmyrhpWpVhQRokYVBowiCMIDCMIgjRCgjCSjCBQRhJCNAaNJRoFId0WUEBSnEZXO+NpSIJcHBAXQak4hK5hx1Linm9ik9rHJKL4i09suNRTV506TzPIo758TaKrp3RUr/EJ2w1cp4qZrulQ/u5Z+J7oZQ4fdaskupuujR1hqZXSOGC7oE85Zu01gc0brQQvEjcZW5dZwkohslPBCb681QvOUndGERRAG+yCDUohFJyjRYR/0QBFnCVhJIRBApbd0kDdLakCmtR6cIwcDdGCO6oSEpJJCMEIEuHZNaVJ5hIICCfaa90Lw159itvariHNG65zjsrO2V7onhripg6xap4/mGl2N10uwSxgNOQuG2yvD2jzLZ2C9uhc1j3bdCsdcrK7bTytewacJ1ZOz3VsjR5srTU87ZGjdc2z4QQRZHcIhSCJBAoIkEEBIIIkARZQQRRHkqe7U/iMdsrhMTMDgUHLLzbSx7nALOS6onEHkur3SgD2u2WHvVsLS4gLUTGMuEbZmHllYS/2sO1eVb2uY6Fx227KiuAbIw8lqXEcjuFG6F7gRsqSrp9jsV0S80Ydq2WRraUxk7bJ7GVMZEg91qbHESBkKrNNrm2HJaiyUpaBss2KtGRAMCQ7Y7Ka9uG+ijBuXJAcQUmAZlYPVIYMBP0TfEq4mjfdLR1vgyL8Fi3jG+QeyyXCUOiBmey2ILQ3GQvmfJdr08+jYYclBwwCll7QPqCakmjAPmCypmTYOWC40kAp5N+i2tXVxMicS4LmHHNyjMUg1Lp8XO9M9Xw5hONUsju7iosu2cc1JdK0kjZMS4I2X0HnMxyEHBKckZ4jCorzh+QrOj3aAtQZq4Umgk4SaKMDYhaitpBI3cKrfSeFlwCCPMAGbqrnIB2T9wqdBIVRJPqPVNFnS1jonDdaa1XPOMlYSF5c5XFGXsGQrOkx0SnrQ9vNFUTFw2WVoq1zeZVvT1YeMFXTCpHPzkpDXO+ymsDHjokuh22TA2w5ThGxSA3BPRLBGFmxSGvdE/UwkELYcK8YS0cjY53HGe6yL25CZc3Cg9McN8TRVMbS14P3W4oLgyVo3Xkax36otsow8lmf0XYOEuMI6ljQ6QavdZvP9jcuu1scHDISlnLXdmytHmyr2GZrxzWQ8EaSEaoNBBBAaCJBAEEESgCCCIIAh0QRIDRIIkV895G4PIpkjnsrF8QOcckw6PfCywguYcJDWYJ7Kd4e26QYuaSiNgeqS47YT7mFMyNIygbO+UnTjcBKDcpQCqE9EYGSl6SixgIBgIjnkj3xsgAgbckkYG+6f05G2MIacZzsFRGISC3JKmFg3ykmPI35qYIjW5KX4e2/ZOEYSc9AUDRj/VANxulnJRdUBdEkhOEbEohz3UU3pJCAaQnxhKcBhVDAJA32R6vVLLUnTnnlRRh3VG12yQR7oDPVXAsv7oa98pOnKUGE5UCw9GHAbpsM39CjAQLB3Swc75TYG/oj5e6BzP3VlZLi6jqGgnyEqp5ZRtO/NB163VTaqEbgnCccCx2puxBWC4buroZGxPcfQnqt7BI2oiy05KDfcE8QHywzOw4bbrqlvqmzRjdeb4Jn0s4kjOCCuqcHX8VETGl3mC1KOlNOyUolJOJYwQVKG4WwYRhEEYQKCMJIRhAoIwkhGEQpBEOqNAaCSjQGEeUlGCgZrTiF3suT/ECTTSTHPQrq1cMwlcm+IULn0cwYd8FXn2rzJeQZqqbA/MVRS0+knK1FXTvM8oIwQ45VVWU5AJ7LfTEVdJUOp5ACdlqLbW6wN1jak4cQOik2qrcx+kndZlV0NrhI3OUh0ZyVEtc2sNBKvoacPaD0W2VWGOHdDQVeCjBBwEg0gHMIqoDCleGcclbNpB2R/KhVFQIzvsj8M4VwKUJQpQiqcRHsi8Jx7q7FMAlCkBRFF4LuyGggcloW0QI3CJ9vGNlRmnagkF5C0L7dkHAUOe2OwcLNWKgSkpxj8p11G5rsEKZTW8ncjZJSoYchnKtH0I07BNMoS53JaRBzsgrJ9tIbyUGanfETtkIJtsr3RODXn7rX26vDwMlc93Vhbbg6J4a8+yDsVjvTqcgPd5e63Vt4gjLARIFxK214e0ZKu4ZXEZje5p9CudmrK7I7iJjW7yBCC/xyOwHhcamqKstI8Z2E3Q109HOHl7nMzuCVmcta9D0Na2Zo3U4HZcy4bvzZWN8/81u7fXNlYN1mzFWYQSWnIyjygCCCJASCCJAEk9UZSUDE8Yc07KgutAHg7LSFR5og4FBya/Wk+Yhq59daSSB7tjhd8ulvDwdlgeIbKHNeQ1WUxyCtj8QFZy4UmrIAW7u9ufA92AcKhnpw4nIU3EZCC2kSbDqtDQU4hjyRun20waUJPK1L0uGqiQNaQoAmIJKdma95JTYpnk7AlTTANQcKXaKoMqw9xUdtunfyY4/ZPRWWrd9LHBS3SOl2biSOCIF78ADupsvGsI/5oXMo+HayQeZ78e6mQ8Iyv+tzyuP+KWuk6rbyccwjP4o/VQKjjyMZxIP1VPTcEaucbne6tqbgPOPwAPcK/wCLk+1VFdxwZGkMLnewWGvt5qKx+7JA31C7DFwHgfQB9lW3fgZ2hxa0fot88Tn0zdrjUVQ4ncFSHT+XmtHXcIVcUriIyB7KirrTPTHzArqxiE5xc4YKs6GXTjITdHap5BqIwpJgMEha4bpBODw8KPUxam7JLcjknGuyN1oZu427xHHAVNLQuYSMFbqSNpGwUOakDs7bpgytLR4I2VtFAAwAKV8roOQEbRjmFkR/D0pyOZzCnHt2TDm7lXRa0dXk4V1TOEjfRZCnk0P+60ttkJYO61KVJqGc8clDwQSrKRuoDdMPiAGAqiNrIR6gQkyt0pgSHUs2KeIyn6GtmopQ+JxHomGHISgMrI6jwhxr9DJ34Pqus2S+sma0teCCvKrHOjfqYSHDfK2nB/FE0FSyKVxxy5pZrUr1FR1IlaN1LWJ4YuYniYc5yFsoX62ArDR1AIgjRBokEEARIIIAggiQBDoiQRQQQRIr59tqCD7ckl1Rvv8AdNBpP3QdERzXNgrx/wCSUJmnmo2nkDzSdPPTn1VExrmu7IntaQobC5pIynMuRC3RdQjEQxywmjKeW6Q6V2OuEEzQ0tITL4s8v1UYVJbnOxS21OrdAsN3SgzuElkzT1Cc8RvcAK6CDEtsf3RNe3H9EovGNuiaCc0D7JrnnI3Tp8wOUQYcn0QRns2TDm4+ysPD2OyjSxndBGwTzylY27lKLOyMNVQnSgGbpZGd0WcZ2KiiAJ5oyi1c0h5JyqDONt0Q2QAS2tyiE4z1Sg3KMtAQHZAYBCNoCLoiOQNigcIHokDfmiBztuhj3TAY5c0eP0SN0ppQHpRBm/ZGlMKYaDXOYQ5pII6rZcMXjUwMe7zDYrHEbIUs76acPYeXP1TFdey2RmpqkWm4SW+ra5pOnO6y9huzJohl2cq4kIIyOSDuPC17bUQsOoHutlBKHtBBXnPhq9voKgNc46MrsnDl5ZURNw7IK1KNcDlKCZikDhkHmnQtBQQBRAowoDCMIkAgUgCiBQVQeUYSUECkYSco87II9Y/DCCue8UU/ja28wVt7lLpYVkK6Rsry080HBeMLG+kqHzxs8pPmCxFdBra7cL0BxNbWzwvGnOVxi+2t1FUvBb5CdvRbnlK59XwaHFQWEskBHRau40gcwnCzVRCY5CPVSzBrrHPqibutdQVQ0YJXObRMYwAtJT1LsZGcpKY1oq2tPMJMlW0nms0KtwO5QNST1K1pjRirHLKP5po5lZsVDt0BUO33TTGk+bb1R/ON7rNCoPdD5g9CrKY0vzre6NtaB1WaE57oxO7HM4TUxq47i0cylm4sI2IWOdUkdUltW7PMppjawVgeeiXK/Odtll6KoJI3Vp8y4N5lNMOzSRA781Igqog3CoquYOzk7qJ805g57KK1clVFg4Um2lknMbLGNrTndyubdcWsA32VlTGx+XiczsqitoQ5xwNkTLvGWfUmhc26tnZCsFdUUOAdlXSwFhWhlqopWnuqqpwScIgW6tdE4NcVqrdcQ5o3WKezPVP0NW+Fwa4lFdIjlbK3bGUiVmxVFba/IGSrqOcSN57rJC6KtkoZg5hOjO4XReG7+2VrfOuZS43RUddJQzBzCdOdws+2pXoy3V7ZWjdWYIIyFyXhriNsjWgv3XQrZcWysHmWLMVcIJLXBwyEpAESCCAkRQRICScZSkEEaaIOByFQ3O3B7XeVabGUzLCHAorkfEFjD2uIaudXa1Phe4hpwvRFxtwkadlj7rw+JCToCg4rBb5J34a0gK2puFzIMuBXSbfw2Nf+ngLR01gjYz/TCmEjkUHCcf7mfsrCn4Ub0h/kusx2do5Rj9FJjtWPyqYrmFPwnt/pgKxg4UaPqA/RdGZbAOYT7LewdFcGDp+F4W82ZVlT8PQt5RD9Fso6No/KnmUwHIIay8NlYOUYUyO0NH5QtAIUoRhDVF+y2Acgo1RZmPH0habwx2RGMIMFW8NxPacxgrm/GHCzNepjAN+y7/LThzTsslxLbg+Nx0oOR2HhqOQYe0KJxLwSXPdNC3GB0XQbIxkVS6MjG60FdTRupzkDcKS/Wq8vV9BLRSFkgUUBdE4+oGCrb4YHM5WHlpXNOACum6xZiKETgnHMc3ZwSCrqGXMBUaSLfZT2jPNJfpVFboyURhyFKcACklwUwQ20+HA9lcUEjW4GVVzShrcqPFVkP5qyjZRyt05OExNO0HGypm1+I+qiurS6Tcppi6nlaWkhVEtQWvKcbUamqFPlxJVWJsFVnYqfHKCFSRNIYnopSw7qYi2Lkls7o5WuZzB6KPHMHBWlsohM4ErI7B8Mrw6oiYwk5GF2y1uL4RlcI+G1K2mleT1Ix6Lt1qqGiEDKxfbp/FsjSGPDuSUEQaCCCAIIkO6AIIIkWAiQQRQRIIIP/9k=;" parent="2" vertex="1">
                    <mxGeometry x="500" y="160" width="170" height="113.33" as="geometry"/>
                </mxCell>
                <mxCell id="12" value="&lt;h1&gt;&lt;font color=&quot;#0d0d0d&quot;&gt;&lt;span style=&quot;font-weight: 400;&quot;&gt;Assault Rifle Store&lt;/span&gt;&lt;/font&gt;&lt;/h1&gt;" style="text;html=1;strokeColor=none;fillColor=none;align=center;verticalAlign=middle;whiteSpace=wrap;rounded=0;" parent="1" vertex="1">
                    <mxGeometry x="220" y="80" width="440" height="120" as="geometry"/>
                </mxCell>
                <mxCell id="22" value="" style="ellipse;whiteSpace=wrap;html=1;aspect=fixed;" parent="1" vertex="1">
                    <mxGeometry x="271" y="249" width="10" height="10" as="geometry"/>
                </mxCell>
            </root>
        </mxGraphModel>
    </diagram>
</mxfile>